<?xml version="1.0" encoding="utf-8"?>
<!-- Generator: Adobe Illustrator 13.0.1, SVG Export Plug-In  -->
<!DOCTYPE svg PUBLIC "-//W3C//DTD SVG 1.1//EN" "http://www.w3.org/Graphics/SVG/1.1/DTD/svg11.dtd" [
	<!ENTITY ns_flows "http://ns.adobe.com/Flows/1.0/">
]>
<svg version="1.1"
	 xmlns="http://www.w3.org/2000/svg" xmlns:xlink="http://www.w3.org/1999/xlink" xmlns:a="http://ns.adobe.com/AdobeSVGViewerExtensions/3.0/"
	 x="0px" y="0px" width="114px" height="26px" viewBox="-0.243 -0.155 114 26" enable-background="new -0.243 -0.155 114 26"
	 xml:space="preserve">
<defs>
</defs>
<path fill="#004990" d="M44.447,14.011l-0.025,0.248c-0.302,3.188-2.625,5.249-5.92,5.249c-1.906,0-3.541-0.628-4.729-1.815
	c-1.202-1.202-1.863-2.913-1.863-4.819c0-2.005,0.644-3.708,1.861-4.926c1.185-1.185,2.821-1.812,4.73-1.812
	c3.14,0,5.475,1.863,5.81,4.638l0.031,0.251l-3.207,0.001l-0.028-0.192c-0.163-1.102-1.308-1.966-2.605-1.966
	c-0.917,0-1.662,0.281-2.217,0.834c-0.693,0.694-1.075,1.82-1.075,3.172c0,1.289,0.377,2.376,1.062,3.062
	c0.558,0.558,1.308,0.841,2.23,0.841c1.506,0,2.509-0.947,2.727-2.579l0.013-0.185L44.447,14.011"/>
<path fill="#004990" d="M50.305,9.553c1.533,0,2.826,0.481,3.738,1.395c0.882,0.882,1.348,2.108,1.348,3.547
	c0,1.43-0.465,2.649-1.344,3.528c-0.914,0.913-2.208,1.396-3.742,1.396c-1.525,0-2.813-0.482-3.724-1.393
	c-0.88-0.881-1.346-2.102-1.346-3.532c0-1.452,0.464-2.683,1.341-3.56C47.48,10.03,48.77,9.553,50.305,9.553 M48.94,16.615
	c0.333,0.334,0.792,0.503,1.364,0.503c0.575,0,1.04-0.173,1.381-0.514c0.56-0.56,0.677-1.457,0.677-2.11
	c0-0.665-0.117-1.574-0.677-2.135c-0.336-0.336-0.801-0.506-1.381-0.506c-0.572,0-1.03,0.168-1.362,0.501
	c-0.561,0.561-0.679,1.473-0.679,2.14C48.264,15.153,48.381,16.057,48.94,16.615z"/>
<path fill="#004990" d="M65.584,9.553c1.532,0,2.825,0.481,3.737,1.395c0.882,0.882,1.349,2.108,1.349,3.547
	c0,1.43-0.466,2.649-1.345,3.528c-0.913,0.913-2.208,1.396-3.741,1.396c-1.525,0-2.813-0.482-3.724-1.393
	c-0.88-0.881-1.346-2.102-1.346-3.532c0-1.452,0.464-2.683,1.341-3.56C62.76,10.03,64.049,9.553,65.584,9.553 M64.22,16.615
	c0.333,0.334,0.792,0.503,1.364,0.503c0.575,0,1.04-0.173,1.381-0.514c0.56-0.56,0.678-1.457,0.678-2.11
	c0-0.665-0.118-1.574-0.678-2.135c-0.336-0.336-0.802-0.506-1.381-0.506c-0.571,0-1.03,0.168-1.362,0.501
	c-0.562,0.561-0.679,1.473-0.679,2.14C63.543,15.153,63.659,16.057,64.22,16.615z"/>
<rect x="56.439" y="6.407" fill="#004990" width="3.028" height="12.785"/>
<rect x="82.728" y="6.407" fill="#004990" width="3.027" height="12.785"/>
<path fill="#004990" d="M111.621,11.881h1.887V9.786l-1.887,0.001v-2.68h-3.027v2.68l-1.56-0.001l-0.002,2.095h1.562v5.042
	c0,0.683,0.194,1.223,0.578,1.606c0.667,0.667,1.806,0.744,2.604,0.744c0.659,0,1.163-0.029,1.541-0.089l0.191-0.03v-2.384
	l-0.27,0.051c-0.235,0.045-0.469,0.065-0.755,0.065c-0.394,0-0.616-0.046-0.72-0.149c-0.099-0.099-0.143-0.303-0.143-0.661V11.881"
	/>
<path fill="#004990" d="M74.746,22.313l-3.029,0.001l0.003-0.226V9.786v0.001h2.587l0.309,0.711l0.019,0.042l0.031-0.031
	c0.637-0.63,1.521-0.963,2.558-0.963c1.27,0,2.313,0.398,3.098,1.184c0.896,0.896,1.391,2.262,1.391,3.844
	c0,1.459-0.502,2.797-1.378,3.673c-0.764,0.763-1.788,1.165-2.966,1.165c-0.995,0-1.906-0.339-2.568-0.955l-0.053-0.048V22.313
	 M78.683,14.505c0-0.915-0.261-1.701-0.716-2.156c-0.333-0.333-0.772-0.502-1.307-0.502c-0.547,0-0.988,0.165-1.315,0.492
	c-0.444,0.443-0.689,1.213-0.689,2.166c0,0.918,0.243,1.666,0.684,2.105c0.332,0.332,0.782,0.501,1.34,0.501
	c0.554,0,1.002-0.168,1.333-0.498C78.566,16.059,78.683,15.16,78.683,14.505z"/>
<path fill="#004990" d="M96.822,19.171l-2.57,0.001l-0.343-0.808l0.002-0.077l-0.053,0.056c-0.659,0.68-1.637,1.068-2.685,1.068
	c-1.178,0-2.202-0.402-2.964-1.165c-0.876-0.876-1.379-2.214-1.379-3.673c0-1.582,0.493-2.947,1.39-3.844
	c0.786-0.785,1.828-1.184,3.098-1.184c1.037,0,1.921,0.333,2.558,0.963l0.031,0.031l0.325-0.753l2.59-0.001V19.171 M91.863,17.111
	c0.558,0,1.007-0.169,1.34-0.501c0.44-0.439,0.683-1.188,0.683-2.105c0-0.953-0.245-1.723-0.689-2.166
	c-0.326-0.327-0.769-0.492-1.314-0.492c-0.534,0-0.975,0.169-1.308,0.502c-0.455,0.455-0.716,1.241-0.716,2.156
	c0,0.655,0.117,1.554,0.671,2.108C90.86,16.943,91.31,17.111,91.863,17.111z"/>
<path fill="#004990" d="M100.779,16.318c0.21,0.928,1.366,1,1.718,1c0.144,0,0.877-0.019,1.248-0.391
	c0.142-0.142,0.214-0.317,0.214-0.523c0-0.557-1.036-0.81-2.741-1.16c-1.023-0.214-3.153-0.66-3.153-2.604
	c0-0.821,0.257-1.495,0.765-2.003c0.725-0.725,1.915-1.091,3.541-1.091c2.632,0,4.136,1.026,4.353,2.971l-2.909-0.02
	c-0.063-0.377-0.301-0.857-1.515-0.857c-0.669,0-0.957,0.146-1.08,0.27c-0.087,0.087-0.127,0.192-0.127,0.333
	c0,0.553,0.94,0.741,2.03,0.96c0.231,0.047,0.47,0.096,0.712,0.148c1.022,0.224,3.151,0.688,3.151,2.726
	c0,0.876-0.279,1.602-0.834,2.154c-0.976,0.976-2.536,1.181-3.672,1.181c-1.369,0-2.469-0.276-3.268-0.821
	c-0.787-0.538-1.24-1.308-1.347-2.287L100.779,16.318"/>
<path fill="#004990" d="M20.466,12.785c-1.716,0-2.944,0.421-3.981,0.421s-2.391-0.373-3.217-0.373H0
	c0,7.045,5.705,12.771,12.749,12.771s12.765-5.774,12.765-12.818C25.514,12.785,21.491,12.785,20.466,12.785"/>
<path fill="#004990" d="M17.716,1.011C16.138,0.312,14.423,0,12.757,0c-1.842,0-3.394,0.309-4.975,1.011H17.716"/>
<path fill="#004990" d="M15.979,11.625c-2.073,0-4.795,0.382-5.656,0.382h-10.3c0.021-0.366,0.052-0.662,0.104-1.02h9.893
	c1.064,0.066,2.942,0.387,5.96,0.387l1.056,0.006c3.312,0,4.618-0.344,5.238-0.344l3.114-0.047c0.05,0.356,0.081,0.641,0.101,1.005
	l-3.72-0.021c-0.941,0-2.691-0.365-4.763-0.365L15.979,11.625"/>
<path fill="#004990" d="M17.496,9.814c2.585,0,4.356,0.321,5.382,0.321l2.359,0.003c-0.074-0.367-0.14-0.618-0.245-0.974
	l-1.755,0.017c-0.58,0.09-2.986,0.442-5.726,0.382l-2.072,0.021c-2.124,0.024-5.03-0.247-6.31-0.408H0.52
	C0.415,9.529,0.343,9.804,0.269,10.17l8.56-0.003c0.509,0,4.054-0.348,6.627-0.348L17.496,9.814"/>
<path fill="#004990" d="M21.687,3.658c0.344,0.341,0.569,0.571,0.873,0.949l-0.645-0.055c-1.088-0.065-2.325-0.272-4.91-0.272
	l-1.025-0.003c-3.002,0-5.474,0.399-6.211,0.399H2.888C3.19,4.299,3.411,4.072,3.756,3.72h7.428c1.04,0.082,2.469,0.328,4.796,0.328
	l1.041-0.015c2.073,0,3.246-0.22,3.836-0.263L21.687,3.658"/>
<path fill="#004990" d="M16.988,6.133c2.585,0,4.995,0.104,6.097,0.263l0.733,0.027c-0.205-0.371-0.309-0.532-0.549-0.879
	l-0.7,0.059c-0.509,0-2.964,0.263-5.55,0.263h-1.088c-4.125,0-5.474-0.327-6.411-0.327L2.243,5.539
	c-0.241,0.352-0.397,0.596-0.604,0.97l6.954-0.005c0.854-0.138,4.787-0.475,7.371-0.371H16.988"/>
<path fill="#004990" d="M17.545,7.966c2.585,0,5.226,0.263,5.776,0.32l1.381,0.011c-0.134-0.368-0.232-0.594-0.397-0.945L23.33,7.43
	c-1.105,0.06-2.614,0.294-5.785,0.294l-2.073,0.011c-3.023,0-5.271-0.293-6.316-0.374L1.206,7.355
	C1.04,7.708,0.937,7.953,0.803,8.323L8.54,8.314c1.131-0.118,3.747-0.328,6.932-0.328L17.545,7.966"/>
<path fill="#004990" d="M19.006,2.78c0.556,0.054,1.705,0.009,1.705,0.009c-0.478-0.396-0.823-0.62-1.355-0.944H6.158
	C5.63,2.166,5.205,2.466,4.73,2.848l8.304-0.007c1.115,0,2.26-0.428,3.296-0.428C17.367,2.413,18.388,2.723,19.006,2.78"/>
</svg>
