<?xml version="1.0" encoding="utf-8"?>
<!-- Generator: Adobe Illustrator 15.0.2, SVG Export Plug-In . SVG Version: 6.00 Build 0)  -->
<!DOCTYPE svg PUBLIC "-//W3C//DTD SVG 1.1//EN" "http://www.w3.org/Graphics/SVG/1.1/DTD/svg11.dtd">
<svg version="1.1" id="Layer_1" xmlns="http://www.w3.org/2000/svg" xmlns:xlink="http://www.w3.org/1999/xlink" x="0px" y="0px"
	 width="127.016px" height="53.487px" viewBox="0 0 127.016 53.487" enable-background="new 0 0 127.016 53.487"
	 xml:space="preserve">
<g id="text">
	<path fill="#00B0CA" d="M117.911,2.762c0,1.556-1.199,2.766-2.768,2.766s-2.766-1.21-2.766-2.766c0-1.551,1.197-2.762,2.766-2.762
		S117.911,1.211,117.911,2.762 M112.808,2.762c0,1.323,0.991,2.375,2.336,2.375c1.33,0,2.335-1.052,2.335-2.375
		c0-1.324-1.005-2.371-2.335-2.371C113.799,0.391,112.808,1.438,112.808,2.762 M114.531,4.363h-0.391V1.164h1.226
		c0.72,0,1.038,0.312,1.038,0.885c0,0.566-0.362,0.811-0.799,0.892l0.949,1.422h-0.46l-0.898-1.422h-0.665V4.363z M115.057,2.607
		c0.479,0,0.952-0.016,0.952-0.558c0-0.445-0.367-0.549-0.755-0.549h-0.723v1.107H115.057z"/>
	<path fill="#00B0CA" d="M48.009,4.648c-0.438-2.012-2.104-3.166-4.006-3.166c-3.459,0-4.921,2.893-4.921,5.746
		c0,2.854,1.462,5.745,4.921,5.745c2.417,0,3.953-1.867,4.189-4.19h1.245c-0.346,3.22-2.378,5.25-5.434,5.25
		c-4.118,0-6.165-3.219-6.165-6.805s2.047-6.806,6.165-6.806c2.489,0,4.903,1.5,5.251,4.226H48.009z"/>
	<path fill="#00B0CA" d="M59.576,9.04c0,2.707-1.593,4.994-4.465,4.994s-4.462-2.287-4.462-4.994c0-2.708,1.59-4.994,4.462-4.994
		S59.576,6.332,59.576,9.04 M51.801,9.04c0,1.993,1.116,4.026,3.31,4.026c2.197,0,3.313-2.033,3.313-4.026
		c0-1.994-1.116-4.026-3.313-4.026C52.917,5.014,51.801,7.045,51.801,9.04"/>
	<rect x="61.316" y="0.698" fill="#00B0CA" width="1.152" height="13.062"/>
	<path fill="#00B0CA" d="M73.137,9.04c0,2.707-1.593,4.994-4.463,4.994c-2.873,0-4.468-2.287-4.468-4.994
		c0-2.708,1.595-4.994,4.468-4.994C71.544,4.045,73.137,6.332,73.137,9.04 M65.36,9.04c0,1.993,1.116,4.026,3.313,4.026
		c2.19,0,3.311-2.033,3.311-4.026c0-1.994-1.12-4.026-3.311-4.026C66.477,5.014,65.36,7.045,65.36,9.04"/>
	<path fill="#00B0CA" d="M74.859,4.319h1.062v1.794h0.036c0.529-1.299,1.828-2.067,3.366-2.067c2.873,0,4.243,2.303,4.243,4.994
		c0,2.689-1.37,4.994-4.243,4.994c-1.391,0-2.782-0.696-3.276-2.068h-0.036v5.288h-1.151V4.319z M79.323,5.014
		c-2.562,0-3.312,1.885-3.312,4.026c0,1.957,0.878,4.026,3.312,4.026c2.194,0,3.091-2.069,3.091-4.026
		C82.414,7.081,81.518,5.014,79.323,5.014"/>
	<rect x="85.38" y="0.697" fill="#00B0CA" width="1.153" height="13.063"/>
	<path fill="#00B0CA" d="M88.637,7.21c0.131-2.215,1.648-3.165,3.825-3.165c1.663,0,3.475,0.494,3.475,3.035v5.013
		c0,0.458,0.222,0.695,0.679,0.695c0.127,0,0.237-0.018,0.365-0.072v0.97c-0.274,0.055-0.438,0.074-0.751,0.074
		c-1.17,0-1.354-0.679-1.354-1.647h-0.037c-0.822,1.224-1.608,1.92-3.438,1.92c-1.756,0-3.166-0.86-3.166-2.762
		c0-2.634,2.58-2.746,5.069-3.037c0.949-0.093,1.48-0.255,1.48-1.282c0-1.554-1.096-1.939-2.468-1.939
		c-1.445,0-2.471,0.659-2.526,2.197H88.637z M94.785,8.599h-0.036c-0.146,0.277-0.657,0.367-0.97,0.422
		c-1.958,0.347-4.393,0.347-4.393,2.177c0,1.153,1.011,1.868,2.106,1.868c1.774,0,3.292-1.117,3.292-2.967V8.599z"/>
	<path fill="#00B0CA" d="M103.9,7.081c-0.056-1.426-1.154-2.067-2.471-2.067c-1.023,0-2.233,0.403-2.233,1.628
		c0,1.006,1.153,1.392,1.959,1.593l1.537,0.347c1.314,0.202,2.687,0.97,2.687,2.616c0,2.048-2.029,2.836-3.785,2.836
		c-2.215,0-3.677-1.006-3.878-3.329h1.152c0.092,1.555,1.245,2.361,2.782,2.361c1.096,0,2.579-0.477,2.579-1.794
		c0-1.097-1.024-1.462-2.067-1.72l-1.481-0.329c-1.501-0.386-2.636-0.932-2.636-2.525c0-1.92,1.884-2.652,3.549-2.652
		c1.903,0,3.369,0.986,3.457,3.035H103.9z"/>
	<path fill="#00B0CA" d="M108.874,4.318h1.926V5.29h-1.926v6.368c0,0.748,0.115,1.188,0.938,1.243c0.329,0,0.658-0.019,0.988-0.055
		v0.986c-0.35,0-0.68,0.039-1.026,0.039c-1.537,0-2.066-0.513-2.047-2.124V5.29h-1.647V4.318h1.647V1.483h1.147V4.318z"/>
	<path fill="#00B0CA" d="M61.143,28.857c-1.113-5.102-5.333-8.023-10.157-8.023c-8.766,0-12.477,7.328-12.477,14.563
		s3.711,14.564,12.477,14.564c6.122,0,10.018-4.731,10.621-10.622h3.154c-0.882,8.164-6.03,13.311-13.774,13.311
		c-10.436,0-15.631-8.162-15.631-17.253s5.195-17.254,15.631-17.254c6.308,0,12.429,3.804,13.312,10.714H61.143z"/>
	<path fill="#00B0CA" d="M68.749,35.351c0.325-5.612,4.175-8.024,9.694-8.024c4.221,0,8.813,1.253,8.813,7.699v12.708
		c0,1.16,0.557,1.763,1.716,1.763c0.325,0,0.604-0.046,0.928-0.186v2.459c-0.696,0.139-1.114,0.185-1.902,0.185
		c-2.969,0-3.433-1.715-3.433-4.174h-0.093c-2.086,3.107-4.081,4.869-8.72,4.869c-4.452,0-8.023-2.179-8.023-7.002
		c0-6.68,6.54-6.958,12.848-7.699c2.412-0.232,3.758-0.649,3.758-3.247c0-3.942-2.784-4.917-6.263-4.917
		c-3.664,0-6.262,1.67-6.4,5.566H68.749z M84.335,38.875H84.24c-0.37,0.697-1.668,0.929-2.458,1.068
		c-4.963,0.881-11.132,0.881-11.132,5.52c0,2.922,2.552,4.73,5.334,4.73c4.5,0,8.351-2.83,8.351-7.514V38.875z"/>
	<path fill="#00B0CA" d="M93.1,28.023h2.691v5.611h0.093c1.483-3.896,4.73-6.122,9.044-5.936v2.921
		c-5.288-0.231-8.905,3.571-8.905,8.581v12.754H93.1V28.023z"/>
	<path fill="#00B0CA" d="M108.591,40.777c0,4.268,2.319,9.416,7.885,9.416c4.268,0,6.587-2.459,7.515-6.123h2.922
		c-1.252,5.427-4.36,8.58-10.437,8.58c-7.605,0-10.806-5.843-10.806-12.661c0-6.308,3.2-12.662,10.806-12.662
		c7.653,0,10.762,6.726,10.528,13.45H108.591z M124.082,38.319c-0.14-4.405-2.922-8.534-7.606-8.534
		c-4.823,0-7.374,4.174-7.885,8.534H124.082z"/>
</g>
<linearGradient id="p1_1_" gradientUnits="userSpaceOnUse" x1="23.2329" y1="22.8638" x2="23.2329" y2="52.7973">
	<stop  offset="0" style="stop-color:#CCEFF4"/>
	<stop  offset="1" style="stop-color:#00B0CA"/>
</linearGradient>
<path id="p1" fill="url(#p1_1_)" d="M10.891,50.596c1.047,2.584,23.483,2.891,24.7,0c1.216-2.889-4.674-8.498-12.362-8.498
	C15.762,42.098,9.58,47.358,10.891,50.596z"/>
<linearGradient id="p2_1_" gradientUnits="userSpaceOnUse" x1="8.7671" y1="21.0068" x2="8.7671" y2="51.041">
	<stop  offset="0" style="stop-color:#CCEFF4"/>
	<stop  offset="1" style="stop-color:#00B0CA"/>
</linearGradient>
<path id="p2" fill="url(#p2_1_)" d="M17.422,39.904c0.853-2.117-3.274-6.227-8.659-6.227c-4.734,0-8.729,3.157-8.763,5.517v0.06
	c0.003,0.226,0.043,0.444,0.123,0.65c0.378,0.97,4.713,1.502,8.953,1.502C13.083,41.406,17.008,40.931,17.422,39.904z"/>
<linearGradient id="p3_1_" gradientUnits="userSpaceOnUse" x1="23.6313" y1="17.4238" x2="23.6313" y2="50.4688">
	<stop  offset="0" style="stop-color:#CCEFF4"/>
	<stop  offset="1" style="stop-color:#00B0CA"/>
</linearGradient>
<path id="p3" fill="url(#p3_1_)" d="M23.639,21.555c-3.001-0.002-5.309,1.712-4.835,2.597c0.472,0.882,9.234,0.795,9.646,0.006
	C28.966,23.167,26.556,21.555,23.639,21.555z"/>
<linearGradient id="p4_1_" gradientUnits="userSpaceOnUse" x1="17.4595" y1="17.1338" x2="17.4595" y2="49.9393">
	<stop  offset="0" style="stop-color:#CCEFF4"/>
	<stop  offset="1" style="stop-color:#00B0CA"/>
</linearGradient>
<path id="p4" fill="url(#p4_1_)" d="M17.468,18.143c-2.363-0.002-4.18,1.226-3.809,1.857c0.374,0.631,7.271,0.567,7.594,0.003
	C21.659,19.293,19.764,18.144,17.468,18.143z"/>
<linearGradient id="p5_1_" gradientUnits="userSpaceOnUse" x1="16.9556" y1="21.5913" x2="16.9556" y2="48.8716">
	<stop  offset="0" style="stop-color:#CCEFF4"/>
	<stop  offset="1" style="stop-color:#00B0CA"/>
</linearGradient>
<path id="p5" fill="url(#p5_1_)" d="M10.152,30.798c0.64,1.456,12.978,1.579,13.58,0.304c0.754-1.602-2.59-4.302-6.697-4.394
	c-0.071-0.001-0.143-0.002-0.214-0.002C12.699,26.707,9.524,29.367,10.152,30.798z"/>
</svg>
