<?xml version="1.0" encoding="utf-8"?>
<!-- Generator: Adobe Illustrator 15.0.2, SVG Export Plug-In . SVG Version: 6.00 Build 0)  -->
<!DOCTYPE svg PUBLIC "-//W3C//DTD SVG 1.1//EN" "http://www.w3.org/Graphics/SVG/1.1/DTD/svg11.dtd">
<svg version="1.1" id="Layer_1" xmlns="http://www.w3.org/2000/svg" xmlns:xlink="http://www.w3.org/1999/xlink" x="0px" y="0px"
	 width="117.842px" height="117.842px" viewBox="0 0 117.842 117.842" enable-background="new 0 0 117.842 117.842"
	 xml:space="preserve">
<path d="M69.668,58.921l45.949-45.948c2.967-2.969,2.967-7.779,0-10.748c-2.968-2.967-7.78-2.967-10.747,0.002L58.921,48.175
	L12.972,2.227C10.005-0.74,5.192-0.742,2.226,2.225c-2.968,2.968-2.967,7.78,0,10.748l45.948,45.948L2.226,104.87
	c-2.968,2.969-2.968,7.778-0.001,10.745c2.968,2.969,7.78,2.969,10.748,0l45.949-45.949l45.949,45.949
	c2.967,2.968,7.779,2.969,10.747,0c2.967-2.967,2.967-7.776-0.002-10.747L69.668,58.921z"/>
</svg>
