<?xml version="1.0" encoding="utf-8"?>
<!-- Generator: Adobe Illustrator 15.0.2, SVG Export Plug-In . SVG Version: 6.00 Build 0)  -->
<!DOCTYPE svg PUBLIC "-//W3C//DTD SVG 1.1//EN" "http://www.w3.org/Graphics/SVG/1.1/DTD/svg11.dtd">
<svg version="1.1" id="Layer_1" xmlns="http://www.w3.org/2000/svg" xmlns:xlink="http://www.w3.org/1999/xlink" x="0px" y="0px"
	 width="32px" height="32px" viewBox="384 284 32 32" enable-background="new 384 284 32 32" xml:space="preserve">
<g>
	<path fill="#6F6F6F" d="M414.853,285.149c-1.249-1.248-3.294-1.248-4.543,0l-12.132,12.134c1.075,0.277,2.08,0.832,2.912,1.629
		c0.832,0.832,1.353,1.837,1.63,2.912l12.134-12.133C416.1,288.442,416.1,286.397,414.853,285.149z"/>
	
		<rect x="396.605" y="298.415" transform="matrix(0.7276 -0.686 0.686 0.7276 -96.5795 353.6754)" fill="#6F6F6F" width="0.858" height="0.058"/>
	<path fill="#6F6F6F" d="M388.574,315.526l0.021,0.056c0.089-0.035,0.178-0.073,0.264-0.113l-0.025-0.053
		C388.75,315.456,388.663,315.494,388.574,315.526z"/>
	
		<rect x="390.952" y="304.336" transform="matrix(-0.7071 -0.7071 0.7071 -0.7071 452.1478 796.2428)" fill="#6F6F6F" width="0.058" height="0.284"/>
	<path fill="#6F6F6F" d="M387.471,315.73l0,0.057c0.096,0,0.192-0.004,0.287-0.014l-0.006-0.06
		C387.66,315.725,387.565,315.728,387.471,315.73z"/>
	
		<rect x="388.827" y="306.462" transform="matrix(0.708 -0.7062 0.7062 0.708 -102.8656 364.2125)" fill="#6F6F6F" width="0.283" height="0.057"/>
	
		<rect x="387.217" y="308.07" transform="matrix(0.7045 -0.7097 0.7097 0.7045 -104.1971 365.9322)" fill="#6F6F6F" width="0.285" height="0.058"/>
	<path fill="#6F6F6F" d="M388.032,315.678l0.011,0.057c0.093-0.018,0.188-0.039,0.279-0.064l-0.015-0.057
		C388.216,315.639,388.124,315.66,388.032,315.678z"/>
	
		<rect x="387.732" y="307.556" transform="matrix(-0.6987 -0.7154 0.7154 -0.6987 438.5865 800.0939)" fill="#6F6F6F" width="0.059" height="0.285"/>
	
		<rect x="389.343" y="305.946" transform="matrix(-0.7071 -0.7071 0.7071 -0.7071 448.2617 797.8528)" fill="#6F6F6F" width="0.058" height="0.285"/>
	
		<rect x="390.549" y="304.738" transform="matrix(-0.7113 -0.7029 0.7029 -0.7113 454.0851 796.2759)" fill="#6F6F6F" width="0.058" height="0.284"/>
	<path fill="#6F6F6F" d="M389.082,315.282l0.03,0.051c0.082-0.05,0.163-0.103,0.24-0.159l-0.034-0.047
		C389.241,315.182,389.162,315.234,389.082,315.282z"/>
	
		<rect x="390.841" y="313.53" transform="matrix(-0.6944 -0.7195 0.7195 -0.6944 436.606 812.7493)" fill="#6F6F6F" width="0.058" height="0.285"/>
	
		<rect x="390.147" y="305.141" transform="matrix(-0.6987 -0.7154 0.7154 -0.6987 444.4155 797.7195)" fill="#6F6F6F" width="0.059" height="0.285"/>
	
		<rect x="390.439" y="313.931" transform="matrix(-0.6985 -0.7156 0.7156 -0.6985 438.4804 812.8743)" fill="#6F6F6F" width="0.057" height="0.286"/>
	<path fill="#6F6F6F" d="M386.9,315.742c0.094,0.016,0.189,0.027,0.284,0.035l0.005-0.059c-0.093-0.006-0.188-0.018-0.28-0.033
		L386.9,315.742z"/>
	<path fill="#6F6F6F" d="M389.698,314.803c-0.051,0.053-0.106,0.102-0.161,0.15l0.039,0.043c0.056-0.049,0.111-0.101,0.164-0.153
		l0.044-0.043l-0.041-0.04L389.698,314.803z"/>
	
		<rect x="390.036" y="314.335" transform="matrix(-0.6901 -0.7237 0.7237 -0.6901 431.6407 813.7947)" fill="#6F6F6F" width="0.058" height="0.285"/>
	
		<rect x="389.745" y="305.542" transform="matrix(-0.6985 -0.7156 0.7156 -0.6985 443.3054 798.1287)" fill="#6F6F6F" width="0.057" height="0.285"/>
	
		<rect x="388.424" y="306.864" transform="matrix(0.7071 -0.7071 0.7071 0.7071 -103.1976 364.645)" fill="#6F6F6F" width="0.285" height="0.059"/>
	<path fill="#6F6F6F" d="M384.686,310.858c-0.049,0.082-0.096,0.167-0.139,0.252l0.052,0.025c0.042-0.083,0.087-0.166,0.136-0.247
		L384.686,310.858z"/>
	<path fill="#6F6F6F" d="M384.392,313.624c0.031,0.089,0.067,0.18,0.106,0.266l0.053-0.024c-0.039-0.085-0.074-0.173-0.104-0.262
		L384.392,313.624z"/>
	<path fill="#6F6F6F" d="M384.627,314.146c0.047,0.082,0.098,0.164,0.152,0.243l0.047-0.034c-0.053-0.077-0.104-0.156-0.149-0.239
		L384.627,314.146z"/>
	<path fill="#6F6F6F" d="M384.253,313.067c0.015,0.093,0.034,0.188,0.057,0.279l0.056-0.014c-0.022-0.089-0.042-0.184-0.056-0.275
		L384.253,313.067z"/>
	<path fill="#6F6F6F" d="M384.27,312.553c0-0.021,0-0.038,0.001-0.057l-0.058-0.003c-0.001,0.021-0.001,0.039-0.001,0.06
		c0,0.076,0.003,0.152,0.009,0.229l0.058-0.004C384.273,312.703,384.27,312.627,384.27,312.553z"/>
	<path fill="#6F6F6F" d="M384.486,311.396l-0.054-0.021c-0.034,0.088-0.066,0.18-0.092,0.271l0.056,0.016
		C384.422,311.571,384.453,311.48,384.486,311.396z"/>
	
		<rect x="386.815" y="308.473" transform="matrix(0.7071 -0.7071 0.7071 0.7071 -104.8067 363.9781)" fill="#6F6F6F" width="0.285" height="0.058"/>
	<path fill="#6F6F6F" d="M385.028,310.398c-0.063,0.07-0.125,0.146-0.181,0.223l0.046,0.034c0.056-0.075,0.116-0.149,0.178-0.218
		L385.028,310.398z"/>
	<path fill="#6F6F6F" d="M384.33,311.936l-0.057-0.012c-0.018,0.094-0.032,0.189-0.042,0.283l0.057,0.007
		C384.298,312.122,384.312,312.027,384.33,311.936z"/>
	
		<rect x="388.136" y="307.153" transform="matrix(0.72 0.694 -0.694 0.72 321.941 -183.3336)" fill="#6F6F6F" width="0.056" height="0.284"/>
	
		<rect x="386.124" y="309.165" transform="matrix(-0.7156 -0.6985 0.6985 -0.7156 446.4102 800.3818)" fill="#6F6F6F" width="0.057" height="0.285"/>
	<path fill="#6F6F6F" d="M386.345,315.597c0.09,0.032,0.182,0.061,0.273,0.085l0.015-0.056c-0.09-0.025-0.181-0.053-0.269-0.083
		L386.345,315.597z"/>
	<path fill="#6F6F6F" d="M385.824,315.356c0.083,0.047,0.169,0.09,0.255,0.131l0.024-0.053c-0.085-0.039-0.169-0.082-0.25-0.13
		L385.824,315.356z"/>
	
		<rect x="386.525" y="308.762" transform="matrix(-0.7113 -0.7029 0.7029 -0.7113 444.3698 800.3342)" fill="#6F6F6F" width="0.058" height="0.284"/>
	
		<rect x="385.607" y="309.68" transform="matrix(0.7063 -0.708 0.708 0.7063 -105.9481 364.0724)" fill="#6F6F6F" width="0.286" height="0.058"/>
	
		<rect x="385.205" y="310.083" transform="matrix(0.7071 -0.7071 0.7071 0.7071 -106.4169 363.3114)" fill="#6F6F6F" width="0.285" height="0.058"/>
	<path fill="#6F6F6F" d="M385.354,315.025c0.073,0.062,0.15,0.121,0.228,0.176l0.033-0.046c-0.076-0.056-0.152-0.113-0.223-0.173
		L385.354,315.025z"/>
	<path fill="#6F6F6F" d="M384.952,314.618c0.061,0.072,0.125,0.146,0.193,0.213l0.041-0.041c-0.066-0.065-0.13-0.136-0.189-0.209
		L384.952,314.618z"/>
	
		<rect x="393.255" y="311.116" transform="matrix(-0.7156 -0.6985 0.6985 -0.7156 457.2824 808.71)" fill="#6F6F6F" width="0.057" height="0.284"/>
	
		<rect x="396.475" y="307.896" transform="matrix(-0.7114 -0.7028 0.7028 -0.7114 462.0761 805.8369)" fill="#6F6F6F" width="0.057" height="0.285"/>
	
		<rect x="396.072" y="308.298" transform="matrix(-0.7156 -0.6985 0.6985 -0.7156 464.0837 805.8426)" fill="#6F6F6F" width="0.057" height="0.284"/>
	
		<rect x="396.877" y="307.496" transform="matrix(-0.7197 -0.6943 0.6943 -0.7197 468.9659 804.6092)" fill="#6F6F6F" width="0.058" height="0.282"/>
	
		<rect x="395.669" y="308.702" transform="matrix(-0.7071 -0.7071 0.7071 -0.7071 457.1141 807.0303)" fill="#6F6F6F" width="0.058" height="0.284"/>
	
		<rect x="395.379" y="299.909" transform="matrix(-0.7071 -0.7071 0.7071 -0.7071 462.8351 791.8156)" fill="#6F6F6F" width="0.057" height="0.285"/>
	
		<rect x="394.976" y="300.313" transform="matrix(-0.7156 -0.6985 0.6985 -0.7156 467.7819 791.3782)" fill="#6F6F6F" width="0.057" height="0.285"/>
	
		<rect x="395.267" y="309.103" transform="matrix(-0.7156 -0.6985 0.6985 -0.7156 462.1411 806.6609)" fill="#6F6F6F" width="0.057" height="0.284"/>
	
		<rect x="397.28" y="307.091" transform="matrix(-0.7071 -0.7071 0.7071 -0.7071 461.0006 805.4205)" fill="#6F6F6F" width="0.057" height="0.285"/>
	
		<rect x="399.292" y="305.078" transform="matrix(-0.6985 -0.7156 0.7156 -0.6985 459.8526 804.1721)" fill="#6F6F6F" width="0.057" height="0.285"/>
	
		<rect x="394.865" y="309.506" transform="matrix(-0.7029 -0.7113 0.7113 -0.7029 452.1873 808.187)" fill="#6F6F6F" width="0.058" height="0.285"/>
	
		<rect x="397.683" y="306.691" transform="matrix(-0.72 -0.694 0.694 -0.72 471.1288 803.7533)" fill="#6F6F6F" width="0.056" height="0.284"/>
	
		<rect x="400.097" y="304.273" transform="matrix(-0.6985 -0.7156 0.7156 -0.6985 461.7956 803.3802)" fill="#6F6F6F" width="0.057" height="0.286"/>
	
		<rect x="400.499" y="303.872" transform="matrix(-0.6985 -0.7156 0.7156 -0.6985 462.7662 802.9874)" fill="#6F6F6F" width="0.057" height="0.285"/>
	
		<rect x="399.695" y="304.677" transform="matrix(-0.6985 -0.7156 0.7156 -0.6985 460.824 803.7786)" fill="#6F6F6F" width="0.057" height="0.285"/>
	
		<rect x="398.888" y="305.482" transform="matrix(-0.7154 -0.6987 0.6987 -0.7154 470.7419 802.9996)" fill="#6F6F6F" width="0.059" height="0.284"/>
	
		<rect x="398.084" y="306.286" transform="matrix(-0.6985 -0.7156 0.7156 -0.6985 456.9372 805.3599)" fill="#6F6F6F" width="0.057" height="0.285"/>
	
		<rect x="398.487" y="305.884" transform="matrix(-0.6901 -0.7237 0.7237 -0.6901 452.039 805.6285)" fill="#6F6F6F" width="0.058" height="0.284"/>
	
		<rect x="391.355" y="303.933" transform="matrix(-0.6985 -0.7156 0.7156 -0.6985 447.1914 796.547)" fill="#6F6F6F" width="0.057" height="0.285"/>
	
		<rect x="392.853" y="311.517" transform="matrix(-0.7071 -0.7071 0.7071 -0.7071 450.3145 809.8447)" fill="#6F6F6F" width="0.058" height="0.284"/>
	
		<rect x="392.451" y="311.921" transform="matrix(-0.7071 -0.7071 0.7071 -0.7071 449.343 810.2499)" fill="#6F6F6F" width="0.057" height="0.285"/>
	
		<rect x="392.049" y="312.322" transform="matrix(-0.7071 -0.7071 0.7071 -0.7071 448.3723 810.6506)" fill="#6F6F6F" width="0.057" height="0.285"/>
	
		<rect x="392.561" y="302.726" transform="matrix(-0.7154 -0.6987 0.6987 -0.7154 461.8138 793.8521)" fill="#6F6F6F" width="0.059" height="0.285"/>
	
		<rect x="392.16" y="303.128" transform="matrix(-0.7029 -0.7113 0.7113 -0.7029 452.1172 795.4019)" fill="#6F6F6F" width="0.058" height="0.285"/>
	
		<rect x="391.243" y="313.127" transform="matrix(-0.7156 -0.6985 0.6985 -0.7156 452.4261 810.7541)" fill="#6F6F6F" width="0.057" height="0.285"/>
	
		<rect x="391.757" y="303.531" transform="matrix(-0.6985 -0.7156 0.7156 -0.6985 448.162 796.1532)" fill="#6F6F6F" width="0.057" height="0.285"/>
	
		<rect x="394.573" y="300.714" transform="matrix(-0.7113 -0.7029 0.7029 -0.7113 463.7996 792.2184)" fill="#6F6F6F" width="0.058" height="0.285"/>
	
		<rect x="391.645" y="312.724" transform="matrix(-0.6987 -0.7154 0.7154 -0.6987 441.5356 811.6737)" fill="#6F6F6F" width="0.059" height="0.286"/>
	
		<rect x="394.171" y="301.117" transform="matrix(-0.7071 -0.7071 0.7071 -0.7071 459.9189 793.0232)" fill="#6F6F6F" width="0.058" height="0.285"/>
	
		<rect x="394.463" y="309.908" transform="matrix(-0.7029 -0.7113 0.7113 -0.7029 451.2162 808.5851)" fill="#6F6F6F" width="0.058" height="0.284"/>
	
		<rect x="394.06" y="310.311" transform="matrix(-0.7071 -0.7071 0.7071 -0.7071 453.2287 808.6397)" fill="#6F6F6F" width="0.058" height="0.285"/>
	
		<rect x="393.77" y="301.518" transform="matrix(-0.7114 -0.7028 0.7028 -0.7114 461.9283 793.0204)" fill="#6F6F6F" width="0.057" height="0.285"/>
	
		<rect x="393.367" y="301.921" transform="matrix(-0.6985 -0.7156 0.7156 -0.6985 452.0484 794.5707)" fill="#6F6F6F" width="0.057" height="0.286"/>
	
		<rect x="392.965" y="302.323" transform="matrix(-0.6985 -0.7156 0.7156 -0.6985 451.0774 794.9644)" fill="#6F6F6F" width="0.057" height="0.286"/>
	
		<rect x="393.658" y="310.713" transform="matrix(-0.7071 -0.7071 0.7071 -0.7071 452.2577 809.0412)" fill="#6F6F6F" width="0.058" height="0.284"/>
	
		<rect x="401.545" y="302.555" transform="matrix(-0.7071 -0.7071 0.7071 -0.7071 471.2878 801.1825)" fill="#6F6F6F" width="0.058" height="0.858"/>
</g>
</svg>
