<?xml version="1.0" encoding="utf-8"?>
<!-- Generator: Adobe Illustrator 15.0.2, SVG Export Plug-In . SVG Version: 6.00 Build 0)  -->
<!DOCTYPE svg PUBLIC "-//W3C//DTD SVG 1.1//EN" "http://www.w3.org/Graphics/SVG/1.1/DTD/svg11.dtd">
<svg version="1.1" id="Your_Icon" xmlns="http://www.w3.org/2000/svg" xmlns:xlink="http://www.w3.org/1999/xlink" x="0px" y="0px"
	 width="32px" height="32px" viewBox="384 284 32 32" enable-background="new 384 284 32 32" xml:space="preserve">
<path fill="#6F6F6F" d="M411.512,284.595c-0.288-0.312-0.585-0.508-0.665-0.436c-0.005,0.004-0.007,0.01-0.011,0.016l-0.045-0.049
	l-5.455,5.033c-0.007-0.032-0.018-0.064-0.028-0.096c-0.309-0.848-1.002-0.694-1.311-0.694c-0.271,0-2.271,0.617-2.271,0.617
	s-1.351-0.54-2.042-0.809c-0.693-0.271-2.004-0.308-2.735-0.193s-2.465,0.655-2.775,0.731c-0.346,0.078-0.962,0.232-1.54,1.657
	c-0.576,1.425-1.117,3.004-1.311,3.352c-0.19,0.347-1.54,1.656-1.886,2.195c-0.386,0.54-0.464,1.195-0.115,2.62
	c0.383,1.425,1.463,6.202,1.618,7.358c0.152,1.155,0.152,3.159-0.271,4.814c-0.346,1.812-0.887,2.62-1.656,3.197
	c-0.693,0.501-0.924,0.732-0.924,1.117c0,0.309,0.23,0.54,0.576,0.579c1.039,0.115,7.705,0.269,9.36,0.269
	c1.658,0,1.658-0.693,1.658-1.039c0-0.31-0.924-2.774-0.386-4.199c0.731-1.694,1.271-1.618,2.157-3.082
	c0.887-1.465,1.618-2.812,1.388-4.893c0,0,1.811-3.467,2.234-4.584c0.423-1.117,0.23-2.388,0.461-3.39
	c0.271-1.041,1.079-2.774-0.346-2.774c-0.209,0-0.417,0.038-0.623,0.102l7.272-6.708c0.021,0.001,0.038-0.003,0.051-0.014
	C411.971,285.22,411.8,284.907,411.512,284.595z M401.34,296.497c-0.386,0.578-1.348,2.774-2.698,2.774
	c-1.308,0-0.924-0.154-0.924-0.154l-1.002-2.658c0,0,1.811-2.041,1.889-2.312c0.115-0.27,0-0.423,0-0.423s0.155,0.115,0.386-0.039
	c0.192-0.154,2.271-1.31,2.772-1.81c0.304-0.303,0.719-0.395,1.187-0.513l-4.642,4.283l0.024,0.027
	c-0.007,0.002-0.014,0.005-0.019,0.01c-0.077,0.072,0.094,0.385,0.382,0.697s0.585,0.508,0.663,0.436
	c0.006-0.004,0.009-0.01,0.013-0.016l0.007,0.008l3.083-2.847C402.111,294.744,401.63,296.014,401.34,296.497z"/>
</svg>
