<?xml version="1.0" encoding="utf-8"?>
<!-- Generator: Adobe Illustrator 15.0.2, SVG Export Plug-In . SVG Version: 6.00 Build 0)  -->
<!DOCTYPE svg PUBLIC "-//W3C//DTD SVG 1.1//EN" "http://www.w3.org/Graphics/SVG/1.1/DTD/svg11.dtd">
<svg version="1.1" id="Layer_1" xmlns="http://www.w3.org/2000/svg" xmlns:xlink="http://www.w3.org/1999/xlink" x="0px" y="0px"
	 width="32px" height="32px" viewBox="384 284 32 32" enable-background="new 384 284 32 32" xml:space="preserve">
<g>
	<path fill="#6F6F6F" d="M396.708,303.625c0.445,0,0.801-0.355,0.801-0.801c0-0.443-0.356-0.846-0.801-0.846
		s-0.801,0.355-0.801,0.846C395.907,303.27,396.263,303.625,396.708,303.625z"/>
	<path fill="#6F6F6F" d="M406.271,298.465c0.49,1.112,0.846,2.312,0.936,3.603h-2.092c-0.445,0-0.756,0.355-0.756,0.756
		c0,0.445,0.355,0.801,0.756,0.801h2.047c-0.178,2.58-1.336,4.893-3.025,6.629c-1.734,1.734-4.093,2.891-6.717,3.068v-1.957
		c0-0.445-0.355-0.801-0.8-0.801s-0.801,0.355-0.801,0.801v1.957c-2.58-0.221-4.849-1.334-6.584-3.023
		c-1.735-1.734-2.847-4.049-3.024-6.629h1.913c0.445,0,0.756-0.355,0.756-0.756c0-0.445-0.356-0.801-0.756-0.801h-1.913
		c0.178-2.625,1.29-4.938,3.069-6.673c1.735-1.735,4.003-2.847,6.583-3.025v2.002c0,0.444,0.356,0.801,0.801,0.801
		s0.801-0.356,0.801-0.801v-2.046c1.557,0.089,3.024,0.534,4.315,1.246c-0.268-0.801-0.4-1.602-0.4-2.491
		c-1.424-0.578-2.981-0.89-4.626-0.89c-6.939,0-12.589,5.649-12.589,12.588c0,6.939,5.649,12.59,12.589,12.59
		c6.939,0,12.589-5.65,12.589-12.59c0-1.289-0.223-2.58-0.578-3.736C407.873,299,407.029,298.776,406.271,298.465z"/>
	<path fill="#6F6F6F" d="M391.682,309.541c0.311,0.223,0.667,0.223,0.845-0.043l4.003-4.627c0.044,0,0.089,0,0.133,0
		c1.112,0,2.046-0.889,2.046-2.047c0.044-1.156-0.845-2.047-2.002-2.047c-0.133,0-0.222,0-0.356,0.046l-3.203-2.937
		c-0.223-0.222-0.578-0.222-0.846,0.044c-0.267,0.223-0.311,0.623-0.133,0.845l2.581,3.47c-0.044,0.178-0.089,0.357-0.089,0.578
		c0,0.312,0.044,0.578,0.178,0.846l-3.336,5.027C391.325,308.92,391.414,309.318,391.682,309.541z M396.708,301.445
		c0.756,0,1.379,0.623,1.379,1.379c0.044,0.756-0.578,1.379-1.379,1.379c-0.756,0-1.379-0.623-1.379-1.379
		S395.952,301.445,396.708,301.445z"/>
	<path fill="#6F6F6F" d="M409.385,284.586c-3.559,0-6.449,2.892-6.449,6.45s2.891,6.45,6.449,6.45c3.561,0,6.451-2.892,6.451-6.45
		S412.945,284.586,409.385,284.586z M408.807,293.972c-0.221,0.223-0.533,0.356-0.889,0.356c-0.312,0-0.668-0.134-0.889-0.356
		l-2.137-2.135l1.736-1.734l1.244,1.246l3.826-3.826l1.734,1.735L408.807,293.972z"/>
</g>
</svg>
