<?xml version="1.0" encoding="utf-8"?>
<!-- Generator: Adobe Illustrator 15.0.2, SVG Export Plug-In . SVG Version: 6.00 Build 0)  -->
<!DOCTYPE svg PUBLIC "-//W3C//DTD SVG 1.1//EN" "http://www.w3.org/Graphics/SVG/1.1/DTD/svg11.dtd">
<svg version="1.1" id="Layer_1" xmlns="http://www.w3.org/2000/svg" xmlns:xlink="http://www.w3.org/1999/xlink" x="0px" y="0px"
	 width="32px" height="32px" viewBox="384 284 32 32" enable-background="new 384 284 32 32" xml:space="preserve">
<g>
	<path fill="#6F6F6F" d="M408.939,288.773c0-0.738-0.13-1.302-0.13-1.302h-1.39v-1.909h1.779c0.347,0,0.607-0.347,0.607-0.781
		S409.546,284,409.199,284h-5.207c-0.347,0-0.607,0.347-0.607,0.781s0.261,0.781,0.607,0.781h1.865v1.909h-1.562
		c0,0-0.087,0.564-0.087,1.302h-1.691c0,0-2.041,0.043-2.777,0.477c-0.825,0.521-1.389,0.999-1.346,4.252h2.647v-1.605
		c0,0-0.086-0.521,0.956-0.521c0.346,0,1.432,0,2.819,0c0.392,0.651,0.955,1.085,1.953,1.085c0.867,0,1.432-0.478,1.735-1.085
		c1.953,0,3.559,0,3.559,0v-2.604H408.939z"/>
	<path fill="#6F6F6F" d="M400.521,295.413c0.304,0,0.521-0.304,0.391-0.608c-0.131-0.303-0.26-0.433-0.348-0.824
		c-0.086,0.347-0.217,0.477-0.39,0.781C400,295.065,400.217,295.413,400.521,295.413z"/>
	<path fill="#6F6F6F" d="M398.958,299.101c0.304,0,0.52-0.303,0.39-0.607c-0.173-0.304-0.26-0.434-0.347-0.824
		c-0.086,0.347-0.217,0.477-0.391,0.781C398.438,298.753,398.655,299.101,398.958,299.101z"/>
	<path fill="#6F6F6F" d="M400.521,298.537c0.304,0,0.521-0.303,0.391-0.607c-0.131-0.347-0.26-0.477-0.348-0.824
		c-0.086,0.347-0.217,0.477-0.39,0.781C400,298.19,400.217,298.537,400.521,298.537z"/>
	<path fill="#6F6F6F" d="M399.002,293.98c-0.086,0.347-0.217,0.477-0.391,0.781c-0.173,0.304,0.043,0.651,0.347,0.651
		c0.304,0,0.52-0.304,0.39-0.608C399.176,294.501,399.089,294.372,399.002,293.98z"/>
	<path fill="#6F6F6F" d="M399.609,297.148c0.304,0,0.521-0.304,0.391-0.607c-0.13-0.348-0.26-0.434-0.347-0.825
		c-0.087,0.347-0.218,0.477-0.391,0.781C399.089,296.801,399.306,297.148,399.609,297.148z"/>
	<path fill="#6F6F6F" d="M406.423,306.955l-2.691,2.647c0,0-0.434,0.347-0.65,0.044c-0.131-0.217,0.131-0.563,0.348-0.78
		c0,0,0.043,0,0.043-0.044l3.948-3.907c0.435-0.434,0.521-1.04,0.174-1.387c-0.347-0.349-0.954-0.261-1.388,0.173l-3.776,3.732
		c0,0-0.261,0.347-0.478,0.347c-0.173,0.043-0.433-0.26-0.347-0.477c0.131-0.263,0.392-0.479,0.695-0.782l3.514-3.472
		c0.435-0.434,0.521-1.041,0.175-1.388c-0.348-0.349-0.955-0.26-1.39,0.128l-3.905,3.82l-0.043,0.044
		c-0.262,0.26-0.694,0.606-0.868,0.434c-0.348-0.261-0.217-0.478,0.304-0.999l3.342-3.299c0.435-0.388,0.477-0.997,0.13-1.344
		s-0.955-0.303-1.345,0.13l-3.776,3.732c-0.044,0.043-0.044,0.043-0.044,0.087c-0.607,0.606-1.605,1.562-1.909,1.779l-0.087-0.131
		l0.26-2.388c0.087-0.563-0.26-1.084-0.738-1.17c-0.478-0.044-0.911,0.347-0.998,0.953l-0.347,2.951
		c-0.607-0.043-1.085-0.563-1.085-1.172c0-0.26,0.087-0.521,0.26-0.737c-0.52-0.13-0.867-0.606-0.867-1.129
		c0-0.563,0.39-1.04,0.911-1.17c-0.044-0.087-0.044-0.217-0.044-0.347c0-0.652,0.521-1.173,1.172-1.173
		c0.478,0,0.911,0.304,1.085,0.739c0.217-0.349,0.564-0.565,0.998-0.565c0.174,0,0.304,0.043,0.434,0.087
		c0.043-0.607,0.564-1.129,1.172-1.129s1.129,0.478,1.172,1.085c0.217-0.217,0.521-0.347,0.824-0.347
		c0.348,0,0.65,0.174,0.867,0.391c0.045-0.607,0.522-1.129,1.172-1.129c0.174,0,0.348,0.044,0.521,0.131
		c-0.174-0.304-0.521-0.521-0.954-0.521h-5.295c-0.043,0-0.087,0-0.087,0c-0.955,0-2.604,0-2.734-0.13l1.996-1.605
		c0.478-0.347,0.564-0.955,0.304-1.345c-0.304-0.391-0.912-0.391-1.389-0.044l-2.43,1.91l-3.775,2.777h-0.868v6.074h1.171
		c0,0,0.911,1.086,1.216,1.129c0.173,0.044,2.212,0.174,3.862,0.261l-0.435,2.646l-0.607,0.609l4.296,4.295l0.825-0.823
		c0,0,1.389,0.13,1.649-0.043c0.174-0.131,2.344-2.04,3.602-3.169c0.087-0.043,0.217-0.13,0.304-0.217l3.818-3.688
		c0.392-0.26,0.479-0.868,0.131-1.216C407.42,306.478,406.812,306.521,406.423,306.955z"/>
</g>
</svg>
