<?xml version="1.0" encoding="utf-8"?>
<!-- Generator: Adobe Illustrator 15.0.2, SVG Export Plug-In . SVG Version: 6.00 Build 0)  -->
<!DOCTYPE svg PUBLIC "-//W3C//DTD SVG 1.1//EN" "http://www.w3.org/Graphics/SVG/1.1/DTD/svg11.dtd">
<svg version="1.1" id="Your_Icon" xmlns="http://www.w3.org/2000/svg" xmlns:xlink="http://www.w3.org/1999/xlink" x="0px" y="0px"
	 width="32px" height="32px" viewBox="384 284 32 32" enable-background="new 384 284 32 32" xml:space="preserve">
<path fill="#6F6F6F" d="M415.984,287.666c-0.172-1.136-1.702-1.846-3.417-1.586c-1.027,0.156-1.888,0.625-2.376,1.22l-26.171,24.148
	l0.057,0.062c-0.014,0.006-0.027,0.013-0.037,0.022c-0.168,0.155,0.194,0.819,0.808,1.485c0.614,0.665,1.248,1.079,1.415,0.924
	c0.011-0.01,0.019-0.021,0.026-0.035l0.01,0.012l25.686-23.701c0.38,0.044,0.787,0.04,1.205-0.024
	C414.905,289.933,416.156,288.801,415.984,287.666z"/>
</svg>
