<?xml version="1.0" encoding="utf-8"?>
<!-- Generator: Adobe Illustrator 15.0.2, SVG Export Plug-In . SVG Version: 6.00 Build 0)  -->
<!DOCTYPE svg PUBLIC "-//W3C//DTD SVG 1.1//EN" "http://www.w3.org/Graphics/SVG/1.1/DTD/svg11.dtd">
<svg version="1.1" id="Your_Icon" xmlns="http://www.w3.org/2000/svg" xmlns:xlink="http://www.w3.org/1999/xlink" x="0px" y="0px"
	 width="32px" height="32px" viewBox="384 284 32 32" enable-background="new 384 284 32 32" xml:space="preserve">
<g>
	<path fill="#6F6F6F" d="M414.519,289.038l-6.188-4.872c-0.195-0.188-0.536-0.14-0.683,0.047l-22.264,26.094
		c-0.195,0.187-0.146,0.515,0.097,0.655l6.187,4.871c0.195,0.188,0.536,0.142,0.682-0.046l0.467-0.547l-0.029,0.031l-6.333-4.731
		l21.63-25.343l5.408,4.263l-0.634,0.703l-1.56-1.265l-0.34,0.421l1.559,1.265l-0.39,0.469l-0.683-0.562l-0.097,0.141l0.682,0.562
		l-0.487,0.609l-0.683-0.562l-0.097,0.141l0.682,0.562l-0.486,0.609l-0.683-0.562l-0.098,0.141l0.682,0.562l-0.389,0.469
		l-1.559-1.265l-0.342,0.421l1.559,1.265l-0.39,0.468l-0.682-0.562l-0.098,0.14l0.683,0.562l-0.488,0.609l-0.681-0.562l-0.099,0.141
		l0.683,0.562l-0.487,0.609l-0.682-0.562l-0.098,0.141l0.683,0.562l-0.391,0.469l-1.559-1.265l-0.341,0.422l1.559,1.265l-0.39,0.468
		l-0.683-0.562l-0.098,0.141l0.683,0.562l-0.487,0.609l-0.682-0.562l-0.098,0.14l0.682,0.562l-0.486,0.609l-0.683-0.562l-0.098,0.14
		l0.683,0.562l-0.391,0.468l-1.558-1.265l-0.342,0.422l1.559,1.265l-0.39,0.468l-0.682-0.562l-0.098,0.141l0.683,0.562l-0.488,0.61
		l-0.682-0.563l-0.097,0.141l0.682,0.563l-0.487,0.608l-0.683-0.562l-0.097,0.141l0.682,0.562l-0.39,0.469l-1.559-1.266
		l-0.341,0.422l1.558,1.266l-0.389,0.468l-0.683-0.562l-0.098,0.141l0.683,0.562l-0.486,0.608l-0.683-0.562l-0.098,0.141
		l0.682,0.562l-0.486,0.609l-0.683-0.562l-0.098,0.141l0.683,0.562l-0.391,0.468l-1.559-1.265l-0.341,0.422l1.56,1.265l-0.391,0.469
		l-0.683-0.562l-0.097,0.141l0.682,0.562l-0.486,0.608l-0.683-0.562l-0.097,0.141l0.681,0.562l-0.486,0.609l-0.682-0.562
		l-0.097,0.141l0.681,0.562l-0.389,0.47l-1.559-1.265l-0.341,0.421l1.559,1.265l-0.389,0.469l-0.683-0.562l-0.098,0.141l0.682,0.562
		l-0.487,0.609l-0.682-0.562l-0.098,0.141l0.682,0.562l-0.487,0.608l-0.682-0.562l-0.097,0.141l0.682,0.562l-0.39,0.469
		l-1.559-1.266l-0.341,0.422l1.559,1.266l-0.389,0.468l-0.683-0.562l-0.097,0.141l0.683,0.562l-0.487,0.608l-0.683-0.562
		l-0.097,0.141l0.682,0.562l-0.487,0.609l-0.682-0.562l-0.097,0.141l0.68,0.56l20.464-23.983
		C414.811,289.506,414.761,289.178,414.519,289.038z"/>
	<polygon fill="#6F6F6F" points="393.423,314.568 393.404,314.553 392.818,315.24 	"/>
	<polygon fill="#6F6F6F" points="393.764,314.147 394.153,313.679 394.151,313.677 393.756,314.141 	"/>
	<polygon fill="#6F6F6F" points="391.863,313.304 393.404,314.553 393.756,314.141 392.205,312.882 	"/>
	<path fill="#6F6F6F" d="M406.918,290.116c0.536,0.421,1.315,0.327,1.705-0.141c0.39-0.469,0.293-1.218-0.195-1.64
		c-0.535-0.422-1.315-0.328-1.705,0.141C406.284,288.991,406.382,289.694,406.918,290.116z M407.064,288.757
		c0.292-0.328,0.778-0.375,1.12-0.093c0.341,0.281,0.39,0.75,0.097,1.077c-0.292,0.281-0.778,0.328-1.119,0.094
		C406.82,289.554,406.771,289.085,407.064,288.757z"/>
</g>
</svg>
