<?xml version="1.0" encoding="utf-8"?>
<!-- Generator: Adobe Illustrator 15.0.2, SVG Export Plug-In . SVG Version: 6.00 Build 0)  -->
<!DOCTYPE svg PUBLIC "-//W3C//DTD SVG 1.1//EN" "http://www.w3.org/Graphics/SVG/1.1/DTD/svg11.dtd">
<svg version="1.1" id="Your_Icon" xmlns="http://www.w3.org/2000/svg" xmlns:xlink="http://www.w3.org/1999/xlink" x="0px" y="0px"
	 width="32px" height="32px" viewBox="384 284 32 32" enable-background="new 384 284 32 32" xml:space="preserve">
<path fill="#6F6F6F" d="M400.568,291.876l0.019-7.511h-0.043c0.005-0.01,0.009-0.02,0.01-0.03c0-0.119-0.383-0.217-0.854-0.218
	c-0.473-0.001-0.855,0.094-0.856,0.214c0,0.01,0.005,0.021,0.01,0.03h-0.02l-0.019,7.577c-4.239,0.577-7.503,4.209-7.503,8.607
	v8.774c0,4.42,3.888,6.562,8.688,6.562s8.688-2.143,8.688-6.562v-8.768C408.688,295.944,405.104,292.169,400.568,291.876z"/>
</svg>
