<?xml version="1.0" encoding="utf-8"?>
<!-- Generator: Adobe Illustrator 15.0.2, SVG Export Plug-In . SVG Version: 6.00 Build 0)  -->
<!DOCTYPE svg PUBLIC "-//W3C//DTD SVG 1.1//EN" "http://www.w3.org/Graphics/SVG/1.1/DTD/svg11.dtd">
<svg version="1.1" id="Layer_1" xmlns="http://www.w3.org/2000/svg" xmlns:xlink="http://www.w3.org/1999/xlink" x="0px" y="0px"
	 width="28.905px" height="63.166px" viewBox="-0.502 -0.5 28.905 63.166" enable-background="new -0.502 -0.5 28.905 63.166"
	 xml:space="preserve">
<path d="M28.152,41.732l-8.258-23.039c-0.643-1.798-2.43-3.312-4.343-3.862c3.507-0.74,6.148-3.857,6.148-7.582
	c0-4.273-3.477-7.75-7.75-7.75S6.2,2.977,6.2,7.25c0,3.725,2.642,6.842,6.149,7.582c-1.913,0.55-3.7,2.064-4.343,3.862L-0.25,41.732
	c-0.416,1.16-0.314,2.267,0.284,3.117c0.598,0.851,1.606,1.318,2.837,1.318h5.314c0.001,0.037,0.004,0.074,0.007,0.111l1.095,11.95
	c0.225,2.446,2.317,4.437,4.664,4.437c2.347,0,4.439-1.99,4.664-4.437l1.095-11.948c0.003-0.038,0.006-0.075,0.008-0.113h5.312
	c1.23,0,2.237-0.468,2.836-1.317C28.466,44,28.567,42.892,28.152,41.732z M7.2,7.25c0-3.722,3.028-6.75,6.75-6.75
	c3.722,0,6.75,3.028,6.75,6.75S17.672,14,13.95,14C10.228,14,7.2,10.972,7.2,7.25z M27.049,44.274
	c-0.406,0.576-1.123,0.894-2.019,0.894h-5.824l-0.524,0.071l0.029,0.527c0.008,0.138,0.017,0.276,0.003,0.421l-1.095,11.95
	c-0.179,1.945-1.824,3.528-3.668,3.528c-1.844,0-3.49-1.583-3.668-3.528l-1.095-11.95c-0.014-0.146-0.004-0.287,0.007-0.493
	l0.027-0.526H2.871c-0.896,0-1.614-0.317-2.02-0.894c-0.406-0.577-0.463-1.359-0.16-2.204l8.256-23.04
	c0.666-1.861,2.9-3.433,4.879-3.433h0.249c1.979,0,4.213,1.572,4.878,3.434l8.258,23.038C27.512,42.915,27.455,43.697,27.049,44.274
	z"/>
</svg>
