<?xml version="1.0" encoding="utf-8"?>
<!-- Generator: Adobe Illustrator 15.0.2, SVG Export Plug-In . SVG Version: 6.00 Build 0)  -->
<!DOCTYPE svg PUBLIC "-//W3C//DTD SVG 1.1//EN" "http://www.w3.org/Graphics/SVG/1.1/DTD/svg11.dtd">
<svg version="1.1" id="Layer_1" xmlns="http://www.w3.org/2000/svg" xmlns:xlink="http://www.w3.org/1999/xlink" x="0px" y="0px"
	 width="27.9px" height="62.167px" viewBox="0 0 27.9 62.167" enable-background="new 0 0 27.9 62.167" xml:space="preserve">
<g>
	<circle fill="#FFFFFF" cx="13.95" cy="7.25" r="7.25"/>
	<path fill="#FFFFFF" d="M27.681,41.901l-8.257-23.039c-0.741-2.071-3.148-3.765-5.349-3.765h-0.249c-2.2,0-4.608,1.694-5.35,3.765
		L0.22,41.901c-0.742,2.071,0.451,3.767,2.651,3.767h5.825c-0.01,0.187-0.023,0.372-0.006,0.565l1.095,11.95
		c0.201,2.191,2.075,3.983,4.166,3.983c2.091,0,3.965-1.792,4.166-3.983l1.095-11.95c0.018-0.193,0.004-0.379-0.006-0.565h5.824
		C27.229,45.667,28.422,43.972,27.681,41.901z"/>
</g>
</svg>
