<?xml version="1.0" encoding="utf-8"?>
<!-- Generator: Adobe Illustrator 15.0.2, SVG Export Plug-In . SVG Version: 6.00 Build 0)  -->
<!DOCTYPE svg PUBLIC "-//W3C//DTD SVG 1.1//EN" "http://www.w3.org/Graphics/SVG/1.1/DTD/svg11.dtd">
<svg version="1.1" id="Layer_1" xmlns="http://www.w3.org/2000/svg" xmlns:xlink="http://www.w3.org/1999/xlink" x="0px" y="0px"
	 width="27.59px" height="65.167px" viewBox="0 0 27.59 65.167" enable-background="new 0 0 27.59 65.167" xml:space="preserve">
<path id="fill" d="M6.545,8.25c0-4.004,3.246-7.25,7.25-7.25s7.25,3.246,7.25,7.25s-3.246,7.25-7.25,7.25S6.545,12.254,6.545,8.25z
	 M24.71,20.222c-4.228-3.875-10.915-4.125-10.915-4.125s-6.688,0.25-10.916,4.125s0,20.375,0,20.375s0.946,2.59,3.928,1.339l0,0
	L7.37,60.169c0.063,2.038,1.661,3.732,3.647,3.97l0.476,0.028c2.168-0.021,2.302-2.375,2.302-2.375s-0.062,2.396,2.302,2.375
	l0.001-0.001c2.199,0,4.055-1.799,4.123-3.998l0.581-18.855c2.25,2.396,3.908-0.715,3.908-0.715S28.939,24.097,24.71,20.222z"/>
<g id="stroke">
	<circle fill="none" stroke="#000000" stroke-miterlimit="10" cx="13.795" cy="8.25" r="7.25"/>
	<path fill="none" stroke="#000000" stroke-miterlimit="10" d="M6.808,41.937c-2.982,1.251-3.928-1.339-3.928-1.339
		s-4.228-16.5,0-20.375s10.916-4.125,10.916-4.125s6.688,0.25,10.915,4.125c4.229,3.875,0,20.375,0,20.375s-1.658,3.111-3.908,0.715
		"/>
	<path fill="none" stroke="#000000" stroke-miterlimit="10" d="M13.795,39.916v21.876c0,0-0.134,2.354-2.302,2.375l-0.476-0.028
		c-1.986-0.237-3.584-1.932-3.647-3.97L6.397,28.624c0,0,0.187-1.957-1.063-2.04"/>
	<path fill="none" stroke="#000000" stroke-miterlimit="10" d="M22.417,26.583c-1.167,0-1.224,2.04-1.224,2.04l-0.973,31.544
		c-0.068,2.199-1.924,3.998-4.123,3.998"/>
	<path fill="none" stroke="#000000" stroke-miterlimit="10" d="M13.795,61.792c0,0-0.062,2.396,2.302,2.375"/>
	<line fill="none" stroke="#000000" stroke-miterlimit="10" x1="16.451" y1="64.167" x2="15.795" y2="64.167"/>
</g>
</svg>
