<?xml version="1.0" encoding="utf-8"?>
<!-- Generator: Adobe Illustrator 15.0.2, SVG Export Plug-In . SVG Version: 6.00 Build 0)  -->
<!DOCTYPE svg PUBLIC "-//W3C//DTD SVG 1.1//EN" "http://www.w3.org/Graphics/SVG/1.1/DTD/svg11.dtd">
<svg version="1.1" id="Layer_1" xmlns="http://www.w3.org/2000/svg" xmlns:xlink="http://www.w3.org/1999/xlink" x="0px" y="0px"
	 width="27.59px" height="65.167px" viewBox="0 0 27.59 65.167" enable-background="new 0 0 27.59 65.167" xml:space="preserve">
<g id="stroke">
	<path d="M13.795,16c-4.273,0-7.75-3.477-7.75-7.75s3.477-7.75,7.75-7.75s7.75,3.477,7.75,7.75S18.068,16,13.795,16z M13.795,1.5
		c-3.722,0-6.75,3.028-6.75,6.75S10.073,15,13.795,15c3.722,0,6.75-3.028,6.75-6.75S17.517,1.5,13.795,1.5z"/>
	<path d="M5.29,42.78c-0.429,0-0.833-0.082-1.209-0.247c-1.207-0.526-1.652-1.713-1.67-1.763c-0.19-0.733-4.267-16.884,0.132-20.916
		c4.314-3.954,10.955-4.246,11.235-4.256c0.318,0.01,6.959,0.302,11.271,4.256c4.398,4.031,0.322,20.182,0.146,20.868l-0.043,0.111
		c-0.036,0.068-0.909,1.676-2.352,1.867c-0.81,0.107-1.609-0.243-2.362-1.045l0.729-0.686c0.52,0.554,1.032,0.809,1.502,0.739
		c0.821-0.109,1.441-1.077,1.574-1.301c1.16-4.562,3.4-16.82,0.13-19.817c-4.037-3.702-10.531-3.992-10.596-3.994
		C13.75,16.6,7.256,16.89,3.218,20.592c-3.286,3.011-1.009,15.371,0.146,19.881c0-0.001,0-0.001,0-0.001
		c0.004,0,0.333,0.807,1.126,1.148c0.584,0.252,1.298,0.203,2.125-0.145l0.387,0.922C6.396,42.652,5.824,42.78,5.29,42.78z"/>
	<path d="M11.498,64.667l-0.511-0.029c-2.29-0.272-4.047-2.186-4.117-4.453L5.897,28.64c0.024-0.301,0.021-1.061-0.268-1.398
		c-0.085-0.1-0.187-0.149-0.329-0.158l0.066-0.998c0.411,0.027,0.765,0.204,1.025,0.509c0.613,0.721,0.516,1.94,0.502,2.077
		L7.87,60.154c0.055,1.777,1.433,3.277,3.206,3.489l0.447,0.025c1.603-0.018,1.76-1.713,1.773-1.906l-0.001-21.847h1v21.877
		C14.239,62.796,13.583,64.647,11.498,64.667z"/>
	<path d="M16.098,64.666v-1c1.938,0,3.563-1.576,3.623-3.514l0.973-31.544c0.026-0.937,0.419-2.524,1.724-2.524v1
		c-0.56,0-0.715,1.246-0.724,1.554l-0.973,31.546C20.644,62.655,18.57,64.666,16.098,64.666z"/>
	<path d="M16.067,64.667c-0.817,0-1.478-0.251-1.965-0.747c-0.831-0.845-0.808-2.088-0.807-2.141l1,0.025l-0.5-0.013l0.5,0.011
		c0,0.009-0.009,0.883,0.524,1.421c0.297,0.298,0.676,0.451,1.274,0.443l0.008,1C16.091,64.667,16.079,64.667,16.067,64.667z"/>
	<rect x="15.795" y="63.667" width="0.656" height="1"/>
</g>
</svg>
