<?xml version="1.0" encoding="utf-8"?>
<!-- Generator: Adobe Illustrator 15.0.2, SVG Export Plug-In . SVG Version: 6.00 Build 0)  -->
<!DOCTYPE svg PUBLIC "-//W3C//DTD SVG 1.1//EN" "http://www.w3.org/Graphics/SVG/1.1/DTD/svg11.dtd">
<svg version="1.1" id="Layer_1" xmlns="http://www.w3.org/2000/svg" xmlns:xlink="http://www.w3.org/1999/xlink" x="0px" y="0px"
	 width="13.59px" height="32.022px" viewBox="0 0 13.59 32.022" enable-background="new 0 0 13.59 32.022" xml:space="preserve">
<g>
	<path d="M13.59,32.022H0.518v-1.51c0.358-0.028,0.71-0.063,1.054-0.103c0.346-0.041,0.642-0.111,0.89-0.208
		c0.442-0.165,0.752-0.403,0.932-0.712c0.18-0.312,0.269-0.722,0.269-1.232v-12.04c0-0.481-0.11-0.906-0.331-1.272
		c-0.221-0.365-0.497-0.659-0.827-0.878c-0.248-0.166-0.624-0.324-1.128-0.477C0.873,13.439,0.414,13.343,0,13.301v-1.51
		l10.137-0.538l0.309,0.31v16.425c0,0.481,0.105,0.893,0.312,1.23c0.206,0.337,0.503,0.59,0.889,0.755
		c0.275,0.125,0.58,0.233,0.911,0.331c0.33,0.097,0.674,0.165,1.033,0.207V32.022z M10.57,3.806c0,1.049-0.403,1.941-1.21,2.68
		S7.598,7.592,6.495,7.592c-1.117,0-2.079-0.368-2.885-1.106c-0.807-0.738-1.211-1.631-1.211-2.68c0-1.047,0.404-1.943,1.211-2.688
		C4.417,0.373,5.378,0,6.495,0S8.572,0.373,9.37,1.117C10.172,1.862,10.57,2.758,10.57,3.806z"/>
</g>
</svg>
