<?xml version="1.0" encoding="utf-8"?>
<!-- Generator: Adobe Illustrator 15.0.2, SVG Export Plug-In . SVG Version: 6.00 Build 0)  -->
<!DOCTYPE svg PUBLIC "-//W3C//DTD SVG 1.1//EN" "http://www.w3.org/Graphics/SVG/1.1/DTD/svg11.dtd">
<svg version="1.1" id="Layer_1" xmlns="http://www.w3.org/2000/svg" xmlns:xlink="http://www.w3.org/1999/xlink" x="0px" y="0px"
	 width="90.708px" height="90.708px" viewBox="0 0 90.708 90.708" enable-background="new 0 0 90.708 90.708" xml:space="preserve">
<g>
	<polygon points="29.646,19.61 29.416,71.099 74.122,45.554 	"/>
	<path d="M45.354,3.919c22.848,0,41.436,18.588,41.436,41.436c0,22.847-18.588,41.435-41.436,41.435S3.918,68.202,3.918,45.355
		C3.918,22.507,22.506,3.919,45.354,3.919 M45.354-0.081c-25.093,0-45.436,20.342-45.436,45.436
		c0,25.093,20.342,45.435,45.436,45.435c25.094,0,45.436-20.342,45.436-45.435C90.79,20.261,70.448-0.081,45.354-0.081L45.354-0.081
		z"/>
</g>
</svg>
