<?xml version="1.0" encoding="utf-8"?>
<!-- Generator: Adobe Illustrator 15.0.2, SVG Export Plug-In . SVG Version: 6.00 Build 0)  -->
<!DOCTYPE svg PUBLIC "-//W3C//DTD SVG 1.1//EN" "http://www.w3.org/Graphics/SVG/1.1/DTD/svg11.dtd">
<svg version="1.1" id="Layer_1" xmlns="http://www.w3.org/2000/svg" xmlns:xlink="http://www.w3.org/1999/xlink" x="0px" y="0px"
	 width="34.329px" height="48.378px" viewBox="0 0 34.329 48.378" enable-background="new 0 0 34.329 48.378" xml:space="preserve">
<path d="M32.915,4.144C32.865,4.102,27.576,0,24.974,0c-0.258,0-0.5,0.035-0.738,0.111C17.338,2.303,11.099,11.365,7.079,18.583
	c-5.84,10.489-8.085,18.666-6.665,24.333c0.653,2.588,7.923,5.205,7.995,5.229c0.447,0.155,0.897,0.233,1.341,0.233
	c1.349,0,2.508-0.732,2.884-1.821c0.256-0.739,2.834-8.806,3.113-9.797c0.289-1.041-0.152-2.305-1.176-3.376
	c-0.514-0.541-2.111-2.109-2.964-2.946c0.385-1.078,1.362-3.496,3.521-7.375c2.159-3.88,3.7-5.985,4.413-6.879
	c1.161,0.285,3.337,0.816,4.062,0.964c1.441,0.308,2.785,0.016,3.515-0.793c0.64-0.722,6.162-7.138,6.69-7.806
	C34.651,7.469,34.551,5.479,32.915,4.144 M31.866,7.024c-0.467,0.59-5.905,6.913-6.579,7.674c-0.052,0.043-0.553,0.167-1.181,0.034
	c-0.945-0.194-4.68-1.118-4.718-1.128l-0.695-0.171l-0.494,0.516c-0.08,0.085-2.014,2.134-5.231,7.916
	c-3.216,5.779-3.939,8.5-3.968,8.612l-0.18,0.694l0.513,0.5c0.027,0.027,2.78,2.713,3.45,3.418c0.47,0.491,0.596,0.91,0.584,1.009
	c-0.271,0.964-2.854,9.037-3.054,9.622c-0.038,0.059-0.507,0.299-1.097,0.091c-2.12-0.73-6.018-2.722-6.414-3.522
	c-1.564-6.241,2.635-15.684,6.434-22.505c3.801-6.826,9.618-15.37,15.737-17.314c1.146,0,4.875,2.36,6.38,3.587
	C31.923,6.521,31.877,6.985,31.866,7.024"/>
</svg>
