<?xml version="1.0" encoding="utf-8"?>
<!-- Generator: Adobe Illustrator 15.0.2, SVG Export Plug-In . SVG Version: 6.00 Build 0)  -->
<!DOCTYPE svg PUBLIC "-//W3C//DTD SVG 1.1//EN" "http://www.w3.org/Graphics/SVG/1.1/DTD/svg11.dtd">
<svg version="1.1" id="Layer_1" xmlns="http://www.w3.org/2000/svg" xmlns:xlink="http://www.w3.org/1999/xlink" x="0px" y="0px"
	 width="48px" height="32px" viewBox="156.692 128.671 48 32" enable-background="new 156.692 128.671 48 32" xml:space="preserve">
<path d="M192.571,139.21c0-2.163,0-4.327,0-6.49c-7.923,0-15.843,0-23.765,0c0,7.885,0,15.77,0,23.654
	c7.701,0.256,15.88,0.037,23.765,0.109c0.188-1.518-0.265-2.646,0-3.741c0.212-0.885,1.361-1.58,1.979-2.2
	c0.766-0.765,1.301-1.547,1.98-1.87c-0.4,3.669,0.894,8.622-0.88,10.562c-1.553,1.7-5.612,1.211-9.242,1.211
	c-4.381,0-8.835,0-13.643,0c-2.86,0-5.618,0.212-6.821-0.99c-1.857-1.857-1.101-9.311-1.101-13.752c0-2.514,0-5.131,0-7.481
	c0-3.141-0.424-6.825,0.88-8.253c1.614-1.763,5.511-1.209,9.243-1.209c4.216,0,8.606,0,13.202,0c2.795,0,5.848-0.312,7.152,0.88
	c0.903,0.827,1.728,3.35,1.209,5.501c-0.195,0.811-1.325,1.545-1.98,2.201C193.781,138.111,193.238,138.898,192.571,139.21z"/>
<path d="M204.453,136.791c-0.889,0.798-1.733,1.641-2.531,2.531c-1.091-0.671-1.751-1.771-2.75-2.531
	c0.669-1.092,1.77-1.751,2.531-2.752C202.756,134.819,203.673,135.736,204.453,136.791z"/>
<path d="M188.61,135.361c0,0.88,0,1.76,0,2.64c-5.28,0-10.563,0-15.844,0c0.073-0.845-0.146-1.979,0.11-2.64
	C178.121,135.361,183.365,135.361,188.61,135.361z"/>
<path d="M200.493,140.532c-3.42,3.694-6.979,7.252-10.674,10.672c-0.797-0.891-1.641-1.733-2.529-2.531
	c3.31-3.732,7.05-7.031,10.451-10.672C198.833,138.67,199.492,139.77,200.493,140.532z"/>
<path d="M188.61,140.641c0,0.88,0,1.76,0,2.64c-5.28,0-10.563,0-15.844,0c0.073-0.843-0.146-1.978,0.11-2.64
	C178.121,140.641,183.365,140.641,188.61,140.641z"/>
<path d="M184.648,145.923c0,0.88,0,1.76,0,2.64c-3.96,0-7.92,0-11.882,0c0.073-0.844-0.146-1.979,0.11-2.64
	C176.802,145.923,180.726,145.923,184.648,145.923z"/>
<path d="M188.61,152.414c-0.287,0.629-0.852,0.982-1.32,1.43c-0.881,0-1.76,0-2.642,0c0.142-0.959-0.191-1.826,0-2.531
	c0.197-0.712,0.964-0.871,1.211-1.429C186.95,150.554,187.61,151.652,188.61,152.414z"/>
<path d="M180.688,151.204c0,0.88,0,1.76,0,2.64c-2.642,0-5.282,0-7.922,0c0-0.88,0-1.76,0-2.64
	C175.407,151.204,178.047,151.204,180.688,151.204z"/>
</svg>
