<?xml version="1.0" encoding="utf-8"?>
<!-- Generator: Adobe Illustrator 15.0.2, SVG Export Plug-In . SVG Version: 6.00 Build 0)  -->
<!DOCTYPE svg PUBLIC "-//W3C//DTD SVG 1.1//EN" "http://www.w3.org/Graphics/SVG/1.1/DTD/svg11.dtd">
<svg version="1.1" id="Layer_1" xmlns="http://www.w3.org/2000/svg" xmlns:xlink="http://www.w3.org/1999/xlink" x="0px" y="0px"
	 width="32px" height="26.006px" viewBox="0 0 32 26.006" enable-background="new 0 0 32 26.006" xml:space="preserve">
<path d="M32,3.079c-1.177,0.522-2.441,0.875-3.771,1.034c1.356-0.813,2.397-2.099,2.888-3.632c-1.269,0.752-2.675,1.298-4.169,1.593
	C25.75,0.798,24.043,0,22.154,0c-3.625,0-6.564,2.94-6.564,6.565c0,0.515,0.057,1.016,0.17,1.497
	C10.303,7.787,5.466,5.174,2.228,1.202C1.663,2.172,1.339,3.3,1.339,4.503c0,2.278,1.159,4.287,2.92,5.464
	C3.183,9.933,2.171,9.638,1.286,9.146C1.285,9.173,1.285,9.201,1.285,9.228c0,3.181,2.263,5.835,5.267,6.438
	c-0.551,0.149-1.131,0.229-1.73,0.229c-0.423,0-0.834-0.041-1.235-0.116c0.835,2.607,3.26,4.506,6.133,4.559
	c-2.247,1.761-5.078,2.81-8.154,2.81c-0.53,0-1.052-0.03-1.566-0.092c2.905,1.863,6.356,2.95,10.063,2.95
	c12.078,0,18.68-10.004,18.68-18.679c0-0.285-0.007-0.568-0.019-0.85C30.007,5.552,31.12,4.395,32,3.079"/>
</svg>
