<?xml version="1.0" encoding="utf-8"?>
<!-- Generator: Adobe Illustrator 15.0.2, SVG Export Plug-In . SVG Version: 6.00 Build 0)  -->
<!DOCTYPE svg PUBLIC "-//W3C//DTD SVG 1.1//EN" "http://www.w3.org/Graphics/SVG/1.1/DTD/svg11.dtd">
<svg version="1.1" id="Layer_1" xmlns="http://www.w3.org/2000/svg" xmlns:xlink="http://www.w3.org/1999/xlink" x="0px" y="0px"
	 width="32px" height="32px" viewBox="0 0 32 32" enable-background="new 0 0 32 32" xml:space="preserve">
<path d="M16.846,25.712c0-0.269-0.029-0.529-0.086-0.779c-0.058-0.25-0.119-0.48-0.183-0.692c-0.064-0.211-0.176-0.433-0.337-0.663
	c-0.16-0.231-0.295-0.427-0.404-0.587c-0.108-0.16-0.278-0.35-0.509-0.567s-0.407-0.381-0.529-0.49
	c-0.122-0.108-0.327-0.272-0.615-0.489c-0.289-0.22-0.488-0.366-0.597-0.443c-0.108-0.077-0.32-0.225-0.634-0.442
	s-0.51-0.353-0.587-0.403c-0.218-0.026-0.538-0.039-0.961-0.039c-0.693,0-1.372,0.045-2.039,0.135
	c-0.666,0.09-1.359,0.25-2.076,0.48c-0.719,0.231-1.347,0.525-1.885,0.885c-0.539,0.358-0.981,0.84-1.327,1.442
	c-0.346,0.603-0.519,1.288-0.519,2.058c0,0.871,0.227,1.65,0.682,2.337c0.455,0.686,1.052,1.224,1.789,1.616
	c0.737,0.391,1.51,0.682,2.317,0.875c0.808,0.191,1.622,0.287,2.443,0.287c0.756,0,1.477-0.08,2.163-0.24s1.33-0.41,1.933-0.75
	c0.602-0.34,1.08-0.811,1.432-1.413C16.67,27.224,16.846,26.52,16.846,25.712 M14.539,9.135c0-0.77-0.106-1.587-0.318-2.452
	c-0.211-0.865-0.513-1.702-0.904-2.51s-0.929-1.474-1.615-2c-0.686-0.525-1.452-0.788-2.298-0.788c-1.193,0-2.115,0.442-2.769,1.327
	C5.981,3.596,5.654,4.654,5.654,5.885c0,0.602,0.074,1.237,0.221,1.904c0.147,0.666,0.375,1.333,0.683,2
	c0.307,0.666,0.666,1.266,1.077,1.798c0.41,0.532,0.91,0.964,1.5,1.298c0.589,0.333,1.211,0.5,1.865,0.5
	c1.244,0,2.144-0.388,2.702-1.164C14.26,11.445,14.539,10.417,14.539,9.135 M12.019,0h8.404l-2.596,1.519h-2.596
	c0.91,0.577,1.615,1.385,2.115,2.424c0.5,1.038,0.75,2.121,0.75,3.25c0,0.948-0.146,1.791-0.441,2.528
	c-0.295,0.738-0.654,1.33-1.077,1.779c-0.423,0.449-0.846,0.862-1.269,1.24c-0.423,0.379-0.783,0.77-1.077,1.174
	c-0.295,0.404-0.442,0.836-0.442,1.298c0,0.333,0.105,0.66,0.317,0.981c0.211,0.32,0.487,0.627,0.827,0.922
	c0.339,0.295,0.714,0.603,1.125,0.924c0.41,0.32,0.82,0.676,1.231,1.066c0.41,0.392,0.785,0.814,1.125,1.27
	c0.339,0.455,0.615,1,0.826,1.635c0.212,0.635,0.318,1.317,0.318,2.048c0,2.052-0.898,3.859-2.693,5.423
	C14.917,31.16,12.224,32,8.789,32c-0.757,0-1.523-0.064-2.299-0.192c-0.775-0.128-1.557-0.343-2.346-0.644
	c-0.788-0.303-1.484-0.674-2.086-1.116c-0.603-0.442-1.097-1.013-1.481-1.711C0.192,27.638,0,26.859,0,26
	c0-0.782,0.237-1.646,0.711-2.596c0.411-0.82,1.026-1.529,1.847-2.125c0.82-0.597,1.75-1.051,2.788-1.365
	c1.039-0.315,2.032-0.545,2.981-0.693c0.949-0.146,1.91-0.234,2.884-0.259c-0.82-1.063-1.23-2.019-1.23-2.866
	c0-0.153,0.013-0.304,0.038-0.452c0.026-0.147,0.058-0.272,0.096-0.375c0.039-0.102,0.09-0.24,0.154-0.413
	c0.064-0.173,0.109-0.311,0.135-0.413c-0.513,0.063-0.962,0.096-1.346,0.096c-1.911,0-3.548-0.629-4.914-1.885
	C2.779,11.398,2.096,9.82,2.096,7.923c0-1.795,0.609-3.4,1.827-4.817c1.218-1.417,2.718-2.324,4.5-2.721
	C9.628,0.128,10.827,0,12.019,0 M32,4.923v2.462h-4.923v4.923h-2.462V7.385h-4.924V4.923h4.924V0h2.462v4.923H32z"/>
</svg>
