<?xml version="1.0" encoding="utf-8"?>
<!-- Generator: Adobe Illustrator 15.0.2, SVG Export Plug-In . SVG Version: 6.00 Build 0)  -->
<!DOCTYPE svg PUBLIC "-//W3C//DTD SVG 1.1//EN" "http://www.w3.org/Graphics/SVG/1.1/DTD/svg11.dtd">
<svg version="1.1" id="Layer_1" xmlns="http://www.w3.org/2000/svg" xmlns:xlink="http://www.w3.org/1999/xlink" x="0px" y="0px"
	 width="26.451px" height="32px" viewBox="0 0 26.451 32" enable-background="new 0 0 26.451 32" xml:space="preserve">
<g>
	<defs>
		<rect id="SVGID_1_" x="4.26" y="0.19" width="16.95" height="12.09"/>
	</defs>
	<clipPath id="SVGID_2_">
		<use xlink:href="#SVGID_1_"  overflow="visible"/>
	</clipPath>
	<path clip-path="url(#SVGID_2_)" fill-rule="evenodd" clip-rule="evenodd" d="M10.452,0.194H8.641L7.418,4.893L6.146,0.194H4.262
		C4.64,1.303,5.032,2.417,5.41,3.527c0.574,1.669,0.933,2.927,1.095,3.785v4.845h1.792V7.312L10.452,0.194z M15.238,9.271V6.149
		c0-0.953-0.162-1.649-0.502-2.1c-0.445-0.61-1.074-0.913-1.885-0.913c-0.805,0-1.433,0.303-1.879,0.913
		c-0.344,0.451-0.506,1.147-0.506,2.1v3.121c0,0.949,0.162,1.651,0.506,2.097c0.446,0.608,1.074,0.913,1.879,0.913
		c0.811,0,1.439-0.305,1.885-0.913C15.076,10.921,15.238,10.219,15.238,9.271 M13.623,9.576c0,0.824-0.25,1.237-0.771,1.237
		c-0.52,0-0.77-0.413-0.77-1.237V5.825c0-0.824,0.25-1.236,0.77-1.236c0.521,0,0.771,0.412,0.771,1.236V9.576z M21.212,12.157V3.242
		h-1.615v6.814c-0.357,0.506-0.696,0.757-1.02,0.757c-0.218,0-0.345-0.129-0.379-0.379c-0.02-0.052-0.02-0.25-0.02-0.629V3.242
		h-1.61v7.05c0,0.629,0.055,1.055,0.144,1.326c0.16,0.45,0.52,0.662,1.04,0.662c0.589,0,1.201-0.357,1.845-1.096v0.973H21.212z"/>
</g>
<path fill-rule="evenodd" clip-rule="evenodd" d="M10.456,0H8.645L7.423,4.698L6.151,0H4.267c0.377,1.109,0.771,2.224,1.148,3.333
	C5.988,5.002,6.348,6.259,6.51,7.118v4.845h1.791V7.118L10.456,0z M15.244,9.077V5.954c0-0.952-0.164-1.649-0.502-2.099
	c-0.447-0.61-1.075-0.914-1.885-0.914c-0.805,0-1.434,0.304-1.881,0.914c-0.343,0.45-0.506,1.147-0.506,2.099v3.123
	c0,0.948,0.163,1.65,0.506,2.097c0.447,0.607,1.076,0.913,1.881,0.913c0.81,0,1.438-0.306,1.885-0.913
	C15.08,10.727,15.244,10.025,15.244,9.077 M13.628,9.381c0,0.825-0.249,1.237-0.771,1.237s-0.771-0.412-0.771-1.237v-3.75
	c0-0.825,0.25-1.235,0.771-1.235s0.771,0.41,0.771,1.235V9.381z M21.218,11.963V3.049h-1.616v6.813
	c-0.357,0.506-0.697,0.756-1.02,0.756c-0.217,0-0.344-0.128-0.379-0.378c-0.02-0.052-0.02-0.249-0.02-0.629V3.049h-1.611v7.049
	c0,0.629,0.055,1.056,0.144,1.325c0.161,0.452,0.521,0.664,1.041,0.664c0.589,0,1.202-0.358,1.845-1.097v0.973H21.218z"/>
<path fill-rule="evenodd" clip-rule="evenodd" d="M25.993,16.53c-0.323-1.406-1.475-2.443-2.859-2.598
	c-3.28-0.367-6.6-0.368-9.904-0.367c-3.306-0.001-6.625,0-9.905,0.367c-1.385,0.155-2.535,1.192-2.857,2.598
	C0.004,18.533,0,20.72,0,22.781c0,2.063,0,4.25,0.461,6.254c0.323,1.408,1.473,2.445,2.857,2.599C6.599,32,9.918,32.002,13.224,32
	c3.305,0.002,6.625,0,9.905-0.366c1.384-0.153,2.535-1.19,2.858-2.599c0.461-2.004,0.464-4.19,0.464-6.254
	C26.451,20.72,26.453,18.533,25.993,16.53 M7.545,18.332H5.629v10.173H3.852V18.332h-1.88v-1.667h5.573V18.332z M12.375,28.505
	h-1.601v-0.962c-0.635,0.729-1.238,1.084-1.826,1.084c-0.515,0-0.87-0.21-1.03-0.657c-0.088-0.267-0.141-0.688-0.141-1.312v-6.975
	h1.598v6.495c0,0.373,0,0.569,0.016,0.621c0.038,0.248,0.16,0.373,0.373,0.373c0.32,0,0.656-0.247,1.011-0.748v-6.741h1.601V28.505z
	 M18.446,25.857c0,0.816-0.054,1.403-0.16,1.777c-0.214,0.657-0.642,0.992-1.278,0.992c-0.568,0-1.117-0.316-1.651-0.977v0.854
	h-1.599v-11.84h1.599v3.866c0.516-0.633,1.063-0.957,1.651-0.957c0.637,0,1.064,0.336,1.278,0.998
	c0.106,0.354,0.16,0.938,0.16,1.772V25.857z M24.479,24.386h-3.196v1.563c0,0.816,0.268,1.224,0.816,1.224
	c0.393,0,0.623-0.213,0.714-0.642c0.015-0.086,0.035-0.44,0.035-1.082h1.631v0.233c0,0.515-0.021,0.869-0.034,1.03
	c-0.054,0.354-0.18,0.674-0.373,0.958c-0.443,0.64-1.099,0.956-1.933,0.956c-0.837,0-1.474-0.303-1.936-0.904
	c-0.339-0.441-0.514-1.137-0.514-2.074v-3.091c0-0.942,0.154-1.631,0.494-2.077c0.462-0.604,1.099-0.906,1.915-0.906
	c0.802,0,1.438,0.302,1.886,0.906c0.334,0.446,0.494,1.135,0.494,2.077V24.386z"/>
<path fill-rule="evenodd" clip-rule="evenodd" d="M16.153,21.015c-0.263,0-0.529,0.125-0.797,0.388v5.379
	c0.268,0.267,0.534,0.392,0.797,0.392c0.461,0,0.695-0.392,0.695-1.188v-3.766C16.849,21.423,16.614,21.015,16.153,21.015"/>
<path fill-rule="evenodd" clip-rule="evenodd" d="M22.085,21.015c-0.534,0-0.802,0.408-0.802,1.224v0.816h1.599v-0.816
	C22.882,21.423,22.614,21.015,22.085,21.015"/>
</svg>
