<svg xmlns="http://www.w3.org/2000/svg" width="61.7" height="57.181" viewBox="0 0 61.7 57.181"><path d="M61.563 30.432l-7.324-8.89 7.077-8.56c.164-.163.246-.41.164-.657-.082-.247-.163-.412-.41-.576L38.93.143c-.33-.165-.74-.083-.986.164L30.7 9.033 23.457.308c-.247-.33-.66-.41-.988-.164L.41 11.666c-.247.083-.412.33-.412.577 0 .246 0 .493.165.658l7.325 8.89-7.16 8.642c-.165.164-.248.41-.165.658.082.247.164.412.41.576l7.49 3.95v9.548c0 .33.166.576.413.74l21.975 11.193c.082.083.247.083.33.083s.246 0 .328-.083l22.223-11.192c.247-.165.412-.41.412-.74v-9.548l7.49-3.95c.246-.083.41-.33.41-.577.084-.247.084-.494-.082-.658M2.058 12.654L22.716 1.872l6.75 8.148-15.31 7.984-5.185 2.716h-.328l-6.584-8.066zm6.09 21.07L2.305 30.68l5.843-7.08.823-.987.084-.082.74.33 19.918 10.37-.247.33-2.634 3.21-3.867 4.69-2.634-1.4-1.81-.903-8.726-4.527-1.646-.906zM30.124 55.04l-19.59-9.958-.74-.412v-8.23l6.914 3.62 1.81.907 4.28 2.222c.083.08.247.08.412.08.247 0 .494-.08.658-.328l6.42-7.736v19.836h-.164zm8.642-53.168l20.658 10.782-6.584 7.9L32.017 10.02l6.75-8.148zM52.1 43.602v1.068l-.742.412-19.588 9.96V35.287l6.42 7.735c.164.165.41.33.658.33.164 0 .247 0 .41-.083l4.28-2.222 1.812-.905 6.914-3.622v7.08H52.1zm1.645-9.878l-1.646.823-8.725 4.527-1.812.904-2.634 1.4-3.87-4.692-2.633-3.128-.164-.247L52.1 22.86l.41-.247c.083 0 .165.082.247.082h.165l.823.988 5.844 7.078-5.845 2.964z"/></svg>