<svg xmlns="http://www.w3.org/2000/svg" width="64.64" height="67.81" viewBox="0 0 64.64 67.81"><path d="M62.572 55.473l-11.55-11.555c3.137-4.52 4.98-10.01 4.98-15.92C56.003 12.56 43.44 0 28 0 12.56 0 0 12.56 0 28c0 15.443 12.56 28 28 28 4.254 0 8.288-.954 11.903-2.66l12.4 12.403c1.338 1.332 3.123 2.066 5.02 2.066 1.947 0 3.783-.766 5.17-2.15 2.83-2.83 2.865-7.404.08-10.187M11.198 28c0-9.264 7.537-16.802 16.8-16.802 9.264 0 16.802 7.538 16.802 16.8 0 9.268-7.538 16.805-16.802 16.805-9.263 0-16.8-7.537-16.8-16.804"/></svg>