<svg xmlns="http://www.w3.org/2000/svg" width="27.59" height="65.167" viewBox="0 0 27.59 65.167"><path d="M6.545 8.25C6.545 4.246 9.79 1 13.795 1s7.25 3.246 7.25 7.25-3.246 7.25-7.25 7.25-7.25-3.246-7.25-7.25zM24.71 20.222c-4.228-3.875-10.915-4.125-10.915-4.125s-6.688.25-10.916 4.125 0 20.375 0 20.375.945 2.59 3.927 1.34l.563 18.232c.063 2.037 1.66 3.73 3.647 3.97l.476.027c2.168-.02 2.302-2.375 2.302-2.375s-.062 2.396 2.302 2.375c2.2 0 4.056-1.8 4.124-4l.582-18.854c2.25 2.396 3.908-.715 3.908-.715s4.23-16.5 0-20.376z"/><g fill="none" stroke="#000" stroke-miterlimit="10"><circle cx="13.795" cy="8.25" r="7.25"/><path d="M6.808 41.937c-2.982 1.25-3.928-1.34-3.928-1.34s-4.228-16.5 0-20.374 10.916-4.125 10.916-4.125 6.688.25 10.915 4.125c4.23 3.875 0 20.375 0 20.375s-1.657 3.11-3.907.715M13.795 39.916v21.876s-.134 2.354-2.302 2.375l-.476-.028C9.03 63.9 7.433 62.206 7.37 60.17l-.973-31.546s.187-1.957-1.063-2.04M22.417 26.583c-1.167 0-1.224 2.04-1.224 2.04l-.973 31.544c-.068 2.2-1.924 3.998-4.123 3.998M13.795 61.792s-.062 2.396 2.302 2.375M16.45 64.167h-.655"/></g></svg>