<svg xmlns="http://www.w3.org/2000/svg" width="34.329" height="48.378" viewBox="0 0 34.329 48.378"><path d="M32.915 4.144C32.865 4.102 27.575 0 24.975 0c-.26 0-.5.035-.74.11C17.34 2.304 11.1 11.366 7.08 18.584 1.24 29.073-1.007 37.25.413 42.916c.653 2.588 7.923 5.205 7.995 5.23.446.154.896.232 1.34.232 1.35 0 2.508-.732 2.884-1.82.256-.74 2.834-8.807 3.113-9.798.29-1.04-.152-2.305-1.176-3.376-.513-.54-2.11-2.11-2.963-2.946.385-1.078 1.362-3.496 3.52-7.375 2.16-3.88 3.7-5.985 4.414-6.88 1.162.286 3.338.817 4.063.965 1.44.308 2.785.016 3.515-.793.64-.722 6.162-7.138 6.69-7.806.843-1.08.743-3.07-.893-4.406m-1.05 2.88c-.466.59-5.904 6.913-6.578 7.674-.052.043-.553.167-1.18.034-.946-.194-4.68-1.118-4.72-1.128l-.694-.17-.494.515c-.08.084-2.015 2.133-5.232 7.915-3.216 5.78-3.94 8.5-3.968 8.612l-.18.694.513.5c.027.028 2.78 2.714 3.45 3.42.47.49.596.91.584 1.008-.27.964-2.854 9.037-3.054 9.622-.038.06-.507.3-1.097.09-2.12-.73-6.018-2.72-6.414-3.52-1.564-6.242 2.635-15.685 6.434-22.506 3.8-6.826 9.618-15.37 15.737-17.314 1.146 0 4.875 2.36 6.38 3.587.57.464.524.928.513.967"/></svg>