<svg xmlns="http://www.w3.org/2000/svg" width="114" height="26" viewBox="0 0 114 26"><g fill="#004990"><path d="M44.447 14.01l-.025.25c-.302 3.187-2.625 5.248-5.92 5.248-1.906 0-3.54-.628-4.73-1.814-1.2-1.202-1.862-2.913-1.862-4.82 0-2.004.644-3.707 1.86-4.925 1.186-1.186 2.822-1.813 4.73-1.813 3.14 0 5.476 1.863 5.81 4.638l.032.25-3.207.002-.028-.192C40.944 9.733 39.8 8.87 38.502 8.87c-.917 0-1.662.28-2.217.833-.693.694-1.075 1.82-1.075 3.172 0 1.29.377 2.376 1.062 3.062.558.56 1.308.842 2.23.842 1.506 0 2.51-.948 2.727-2.58l.012-.185 3.205-.004"/><path d="M50.305 9.553c1.533 0 2.826.48 3.738 1.396.882.88 1.348 2.107 1.348 3.546 0 1.43-.464 2.65-1.343 3.528-.914.912-2.208 1.396-3.742 1.396-1.525 0-2.813-.48-3.724-1.394-.88-.88-1.345-2.102-1.345-3.53 0-1.453.464-2.684 1.34-3.56.905-.906 2.195-1.383 3.73-1.383m-1.365 7.062c.333.334.792.503 1.364.503.575 0 1.04-.173 1.38-.515.56-.56.678-1.457.678-2.11 0-.664-.117-1.573-.677-2.134-.336-.337-.8-.507-1.38-.507-.573 0-1.03.168-1.363.5-.56.562-.68 1.474-.68 2.14.002.66.12 1.564.678 2.122zM65.584 9.553c1.532 0 2.825.48 3.736 1.396.883.88 1.35 2.107 1.35 3.546 0 1.43-.466 2.65-1.345 3.528-.913.912-2.208 1.396-3.74 1.396-1.526 0-2.813-.48-3.726-1.394-.88-.88-1.347-2.102-1.347-3.53 0-1.453.465-2.684 1.342-3.56.905-.906 2.194-1.383 3.73-1.383m-1.364 7.062c.333.334.792.503 1.364.503.575 0 1.04-.173 1.38-.515.562-.56.68-1.457.68-2.11 0-.664-.118-1.573-.68-2.134-.335-.337-.8-.507-1.38-.507-.57 0-1.03.168-1.36.5-.563.562-.68 1.474-.68 2.14 0 .66.115 1.564.677 2.122zM56.44 6.407h3.027V19.19H56.44zM82.73 6.407h3.025V19.19H82.73zM111.62 11.88h1.888V9.787h-1.887v-2.68h-3.026v2.68h-1.56l-.002 2.095h1.562v5.043c0 .683.194 1.224.578 1.606.667.665 1.807.743 2.604.743.66 0 1.164-.03 1.54-.09l.192-.03V16.77l-.27.05c-.235.047-.47.066-.756.066-.394 0-.615-.046-.72-.15-.1-.097-.143-.302-.143-.66v-4.195"/><path d="M74.746 22.312l-3.03.002.005-.227v-12.3h2.587l.31.71.02.043.03-.03c.637-.63 1.52-.964 2.56-.964 1.27 0 2.31.398 3.097 1.184.896.896 1.39 2.262 1.39 3.844 0 1.46-.5 2.797-1.377 3.673-.765.763-1.788 1.165-2.966 1.165-.994 0-1.905-.34-2.567-.955l-.053-.048v3.902m3.934-7.807c0-.915-.262-1.7-.717-2.156-.333-.334-.77-.503-1.307-.503-.547 0-.988.165-1.314.492-.445.442-.69 1.212-.69 2.165 0 .918.243 1.666.685 2.104.333.33.783.5 1.34.5.556 0 1.003-.167 1.335-.497.55-.554.67-1.453.67-2.108zM96.822 19.17l-2.57.002-.343-.808v-.077l-.053.056c-.658.68-1.637 1.068-2.685 1.068-1.178 0-2.202-.4-2.964-1.164-.876-.876-1.38-2.214-1.38-3.673 0-1.582.494-2.947 1.392-3.844.785-.786 1.827-1.185 3.098-1.185 1.037 0 1.92.333 2.558.963l.03.03.326-.752h2.59v9.385m-4.96-2.06c.56 0 1.008-.17 1.34-.5.44-.44.685-1.19.685-2.105 0-.953-.246-1.723-.69-2.166-.325-.328-.77-.493-1.313-.493-.533 0-.975.17-1.308.502-.455.454-.716 1.24-.716 2.155 0 .655.117 1.554.67 2.108.33.33.78.498 1.333.498zM100.78 16.318c.208.928 1.364 1 1.717 1 .144 0 .877-.02 1.248-.392.142-.142.214-.317.214-.522 0-.557-1.037-.81-2.742-1.16-1.022-.214-3.153-.66-3.153-2.604 0-.82.258-1.495.766-2.003.726-.725 1.916-1.09 3.542-1.09 2.632 0 4.136 1.025 4.354 2.97l-2.91-.02c-.062-.377-.3-.857-1.515-.857-.668 0-.956.146-1.078.27-.088.087-.128.192-.128.333 0 .553.94.74 2.03.96.23.047.47.096.712.148 1.022.225 3.15.69 3.15 2.727 0 .876-.278 1.603-.833 2.153-.977.977-2.536 1.182-3.672 1.182-1.368 0-2.468-.276-3.268-.82-.787-.54-1.24-1.31-1.347-2.287l2.914.013"/></g><g fill="#004990"><path d="M20.466 12.785c-1.716 0-2.944.42-3.98.42-1.038 0-2.392-.372-3.218-.372H0c0 7.045 5.705 12.77 12.75 12.77s12.764-5.772 12.764-12.816c0-.002-4.023-.002-5.048-.002M17.716 1.01C16.138.313 14.423 0 12.756 0c-1.84 0-3.393.31-4.974 1.01h9.934M15.98 11.625c-2.074 0-4.796.382-5.657.382H.023c.02-.366.052-.662.104-1.02h9.893c1.064.066 2.942.387 5.96.387l1.056.006c3.312 0 4.618-.344 5.238-.344l3.114-.047c.05.354.08.64.1 1.004l-3.72-.02c-.94 0-2.69-.366-4.762-.366l-1.027.017M17.496 9.814c2.585 0 4.356.32 5.382.32l2.36.004c-.075-.367-.14-.618-.246-.974l-1.755.017c-.58.09-2.986.443-5.726.383l-2.07.02c-2.125.025-5.03-.246-6.31-.407H.52c-.105.353-.177.628-.25.994l8.56-.003c.508 0 4.053-.348 6.626-.348l2.04-.006M21.687 3.658c.344.34.57.57.873.95l-.645-.056c-1.088-.065-2.325-.27-4.91-.27l-1.025-.005c-3.002 0-5.474.4-6.21.4H2.887c.302-.378.523-.605.868-.957h7.428c1.04.082 2.47.328 4.796.328l1.04-.015c2.074 0 3.247-.22 3.837-.263l.83-.112M16.988 6.133c2.585 0 4.995.104 6.097.263l.733.027c-.205-.37-.31-.532-.55-.88l-.7.06c-.508 0-2.963.263-5.55.263h-1.087c-4.124 0-5.473-.327-6.41-.327H2.243c-.24.35-.397.595-.604.97l6.953-.006c.854-.138 4.787-.475 7.37-.37h1.025M17.545 7.966c2.585 0 5.226.263 5.776.32l1.382.01c-.134-.367-.232-.593-.397-.944l-.975.078c-1.105.06-2.614.294-5.785.294l-2.073.01c-3.023 0-5.27-.292-6.316-.373l-7.95-.005c-.166.353-.27.598-.403.968l7.737-.01c1.13-.117 3.747-.327 6.932-.327l2.073-.02M19.006 2.78c.556.054 1.705.01 1.705.01-.477-.397-.822-.62-1.354-.945H6.158c-.528.32-.953.62-1.428 1.003l8.304-.007c1.115 0 2.26-.427 3.296-.427 1.037 0 2.058.31 2.676.367"/></g></svg>