<svg xmlns="http://www.w3.org/2000/svg" width="127.016" height="53.487" viewBox="0 0 127.016 53.487"><g fill="#00B0CA"><path d="M117.91 2.762c0 1.556-1.198 2.766-2.767 2.766s-2.766-1.21-2.766-2.766c0-1.55 1.197-2.762 2.766-2.762s2.768 1.21 2.768 2.762m-5.102 0c0 1.323.99 2.375 2.336 2.375 1.33 0 2.335-1.052 2.335-2.375 0-1.324-1.006-2.37-2.336-2.37-1.345 0-2.336 1.046-2.336 2.37m1.723 1.6h-.39V1.165h1.226c.72 0 1.038.312 1.038.885 0 .565-.362.81-.8.89l.95 1.423h-.46l-.898-1.422h-.665v1.423zm.527-1.755c.48 0 .952-.016.952-.558 0-.446-.368-.55-.756-.55h-.723v1.107h.527zM48.01 4.648c-.44-2.012-2.105-3.166-4.007-3.166-3.46 0-4.92 2.893-4.92 5.746 0 2.854 1.46 5.745 4.92 5.745 2.417 0 3.953-1.867 4.19-4.19h1.244c-.346 3.22-2.378 5.25-5.434 5.25-4.118 0-6.165-3.22-6.165-6.805S39.885.422 44.003.422c2.49 0 4.903 1.5 5.25 4.226H48.01zM59.576 9.04c0 2.707-1.593 4.994-4.465 4.994s-4.46-2.287-4.46-4.994c0-2.708 1.59-4.994 4.46-4.994s4.466 2.286 4.466 4.994m-7.775 0c0 1.993 1.117 4.026 3.31 4.026 2.198 0 3.314-2.033 3.314-4.026 0-1.994-1.116-4.026-3.313-4.026-2.193 0-3.31 2.03-3.31 4.026"/><path d="M61.316.698h1.152V13.76h-1.152zM73.137 9.04c0 2.707-1.593 4.994-4.463 4.994-2.873 0-4.468-2.287-4.468-4.994 0-2.708 1.595-4.994 4.468-4.994 2.87 0 4.463 2.286 4.463 4.994m-7.777 0c0 1.993 1.116 4.026 3.313 4.026 2.19 0 3.31-2.033 3.31-4.026 0-1.994-1.12-4.026-3.31-4.026-2.196 0-3.313 2.03-3.313 4.026M74.86 4.32h1.06v1.793h.037c.53-1.3 1.828-2.067 3.366-2.067 2.873 0 4.243 2.303 4.243 4.994 0 2.69-1.37 4.994-4.243 4.994-1.39 0-2.782-.696-3.276-2.068h-.036v5.288h-1.15V4.32zm4.463.694c-2.562 0-3.312 1.885-3.312 4.026 0 1.957.88 4.026 3.313 4.026 2.194 0 3.09-2.07 3.09-4.026 0-1.96-.895-4.026-3.09-4.026"/><path d="M85.38.697h1.153V13.76H85.38zM88.637 7.21c.13-2.215 1.648-3.165 3.825-3.165 1.663 0 3.475.494 3.475 3.035v5.013c0 .458.222.695.68.695.126 0 .236-.018.364-.072v.97c-.273.055-.437.074-.75.074-1.17 0-1.354-.68-1.354-1.647h-.037c-.823 1.224-1.61 1.92-3.44 1.92-1.755 0-3.165-.86-3.165-2.762 0-2.633 2.58-2.745 5.07-3.036.948-.093 1.48-.255 1.48-1.282 0-1.554-1.097-1.94-2.47-1.94-1.444 0-2.47.66-2.525 2.198h-1.153zm6.148 1.39h-.036c-.147.276-.658.366-.97.42-1.96.348-4.394.348-4.394 2.178 0 1.153 1.01 1.868 2.106 1.868 1.774 0 3.292-1.117 3.292-2.967V8.6zM103.9 7.08c-.056-1.425-1.154-2.066-2.47-2.066-1.024 0-2.234.403-2.234 1.628 0 1.006 1.153 1.392 1.96 1.593l1.536.347c1.314.202 2.687.97 2.687 2.616 0 2.048-2.03 2.836-3.786 2.836-2.215 0-3.677-1.006-3.878-3.33h1.152c.092 1.556 1.245 2.362 2.782 2.362 1.096 0 2.58-.477 2.58-1.794 0-1.097-1.025-1.462-2.068-1.72l-1.48-.33c-1.502-.385-2.637-.93-2.637-2.524 0-1.92 1.884-2.652 3.55-2.652 1.902 0 3.368.986 3.456 3.035h-1.15zM108.874 4.318h1.926v.972h-1.926v6.368c0 .748.115 1.188.938 1.243.33 0 .658-.018.988-.054v.986c-.35 0-.68.04-1.026.04-1.537 0-2.066-.514-2.047-2.125V5.29h-1.647v-.972h1.647V1.483h1.147v2.835zM61.143 28.857c-1.113-5.102-5.333-8.023-10.157-8.023-8.766 0-12.477 7.328-12.477 14.563S42.22 49.96 50.985 49.96c6.122 0 10.018-4.73 10.62-10.62h3.155c-.88 8.163-6.03 13.31-13.773 13.31-10.436 0-15.63-8.162-15.63-17.253s5.194-17.254 15.63-17.254c6.308 0 12.43 3.804 13.312 10.714h-3.157zM68.75 35.35c.324-5.61 4.174-8.023 9.693-8.023 4.22 0 8.813 1.253 8.813 7.7v12.707c0 1.16.557 1.763 1.716 1.763.325 0 .604-.046.928-.186v2.46c-.696.14-1.114.185-1.902.185-2.97 0-3.433-1.715-3.433-4.174h-.093c-2.086 3.108-4.08 4.87-8.72 4.87-4.452 0-8.023-2.18-8.023-7.002 0-6.68 6.54-6.958 12.847-7.7 2.412-.23 3.758-.648 3.758-3.246 0-3.942-2.784-4.917-6.263-4.917-3.664 0-6.262 1.67-6.4 5.566H68.75zm15.585 3.525h-.095c-.37.697-1.668.93-2.458 1.068-4.963.88-11.132.88-11.132 5.52 0 2.922 2.552 4.73 5.334 4.73 4.5 0 8.35-2.83 8.35-7.514v-3.805zM93.1 28.023h2.69v5.61h.094c1.483-3.895 4.73-6.12 9.044-5.935v2.92c-5.288-.23-8.905 3.572-8.905 8.582v12.754H93.1v-23.93zM108.59 40.777c0 4.268 2.32 9.416 7.886 9.416 4.268 0 6.587-2.46 7.515-6.123h2.923c-1.252 5.427-4.36 8.58-10.437 8.58-7.605 0-10.806-5.843-10.806-12.66 0-6.31 3.2-12.663 10.806-12.663 7.653 0 10.762 6.726 10.528 13.45H108.59zm15.492-2.458c-.14-4.406-2.922-8.535-7.606-8.535-4.823 0-7.374 4.174-7.885 8.534h15.492z"/></g><linearGradient id="a" gradientUnits="userSpaceOnUse" x1="23.233" y1="22.864" x2="23.233" y2="52.797"><stop offset="0" stop-color="#CCEFF4"/><stop offset="1" stop-color="#00B0CA"/></linearGradient><path fill="url(#a)" d="M10.89 50.596c1.048 2.584 23.484 2.89 24.7 0 1.217-2.89-4.673-8.498-12.36-8.498-7.468 0-13.65 5.26-12.34 8.498z"/><linearGradient id="b" gradientUnits="userSpaceOnUse" x1="8.767" y1="21.007" x2="8.767" y2="51.041"><stop offset="0" stop-color="#CCEFF4"/><stop offset="1" stop-color="#00B0CA"/></linearGradient><path fill="url(#b)" d="M17.422 39.904c.853-2.117-3.274-6.227-8.66-6.227-4.733 0-8.728 3.157-8.762 5.517v.06c.003.226.043.444.123.65.378.97 4.713 1.502 8.953 1.502 4.007 0 7.932-.475 8.346-1.502z"/><linearGradient id="c" gradientUnits="userSpaceOnUse" x1="23.631" y1="17.424" x2="23.631" y2="50.469"><stop offset="0" stop-color="#CCEFF4"/><stop offset="1" stop-color="#00B0CA"/></linearGradient><path fill="url(#c)" d="M23.64 21.555c-3.002-.002-5.31 1.712-4.836 2.597.472.882 9.234.795 9.646.006.516-.99-1.894-2.603-4.81-2.603z"/><linearGradient id="d" gradientUnits="userSpaceOnUse" x1="17.459" y1="17.134" x2="17.459" y2="49.939"><stop offset="0" stop-color="#CCEFF4"/><stop offset="1" stop-color="#00B0CA"/></linearGradient><path fill="url(#d)" d="M17.468 18.143c-2.363-.002-4.18 1.226-3.81 1.857.375.63 7.272.567 7.595.003.406-.71-1.49-1.86-3.785-1.86z"/><linearGradient id="e" gradientUnits="userSpaceOnUse" x1="16.956" y1="21.591" x2="16.956" y2="48.872"><stop offset="0" stop-color="#CCEFF4"/><stop offset="1" stop-color="#00B0CA"/></linearGradient><path fill="url(#e)" d="M10.152 30.798c.64 1.456 12.978 1.58 13.58.304.754-1.602-2.59-4.302-6.697-4.394l-.214-.002c-4.12 0-7.296 2.66-6.668 4.092z"/></svg>