<svg style="display:none" xmlns="http://www.w3.org/2000/svg"><symbol viewBox="-0.243 -0.155 114 26" id="shape-logo-coloplast"><title>logo-coloplast</title><path fill="#004990" d="M44.447 14.01l-.025.25c-.302 3.187-2.625 5.248-5.92 5.248-1.906 0-3.54-.628-4.73-1.815-1.2-1.202-1.862-2.913-1.862-4.82 0-2.004.644-3.707 1.86-4.925 1.186-1.185 2.822-1.812 4.73-1.812 3.14 0 5.476 1.863 5.81 4.638l.032.25-3.207.002-.028-.192c-.163-1.102-1.308-1.966-2.605-1.966-.917 0-1.662.28-2.217.834-.693.694-1.075 1.82-1.075 3.172 0 1.29.377 2.376 1.062 3.062.558.558 1.308.84 2.23.84 1.506 0 2.51-.946 2.727-2.578l.012-.185 3.205-.002"/><path fill="#004990" d="M50.305 9.553c1.533 0 2.826.48 3.738 1.395.882.882 1.348 2.108 1.348 3.547 0 1.43-.464 2.65-1.343 3.528-.914.913-2.208 1.396-3.742 1.396-1.525 0-2.813-.483-3.724-1.394-.88-.88-1.345-2.102-1.345-3.532 0-1.452.464-2.683 1.34-3.56.905-.904 2.195-1.38 3.73-1.38m-1.365 7.06c.333.335.792.504 1.364.504.575 0 1.04-.173 1.38-.514.56-.56.678-1.457.678-2.11 0-.665-.117-1.574-.677-2.135-.336-.337-.8-.507-1.38-.507-.573 0-1.03.168-1.363.5-.56.562-.68 1.474-.68 2.14.002.66.12 1.564.678 2.122zM65.584 9.553c1.532 0 2.825.48 3.737 1.395.883.882 1.35 2.108 1.35 3.547 0 1.43-.466 2.65-1.345 3.528-.913.913-2.208 1.396-3.74 1.396-1.526 0-2.814-.483-3.725-1.394-.88-.88-1.346-2.102-1.346-3.532 0-1.452.464-2.683 1.34-3.56.906-.904 2.195-1.38 3.73-1.38m-1.364 7.06c.333.335.792.504 1.364.504.575 0 1.04-.173 1.38-.514.56-.56.68-1.457.68-2.11 0-.665-.12-1.574-.68-2.135-.335-.337-.8-.507-1.38-.507-.57 0-1.03.168-1.362.5-.562.562-.68 1.474-.68 2.14 0 .66.117 1.564.678 2.122zM56.44 6.407h3.027v12.785H56.44zM82.728 6.407h3.027v12.785h-3.027zM111.62 11.88h1.888V9.787h-1.887v-2.68h-3.026v2.68h-1.56l-.002 2.095h1.562v5.043c0 .683.194 1.223.578 1.606.667.666 1.806.743 2.604.743.66 0 1.163-.03 1.54-.09l.192-.03V16.77l-.27.05c-.235.046-.47.066-.755.066-.394 0-.616-.046-.72-.15-.1-.098-.143-.302-.143-.66V11.88"/><path fill="#004990" d="M74.746 22.313h-3.03l.004-.225V9.786h2.587l.31.712.018.042.03-.03c.638-.63 1.522-.964 2.56-.964 1.27 0 2.312.398 3.097 1.184.896.896 1.39 2.262 1.39 3.844 0 1.46-.5 2.797-1.377 3.673-.764.763-1.788 1.165-2.966 1.165-.996 0-1.907-.34-2.57-.955l-.052-.048v3.903m3.935-7.808c0-.915-.26-1.7-.716-2.156-.333-.334-.772-.503-1.307-.503-.547 0-.988.165-1.315.492-.444.442-.69 1.212-.69 2.165 0 .918.244 1.666.685 2.105.332.332.782.5 1.34.5.554 0 1.002-.167 1.333-.497.553-.554.67-1.453.67-2.108zM96.822 19.17l-2.57.002-.343-.808v-.077l-.052.056c-.66.68-1.637 1.068-2.685 1.068-1.178 0-2.202-.4-2.964-1.164-.877-.876-1.38-2.214-1.38-3.673 0-1.582.493-2.947 1.39-3.844.786-.786 1.828-1.185 3.098-1.185 1.037 0 1.92.333 2.558.963l.03.03.326-.752h2.59v9.385m-4.96-2.06c.56 0 1.008-.168 1.34-.5.44-.44.684-1.188.684-2.105 0-.953-.245-1.723-.69-2.166-.325-.328-.768-.493-1.313-.493-.534 0-.975.17-1.308.502-.455.454-.716 1.24-.716 2.155 0 .655.116 1.554.67 2.108.33.33.78.498 1.333.498zM100.78 16.318c.21.928 1.365 1 1.717 1 .144 0 .877-.02 1.248-.39.142-.143.214-.318.214-.524 0-.557-1.037-.81-2.742-1.16-1.023-.214-3.153-.66-3.153-2.604 0-.82.257-1.495.765-2.003.725-.725 1.915-1.09 3.54-1.09 2.633 0 4.137 1.025 4.354 2.97l-2.91-.02c-.062-.377-.3-.857-1.514-.857-.67 0-.957.146-1.08.27-.087.087-.127.192-.127.333 0 .553.94.74 2.03.96.23.047.47.096.712.148 1.022.225 3.15.69 3.15 2.727 0 .876-.278 1.602-.833 2.154-.976.977-2.536 1.182-3.672 1.182-1.37 0-2.47-.276-3.268-.82-.787-.54-1.24-1.31-1.347-2.288l2.914.014M20.466 12.785c-1.716 0-2.944.42-3.98.42s-2.392-.372-3.218-.372H0c0 7.045 5.705 12.77 12.75 12.77s12.764-5.773 12.764-12.817h-5.048M17.716 1.01C16.138.313 14.423 0 12.756 0c-1.84 0-3.393.31-4.974 1.01h9.934M15.98 11.625c-2.074 0-4.796.382-5.657.382H.023c.02-.366.052-.662.104-1.02h9.893c1.064.066 2.942.387 5.96.387l1.056.006c3.312 0 4.618-.344 5.238-.344l3.114-.047c.05.355.08.64.1 1.004l-3.72-.02c-.94 0-2.69-.366-4.762-.366l-1.027.017M17.496 9.814c2.585 0 4.356.32 5.382.32l2.36.004c-.075-.367-.14-.618-.246-.974l-1.755.017c-.58.09-2.986.443-5.726.383l-2.07.02c-2.125.025-5.03-.246-6.31-.407H.52c-.105.353-.177.628-.25.994l8.56-.003c.508 0 4.053-.348 6.626-.348l2.04-.006M21.687 3.658c.344.34.57.57.873.95l-.645-.056c-1.088-.065-2.325-.272-4.91-.272l-1.025-.003c-3.002 0-5.474.4-6.21.4H2.887c.302-.378.523-.605.868-.957h7.428c1.04.082 2.47.328 4.796.328l1.04-.015c2.074 0 3.247-.22 3.837-.263l.83-.112M16.988 6.133c2.585 0 4.995.104 6.097.263l.733.027c-.205-.37-.31-.532-.55-.88l-.7.06c-.508 0-2.963.263-5.55.263h-1.087c-4.124 0-5.473-.327-6.41-.327H2.243c-.24.35-.397.595-.604.97l6.953-.006c.854-.138 4.787-.475 7.37-.37h1.025M17.545 7.966c2.585 0 5.226.263 5.776.32l1.382.01c-.134-.367-.232-.593-.397-.944l-.975.078c-1.105.06-2.614.294-5.785.294l-2.073.01c-3.023 0-5.27-.292-6.316-.373l-7.95-.005c-.166.353-.27.598-.403.968l7.737-.01c1.13-.117 3.747-.327 6.932-.327l2.073-.02M19.006 2.78c.556.054 1.705.01 1.705.01-.477-.397-.822-.62-1.354-.945H6.158c-.528.32-.953.62-1.428 1.003l8.304-.007c1.115 0 2.26-.427 3.296-.427 1.037 0 2.058.31 2.676.367"/></symbol></svg>