<svg style="display:none" xmlns="http://www.w3.org/2000/svg">
  <defs>
    <linearGradient id="logo-coloplast-care-p1_1_" gradientUnits="userSpaceOnUse" x1="23.2329" y1="22.8638" x2="23.2329" y2="52.7973">
      <stop offset="0" style="stop-color:#CCEFF4" />
      <stop offset="1" style="stop-color:#00B0CA" /> </linearGradient>
    <linearGradient id="logo-coloplast-care-p2_1_" gradientUnits="userSpaceOnUse" x1="8.7671" y1="21.0068" x2="8.7671" y2="51.041">
      <stop offset="0" style="stop-color:#CCEFF4" />
      <stop offset="1" style="stop-color:#00B0CA" /> </linearGradient>
    <linearGradient id="logo-coloplast-care-p3_1_" gradientUnits="userSpaceOnUse" x1="23.6313" y1="17.4238" x2="23.6313" y2="50.4688">
      <stop offset="0" style="stop-color:#CCEFF4" />
      <stop offset="1" style="stop-color:#00B0CA" /> </linearGradient>
    <linearGradient id="logo-coloplast-care-p4_1_" gradientUnits="userSpaceOnUse" x1="17.4595" y1="17.1338" x2="17.4595" y2="49.9393">
      <stop offset="0" style="stop-color:#CCEFF4" />
      <stop offset="1" style="stop-color:#00B0CA" /> </linearGradient>
    <linearGradient id="logo-coloplast-care-p5_1_" gradientUnits="userSpaceOnUse" x1="16.9556" y1="21.5913" x2="16.9556" y2="48.8716">
      <stop offset="0" style="stop-color:#CCEFF4" />
      <stop offset="1" style="stop-color:#00B0CA" /> </linearGradient>
  </defs>
  <symbol viewBox="0 0 12.4 6.773" id="shape-icon-arrow-down">
    <title>icon-arrow-down</title>
    <path d="M0,0.851c0-0.21,0.078-0.421,0.233-0.586c0.323-0.34,0.861-0.354,1.202-0.031L6.2,4.752l4.765-4.519

		c0.341-0.323,0.879-0.309,1.201,0.031c0.324,0.342,0.31,0.88-0.031,1.202L6.785,6.54c-0.328,0.312-0.842,0.312-1.17,0l-5.35-5.073

		C0.089,1.3,0,1.075,0,0.851z" /> </symbol>
  <symbol viewBox="0 0 6.773 12.4" id="shape-icon-arrow-left">
    <title>icon-arrow-left</title>
    <path d="M5.923,12.4c0.21,0,0.421-0.078,0.586-0.233c0.34-0.323,0.354-0.861,0.031-1.202L2.021,6.2L6.54,1.435

		c0.323-0.34,0.309-0.878-0.031-1.201C6.167-0.09,5.629-0.076,5.307,0.265l-5.073,5.35c-0.312,0.328-0.312,0.841,0,1.169l5.073,5.35

		C5.474,12.311,5.698,12.4,5.923,12.4z" /> </symbol>
  <symbol viewBox="0 0 6.773 12.4" id="shape-icon-arrow-right">
    <title>icon-arrow-right</title>
    <path d="M0.851,12.4c-0.21,0-0.421-0.078-0.586-0.233c-0.34-0.323-0.354-0.861-0.031-1.202L4.752,6.2L0.233,1.435

		c-0.323-0.34-0.309-0.878,0.031-1.201c0.342-0.323,0.88-0.309,1.202,0.032l5.073,5.35c0.312,0.328,0.312,0.841,0,1.169l-5.073,5.35

		C1.3,12.311,1.075,12.4,0.851,12.4z" /> </symbol>
  <symbol viewBox="0 0 12.4 6.773" id="shape-icon-arrow-up">
    <title>icon-arrow-up</title>
    <path d="M0,5.923c0,0.21,0.078,0.421,0.233,0.586c0.323,0.34,0.861,0.354,1.202,0.031L6.2,2.021l4.765,4.519

		c0.341,0.323,0.879,0.309,1.201-0.031c0.324-0.342,0.31-0.88-0.031-1.202l-5.35-5.073c-0.328-0.312-0.842-0.312-1.17,0l-5.35,5.073

		C0.089,5.474,0,5.698,0,5.923z" /> </symbol>
  <symbol viewBox="0 0 61.7 57.181" id="shape-icon-box-open">
    <title>icon-box-open</title>
    <path d="M61.563,30.432l-7.324-8.889l7.078-8.56c0.164-0.164,0.246-0.411,0.164-0.658c-0.083-0.247-0.164-0.412-0.411-0.576

	L38.93,0.144c-0.329-0.165-0.741-0.083-0.986,0.164L30.7,9.033l-7.243-8.725c-0.247-0.329-0.659-0.411-0.988-0.164L0.412,11.666

	C0.165,11.749,0,11.996,0,12.243c0,0.246,0,0.493,0.165,0.658L7.49,21.79l-7.161,8.642c-0.164,0.164-0.247,0.411-0.164,0.658

	c0.082,0.247,0.164,0.412,0.411,0.576l7.49,3.951v9.3v0.247c0,0.33,0.165,0.576,0.412,0.741l21.975,11.192

	c0.082,0.083,0.247,0.083,0.329,0.083s0.247,0,0.329-0.083l22.222-11.192c0.247-0.165,0.412-0.411,0.412-0.741v-0.247v-9.3

	l7.49-3.951c0.246-0.082,0.41-0.329,0.41-0.576C61.729,30.843,61.729,30.596,61.563,30.432 M2.058,12.654L22.716,1.872l6.749,8.148

	l-15.308,7.984L8.971,20.72H8.642L2.058,12.654z M8.148,33.724l-5.843-3.045l5.843-7.078l0.823-0.988l0.083-0.082l0.74,0.329

	l19.918,10.37l-0.247,0.329l-2.634,3.21l-3.868,4.692l-2.634-1.4l-1.81-0.904l-8.725-4.527L8.148,33.724z M30.124,55.041

	l-19.589-9.959L9.794,44.67v-1.069v-7.161l6.914,3.621l1.811,0.906l4.279,2.222c0.083,0.082,0.247,0.082,0.412,0.082

	c0.247,0,0.494-0.082,0.658-0.329l6.42-7.736v19.836H30.124z M38.766,1.872l20.658,10.782l-6.584,7.901L32.017,10.02L38.766,1.872z

	 M52.099,43.601v1.069l-0.741,0.412L31.77,55.041V35.288l6.419,7.735c0.165,0.165,0.412,0.33,0.659,0.33

	c0.164,0,0.247,0,0.411-0.083l4.28-2.222l1.811-0.905l6.914-3.622v7.079H52.099z M53.745,33.724l-1.646,0.823l-8.724,4.527

	l-1.812,0.904l-2.634,1.399l-3.868-4.691l-2.634-3.128l-0.164-0.247L52.099,22.86l0.411-0.247c0.083,0,0.165,0.082,0.247,0.082

	h0.165l0.823,0.988l5.844,7.078L53.745,33.724z" /> </symbol>
  <symbol viewBox="0 0 27.9 62.167" id="shape-icon-gender-female">
    <title>icon-gender-female</title>
    <g>
      <circle cx="13.95" cy="7.25" r="7.25" />
      <path d="M27.681,41.901l-8.257-23.039c-0.741-2.071-3.148-3.765-5.349-3.765h-0.249c-2.2,0-4.608,1.694-5.35,3.765

		L0.22,41.901c-0.742,2.071,0.451,3.767,2.651,3.767h5.825c-0.01,0.187-0.023,0.372-0.006,0.565l1.095,11.95

		c0.201,2.191,2.075,3.983,4.166,3.983c2.091,0,3.965-1.792,4.166-3.983l1.095-11.95c0.018-0.193,0.004-0.379-0.006-0.565h5.824

		C27.229,45.667,28.422,43.972,27.681,41.901z" /> </g>
  </symbol>
  <symbol viewBox="0 0 27.59 65.167" id="shape-icon-gender-male">
    <title>icon-gender-male</title>
    <path id="icon-gender-male-fill" d="M6.545,8.25c0-4.004,3.246-7.25,7.25-7.25s7.25,3.246,7.25,7.25s-3.246,7.25-7.25,7.25S6.545,12.254,6.545,8.25z

	 M24.71,20.222c-4.228-3.875-10.915-4.125-10.915-4.125s-6.688,0.25-10.916,4.125s0,20.375,0,20.375s0.946,2.59,3.928,1.339l0,0

	L7.37,60.169c0.063,2.038,1.661,3.732,3.647,3.97l0.476,0.028c2.168-0.021,2.302-2.375,2.302-2.375s-0.062,2.396,2.302,2.375

	l0.001-0.001c2.199,0,4.055-1.799,4.123-3.998l0.581-18.855c2.25,2.396,3.908-0.715,3.908-0.715S28.939,24.097,24.71,20.222z" />
    <g id="icon-gender-male-stroke">
      <circle stroke-miterlimit="10" cx="13.795" cy="8.25" r="7.25" />
      <path stroke-miterlimit="10" d="M6.808,41.937c-2.982,1.251-3.928-1.339-3.928-1.339

		s-4.228-16.5,0-20.375s10.916-4.125,10.916-4.125s6.688,0.25,10.915,4.125c4.229,3.875,0,20.375,0,20.375s-1.658,3.111-3.908,0.715

		" />
      <path stroke-miterlimit="10" d="M13.795,39.916v21.876c0,0-0.134,2.354-2.302,2.375l-0.476-0.028

		c-1.986-0.237-3.584-1.932-3.647-3.97L6.397,28.624c0,0,0.187-1.957-1.063-2.04" />
      <path stroke-miterlimit="10" d="M22.417,26.583c-1.167,0-1.224,2.04-1.224,2.04l-0.973,31.544

		c-0.068,2.199-1.924,3.998-4.123,3.998" />
      <path stroke-miterlimit="10" d="M13.795,61.792c0,0-0.062,2.396,2.302,2.375" />
      <line stroke-miterlimit="10" x1="16.451" y1="64.167" x2="15.795" y2="64.167" /> </g>
  </symbol>
  <symbol viewBox="0 0 51 47" id="shape-icon-navbars">
    <title>icon-navbars</title>
    <rect x="375" y="277" width="51" height="9" />
    <rect x="375" y="296" width="51" height="9" />
    <rect x="375" y="315" width="51" height="9" />
    <rect width="51" height="8" />
    <rect y="39" width="51" height="8" />
    <rect y="19.5" width="51" height="8" /> </symbol>
  <symbol viewBox="0 0 34.329 48.378" id="shape-icon-phone-outline">
    <title>icon-phone-outline</title>
    <path d="M32.915,4.144C32.865,4.102,27.576,0,24.974,0c-0.258,0-0.5,0.035-0.738,0.111C17.338,2.303,11.099,11.365,7.079,18.583

	c-5.84,10.489-8.085,18.666-6.665,24.333c0.653,2.588,7.923,5.205,7.995,5.229c0.447,0.155,0.897,0.233,1.341,0.233

	c1.349,0,2.508-0.732,2.884-1.821c0.256-0.739,2.834-8.806,3.113-9.797c0.289-1.041-0.152-2.305-1.176-3.376

	c-0.514-0.541-2.111-2.109-2.964-2.946c0.385-1.078,1.362-3.496,3.521-7.375c2.159-3.88,3.7-5.985,4.413-6.879

	c1.161,0.285,3.337,0.816,4.062,0.964c1.441,0.308,2.785,0.016,3.515-0.793c0.64-0.722,6.162-7.138,6.69-7.806

	C34.651,7.469,34.551,5.479,32.915,4.144 M31.866,7.024c-0.467,0.59-5.905,6.913-6.579,7.674c-0.052,0.043-0.553,0.167-1.181,0.034

	c-0.945-0.194-4.68-1.118-4.718-1.128l-0.695-0.171l-0.494,0.516c-0.08,0.085-2.014,2.134-5.231,7.916

	c-3.216,5.779-3.939,8.5-3.968,8.612l-0.18,0.694l0.513,0.5c0.027,0.027,2.78,2.713,3.45,3.418c0.47,0.491,0.596,0.91,0.584,1.009

	c-0.271,0.964-2.854,9.037-3.054,9.622c-0.038,0.059-0.507,0.299-1.097,0.091c-2.12-0.73-6.018-2.722-6.414-3.522

	c-1.564-6.241,2.635-15.684,6.434-22.505c3.801-6.826,9.618-15.37,15.737-17.314c1.146,0,4.875,2.36,6.38,3.587

	C31.923,6.521,31.877,6.985,31.866,7.024" /> </symbol>
  <symbol viewBox="0 0 64.64 67.81" id="shape-icon-search">
    <title>icon-search</title>
    <path d="M62.572,55.473L51.021,43.918c3.138-4.52,4.982-10.009,4.982-15.919C56.003,12.559,43.439,0,28,0C12.56,0,0,12.559,0,27.999

	c0,15.444,12.56,28.002,28,28.002c4.254,0,8.288-0.955,11.903-2.661l12.401,12.403c1.337,1.332,3.122,2.066,5.02,2.066

	c1.946,0,3.782-0.765,5.17-2.149C65.323,62.83,65.358,58.256,62.572,55.473 M11.199,27.999c0-9.263,7.538-16.801,16.801-16.801

	c9.264,0,16.802,7.538,16.802,16.801c0,9.267-7.538,16.804-16.802,16.804C18.737,44.803,11.199,37.266,11.199,27.999" /> </symbol>
  <symbol viewBox="0 0 127.016 53.487" id="shape-logo-coloplast-care">
    <title>logo-coloplast-care</title>
    <g id="logo-coloplast-care-text">
      <path d="M117.911,2.762c0,1.556-1.199,2.766-2.768,2.766s-2.766-1.21-2.766-2.766c0-1.551,1.197-2.762,2.766-2.762

		S117.911,1.211,117.911,2.762 M112.808,2.762c0,1.323,0.991,2.375,2.336,2.375c1.33,0,2.335-1.052,2.335-2.375

		c0-1.324-1.005-2.371-2.335-2.371C113.799,0.391,112.808,1.438,112.808,2.762 M114.531,4.363h-0.391V1.164h1.226

		c0.72,0,1.038,0.312,1.038,0.885c0,0.566-0.362,0.811-0.799,0.892l0.949,1.422h-0.46l-0.898-1.422h-0.665V4.363z M115.057,2.607

		c0.479,0,0.952-0.016,0.952-0.558c0-0.445-0.367-0.549-0.755-0.549h-0.723v1.107H115.057z" />
      <path d="M48.009,4.648c-0.438-2.012-2.104-3.166-4.006-3.166c-3.459,0-4.921,2.893-4.921,5.746

		c0,2.854,1.462,5.745,4.921,5.745c2.417,0,3.953-1.867,4.189-4.19h1.245c-0.346,3.22-2.378,5.25-5.434,5.25

		c-4.118,0-6.165-3.219-6.165-6.805s2.047-6.806,6.165-6.806c2.489,0,4.903,1.5,5.251,4.226H48.009z" />
      <path d="M59.576,9.04c0,2.707-1.593,4.994-4.465,4.994s-4.462-2.287-4.462-4.994c0-2.708,1.59-4.994,4.462-4.994

		S59.576,6.332,59.576,9.04 M51.801,9.04c0,1.993,1.116,4.026,3.31,4.026c2.197,0,3.313-2.033,3.313-4.026

		c0-1.994-1.116-4.026-3.313-4.026C52.917,5.014,51.801,7.045,51.801,9.04" />
      <rect x="61.316" y="0.698" width="1.152" height="13.062" />
      <path d="M73.137,9.04c0,2.707-1.593,4.994-4.463,4.994c-2.873,0-4.468-2.287-4.468-4.994

		c0-2.708,1.595-4.994,4.468-4.994C71.544,4.045,73.137,6.332,73.137,9.04 M65.36,9.04c0,1.993,1.116,4.026,3.313,4.026

		c2.19,0,3.311-2.033,3.311-4.026c0-1.994-1.12-4.026-3.311-4.026C66.477,5.014,65.36,7.045,65.36,9.04" />
      <path d="M74.859,4.319h1.062v1.794h0.036c0.529-1.299,1.828-2.067,3.366-2.067c2.873,0,4.243,2.303,4.243,4.994

		c0,2.689-1.37,4.994-4.243,4.994c-1.391,0-2.782-0.696-3.276-2.068h-0.036v5.288h-1.151V4.319z M79.323,5.014

		c-2.562,0-3.312,1.885-3.312,4.026c0,1.957,0.878,4.026,3.312,4.026c2.194,0,3.091-2.069,3.091-4.026

		C82.414,7.081,81.518,5.014,79.323,5.014" />
      <rect x="85.38" y="0.697" width="1.153" height="13.063" />
      <path d="M88.637,7.21c0.131-2.215,1.648-3.165,3.825-3.165c1.663,0,3.475,0.494,3.475,3.035v5.013

		c0,0.458,0.222,0.695,0.679,0.695c0.127,0,0.237-0.018,0.365-0.072v0.97c-0.274,0.055-0.438,0.074-0.751,0.074

		c-1.17,0-1.354-0.679-1.354-1.647h-0.037c-0.822,1.224-1.608,1.92-3.438,1.92c-1.756,0-3.166-0.86-3.166-2.762

		c0-2.634,2.58-2.746,5.069-3.037c0.949-0.093,1.48-0.255,1.48-1.282c0-1.554-1.096-1.939-2.468-1.939

		c-1.445,0-2.471,0.659-2.526,2.197H88.637z M94.785,8.599h-0.036c-0.146,0.277-0.657,0.367-0.97,0.422

		c-1.958,0.347-4.393,0.347-4.393,2.177c0,1.153,1.011,1.868,2.106,1.868c1.774,0,3.292-1.117,3.292-2.967V8.599z" />
      <path d="M103.9,7.081c-0.056-1.426-1.154-2.067-2.471-2.067c-1.023,0-2.233,0.403-2.233,1.628

		c0,1.006,1.153,1.392,1.959,1.593l1.537,0.347c1.314,0.202,2.687,0.97,2.687,2.616c0,2.048-2.029,2.836-3.785,2.836

		c-2.215,0-3.677-1.006-3.878-3.329h1.152c0.092,1.555,1.245,2.361,2.782,2.361c1.096,0,2.579-0.477,2.579-1.794

		c0-1.097-1.024-1.462-2.067-1.72l-1.481-0.329c-1.501-0.386-2.636-0.932-2.636-2.525c0-1.92,1.884-2.652,3.549-2.652

		c1.903,0,3.369,0.986,3.457,3.035H103.9z" />
      <path d="M108.874,4.318h1.926V5.29h-1.926v6.368c0,0.748,0.115,1.188,0.938,1.243c0.329,0,0.658-0.019,0.988-0.055

		v0.986c-0.35,0-0.68,0.039-1.026,0.039c-1.537,0-2.066-0.513-2.047-2.124V5.29h-1.647V4.318h1.647V1.483h1.147V4.318z" />
      <path d="M61.143,28.857c-1.113-5.102-5.333-8.023-10.157-8.023c-8.766,0-12.477,7.328-12.477,14.563

		s3.711,14.564,12.477,14.564c6.122,0,10.018-4.731,10.621-10.622h3.154c-0.882,8.164-6.03,13.311-13.774,13.311

		c-10.436,0-15.631-8.162-15.631-17.253s5.195-17.254,15.631-17.254c6.308,0,12.429,3.804,13.312,10.714H61.143z" />
      <path d="M68.749,35.351c0.325-5.612,4.175-8.024,9.694-8.024c4.221,0,8.813,1.253,8.813,7.699v12.708

		c0,1.16,0.557,1.763,1.716,1.763c0.325,0,0.604-0.046,0.928-0.186v2.459c-0.696,0.139-1.114,0.185-1.902,0.185

		c-2.969,0-3.433-1.715-3.433-4.174h-0.093c-2.086,3.107-4.081,4.869-8.72,4.869c-4.452,0-8.023-2.179-8.023-7.002

		c0-6.68,6.54-6.958,12.848-7.699c2.412-0.232,3.758-0.649,3.758-3.247c0-3.942-2.784-4.917-6.263-4.917

		c-3.664,0-6.262,1.67-6.4,5.566H68.749z M84.335,38.875H84.24c-0.37,0.697-1.668,0.929-2.458,1.068

		c-4.963,0.881-11.132,0.881-11.132,5.52c0,2.922,2.552,4.73,5.334,4.73c4.5,0,8.351-2.83,8.351-7.514V38.875z" />
      <path d="M93.1,28.023h2.691v5.611h0.093c1.483-3.896,4.73-6.122,9.044-5.936v2.921

		c-5.288-0.231-8.905,3.571-8.905,8.581v12.754H93.1V28.023z" />
      <path d="M108.591,40.777c0,4.268,2.319,9.416,7.885,9.416c4.268,0,6.587-2.459,7.515-6.123h2.922

		c-1.252,5.427-4.36,8.58-10.437,8.58c-7.605,0-10.806-5.843-10.806-12.661c0-6.308,3.2-12.662,10.806-12.662

		c7.653,0,10.762,6.726,10.528,13.45H108.591z M124.082,38.319c-0.14-4.405-2.922-8.534-7.606-8.534

		c-4.823,0-7.374,4.174-7.885,8.534H124.082z" /> </g>
    <path id="logo-coloplast-care-p1" d="M10.891,50.596c1.047,2.584,23.483,2.891,24.7,0c1.216-2.889-4.674-8.498-12.362-8.498

	C15.762,42.098,9.58,47.358,10.891,50.596z" />
    <path id="logo-coloplast-care-p2" d="M17.422,39.904c0.853-2.117-3.274-6.227-8.659-6.227c-4.734,0-8.729,3.157-8.763,5.517v0.06

	c0.003,0.226,0.043,0.444,0.123,0.65c0.378,0.97,4.713,1.502,8.953,1.502C13.083,41.406,17.008,40.931,17.422,39.904z" />
    <path id="logo-coloplast-care-p3" d="M23.639,21.555c-3.001-0.002-5.309,1.712-4.835,2.597c0.472,0.882,9.234,0.795,9.646,0.006

	C28.966,23.167,26.556,21.555,23.639,21.555z" />
    <path id="logo-coloplast-care-p4" d="M17.468,18.143c-2.363-0.002-4.18,1.226-3.809,1.857c0.374,0.631,7.271,0.567,7.594,0.003

	C21.659,19.293,19.764,18.144,17.468,18.143z" />
    <path id="logo-coloplast-care-p5" d="M10.152,30.798c0.64,1.456,12.978,1.579,13.58,0.304c0.754-1.602-2.59-4.302-6.697-4.394

	c-0.071-0.001-0.143-0.002-0.214-0.002C12.699,26.707,9.524,29.367,10.152,30.798z" /> </symbol>
  <symbol viewBox="0 0 114 26" id="shape-logo-coloplast">
    <title>logo-coloplast</title>
    <g id="logo-coloplast-text">
      <path d="M44.447,14.011l-0.025,0.248c-0.302,3.188-2.625,5.249-5.92,5.249c-1.906,0-3.541-0.628-4.729-1.814

		c-1.202-1.202-1.863-2.913-1.863-4.819c0-2.005,0.644-3.708,1.861-4.926c1.185-1.185,2.821-1.812,4.73-1.812

		c3.14,0,5.475,1.863,5.81,4.638l0.031,0.251l-3.207,0.001l-0.028-0.192c-0.163-1.102-1.308-1.966-2.605-1.966

		c-0.917,0-1.662,0.281-2.217,0.834c-0.693,0.694-1.075,1.82-1.075,3.172c0,1.289,0.377,2.376,1.062,3.062

		c0.558,0.559,1.308,0.842,2.23,0.842c1.506,0,2.509-0.947,2.727-2.579l0.013-0.185L44.447,14.011" />
      <path d="M50.305,9.553c1.533,0,2.826,0.481,3.738,1.396c0.882,0.882,1.348,2.108,1.348,3.547

		c0,1.43-0.465,2.649-1.344,3.528c-0.914,0.912-2.208,1.396-3.742,1.396c-1.525,0-2.813-0.481-3.724-1.394

		c-0.88-0.881-1.346-2.102-1.346-3.531c0-1.452,0.464-2.683,1.341-3.56C47.48,10.03,48.77,9.553,50.305,9.553 M48.94,16.615

		c0.333,0.334,0.792,0.503,1.364,0.503c0.575,0,1.04-0.173,1.381-0.515c0.56-0.56,0.677-1.457,0.677-2.109

		c0-0.665-0.117-1.574-0.677-2.135c-0.336-0.336-0.801-0.506-1.381-0.506c-0.572,0-1.03,0.168-1.362,0.501

		c-0.561,0.561-0.679,1.473-0.679,2.14C48.264,15.152,48.381,16.057,48.94,16.615z" />
      <path d="M65.584,9.553c1.532,0,2.825,0.481,3.736,1.396c0.883,0.882,1.35,2.108,1.35,3.547

		c0,1.43-0.466,2.649-1.345,3.528c-0.913,0.912-2.208,1.396-3.741,1.396c-1.525,0-2.812-0.481-3.725-1.394

		c-0.879-0.881-1.346-2.102-1.346-3.531c0-1.452,0.465-2.683,1.342-3.56C62.76,10.03,64.049,9.553,65.584,9.553 M64.221,16.615

		c0.332,0.334,0.791,0.503,1.363,0.503c0.575,0,1.04-0.173,1.381-0.515c0.561-0.56,0.678-1.457,0.678-2.109

		c0-0.665-0.117-1.574-0.678-2.135c-0.336-0.336-0.802-0.506-1.381-0.506c-0.57,0-1.029,0.168-1.361,0.501

		c-0.562,0.561-0.68,1.473-0.68,2.14C63.543,15.152,63.659,16.057,64.221,16.615z" />
      <rect x="56.439" y="6.407" width="3.028" height="12.784" />
      <rect x="82.729" y="6.407" width="3.026" height="12.784" />
      <path d="M111.621,11.881h1.887V9.786l-1.887,0.001v-2.68h-3.027v2.68l-1.56-0.001l-0.002,2.095h1.562v5.042

		c0,0.683,0.194,1.224,0.578,1.606c0.667,0.666,1.807,0.744,2.604,0.744c0.66,0,1.164-0.029,1.541-0.09l0.191-0.029V16.77

		l-0.27,0.051c-0.235,0.046-0.469,0.065-0.756,0.065c-0.394,0-0.615-0.046-0.719-0.149c-0.1-0.098-0.144-0.303-0.144-0.66

		L111.621,11.881" />
      <path d="M74.746,22.312l-3.029,0.002l0.004-0.227V9.786v0.001h2.586l0.31,0.711l0.019,0.042l0.031-0.031

		c0.637-0.63,1.521-0.963,2.559-0.963c1.27,0,2.312,0.398,3.098,1.184c0.896,0.896,1.391,2.262,1.391,3.844

		c0,1.459-0.502,2.797-1.378,3.673c-0.765,0.763-1.788,1.165-2.966,1.165c-0.995,0-1.906-0.339-2.568-0.955l-0.053-0.048v3.903

		 M78.684,14.505c0-0.915-0.262-1.701-0.717-2.156c-0.333-0.333-0.771-0.502-1.307-0.502c-0.547,0-0.988,0.165-1.314,0.492

		c-0.445,0.443-0.689,1.213-0.689,2.166c0,0.918,0.242,1.666,0.684,2.104c0.332,0.332,0.782,0.502,1.34,0.502

		c0.555,0,1.002-0.168,1.334-0.498C78.566,16.059,78.684,15.16,78.684,14.505z" />
      <path d="M96.822,19.171l-2.57,0.001l-0.343-0.808l0.002-0.077l-0.054,0.056c-0.658,0.681-1.637,1.068-2.685,1.068

		c-1.178,0-2.202-0.402-2.964-1.165c-0.876-0.876-1.379-2.214-1.379-3.673c0-1.582,0.493-2.947,1.391-3.844

		c0.785-0.785,1.827-1.184,3.098-1.184c1.037,0,1.92,0.333,2.558,0.963l0.031,0.031l0.325-0.753l2.59-0.001V19.171 M91.863,17.111

		c0.558,0,1.007-0.17,1.34-0.502c0.439-0.438,0.684-1.188,0.684-2.104c0-0.953-0.246-1.723-0.689-2.166

		c-0.326-0.327-0.77-0.492-1.314-0.492c-0.533,0-0.975,0.169-1.308,0.502c-0.455,0.455-0.716,1.241-0.716,2.156

		c0,0.655,0.117,1.554,0.67,2.108C90.859,16.943,91.311,17.111,91.863,17.111z" />
      <path d="M100.779,16.318c0.209,0.928,1.365,1,1.718,1c0.144,0,0.877-0.02,1.248-0.392

		c0.142-0.142,0.214-0.317,0.214-0.522c0-0.557-1.036-0.811-2.741-1.16c-1.022-0.214-3.153-0.66-3.153-2.604

		c0-0.821,0.258-1.495,0.766-2.003c0.725-0.725,1.915-1.091,3.541-1.091c2.632,0,4.136,1.026,4.354,2.971l-2.91-0.02

		c-0.062-0.377-0.301-0.857-1.515-0.857c-0.669,0-0.957,0.146-1.079,0.27c-0.088,0.087-0.128,0.192-0.128,0.333

		c0,0.553,0.94,0.741,2.03,0.96c0.23,0.047,0.47,0.096,0.712,0.148c1.022,0.224,3.151,0.688,3.151,2.726

		c0,0.876-0.279,1.603-0.834,2.153c-0.977,0.977-2.536,1.182-3.672,1.182c-1.369,0-2.469-0.276-3.269-0.821

		c-0.787-0.538-1.239-1.308-1.347-2.286L100.779,16.318" /> </g>
    <g id="logo-coloplast-sphere">
      <path d="M20.466,12.785c-1.716,0-2.944,0.421-3.981,0.421c-1.037,0-2.391-0.373-3.217-0.373H0

		c0,7.045,5.705,12.771,12.749,12.771s12.765-5.773,12.765-12.817C25.514,12.785,21.491,12.785,20.466,12.785" />
      <path d="M17.716,1.011C16.138,0.312,14.423,0,12.757,0c-1.842,0-3.394,0.309-4.975,1.011H17.716" />
      <path d="M15.979,11.625c-2.073,0-4.795,0.382-5.656,0.382h-10.3c0.021-0.366,0.052-0.662,0.104-1.02h9.893

		c1.064,0.066,2.942,0.387,5.96,0.387l1.056,0.006c3.312,0,4.618-0.344,5.238-0.344l3.114-0.047c0.05,0.355,0.081,0.641,0.101,1.005

		l-3.72-0.021c-0.941,0-2.691-0.365-4.763-0.365L15.979,11.625" />
      <path d="M17.496,9.814c2.585,0,4.356,0.321,5.382,0.321l2.359,0.003c-0.074-0.367-0.14-0.618-0.245-0.974

		l-1.755,0.017c-0.58,0.09-2.986,0.442-5.726,0.382l-2.072,0.021c-2.124,0.024-5.03-0.247-6.31-0.408H0.52

		C0.415,9.529,0.343,9.804,0.269,10.17l8.56-0.003c0.509,0,4.054-0.348,6.627-0.348L17.496,9.814" />
      <path d="M21.687,3.658c0.344,0.341,0.569,0.571,0.873,0.949l-0.645-0.055c-1.088-0.065-2.325-0.271-4.91-0.271

		L15.98,4.277c-3.002,0-5.474,0.399-6.211,0.399H2.888C3.19,4.299,3.411,4.072,3.756,3.72h7.428c1.04,0.082,2.469,0.328,4.796,0.328

		l1.041-0.015c2.073,0,3.246-0.22,3.836-0.263L21.687,3.658" />
      <path d="M16.988,6.133c2.585,0,4.995,0.104,6.097,0.263l0.733,0.027c-0.205-0.371-0.309-0.532-0.549-0.879

		l-0.7,0.059c-0.509,0-2.964,0.263-5.55,0.263h-1.088c-4.125,0-5.474-0.327-6.411-0.327H2.243c-0.241,0.352-0.397,0.596-0.604,0.97

		l6.954-0.005c0.854-0.138,4.787-0.475,7.371-0.371H16.988" />
      <path d="M17.545,7.966c2.585,0,5.226,0.263,5.776,0.32l1.381,0.011c-0.134-0.368-0.232-0.594-0.397-0.945

		L23.33,7.43c-1.105,0.06-2.614,0.294-5.785,0.294l-2.073,0.011c-3.023,0-5.271-0.293-6.316-0.374l-7.95-0.006

		C1.04,7.708,0.937,7.953,0.803,8.323L8.54,8.314c1.131-0.118,3.747-0.328,6.932-0.328L17.545,7.966" />
      <path d="M19.006,2.78c0.556,0.054,1.705,0.009,1.705,0.009c-0.478-0.396-0.823-0.62-1.355-0.944H6.158

		C5.63,2.166,5.205,2.466,4.73,2.848l8.304-0.007c1.115,0,2.26-0.428,3.296-0.428C17.367,2.413,18.388,2.723,19.006,2.78" /> </g>
  </symbol>
</svg>