<?xml version="1.0" encoding="utf-8"?>
<!-- Generator: Adobe Illustrator 15.0.2, SVG Export Plug-In . SVG Version: 6.00 Build 0)  -->
<!DOCTYPE svg PUBLIC "-//W3C//DTD SVG 1.1//EN" "http://www.w3.org/Graphics/SVG/1.1/DTD/svg11.dtd">
<svg version="1.1" id="Layer_1" xmlns="http://www.w3.org/2000/svg" xmlns:xlink="http://www.w3.org/1999/xlink" x="0px" y="0px"
	 width="16px" height="16px" viewBox="50.921 50.921 16 16" enable-background="new 50.921 50.921 16 16" xml:space="preserve">
<path d="M60.354,58.899l6.222-6.221c0.402-0.402,0.402-1.054,0-1.455c-0.401-0.402-1.053-0.402-1.455,0l-6.222,6.222l-6.221-6.222
	c-0.402-0.402-1.054-0.402-1.456,0c-0.402,0.401-0.402,1.053,0,1.455l6.222,6.221l-6.222,6.222c-0.402,0.401-0.402,1.053,0,1.454
	c0.402,0.402,1.054,0.402,1.456,0l6.221-6.223l6.222,6.223c0.402,0.402,1.054,0.402,1.455,0c0.402-0.401,0.402-1.053,0-1.454
	L60.354,58.899z"/>
</svg>
