<?xml version="1.0" encoding="utf-8"?>
<!-- Generator: Adobe Illustrator 15.0.2, SVG Export Plug-In . SVG Version: 6.00 Build 0)  -->
<!DOCTYPE svg PUBLIC "-//W3C//DTD SVG 1.1//EN" "http://www.w3.org/Graphics/SVG/1.1/DTD/svg11.dtd">
<svg version="1.1" id="Layer_1" xmlns="http://www.w3.org/2000/svg" xmlns:xlink="http://www.w3.org/1999/xlink" x="0px" y="0px"
	 width="27.59px" height="65.167px" viewBox="0 0 27.59 65.167" enable-background="new 0 0 27.59 65.167" xml:space="preserve">
<path d="M25.049,19.854c-3.001-2.751-7.123-3.728-9.464-4.071c3.411-0.811,5.96-3.876,5.96-7.533c0-4.273-3.477-7.75-7.75-7.75
	s-7.75,3.477-7.75,7.75c0,3.655,2.546,6.72,5.957,7.532c-2.327,0.343-6.455,1.318-9.459,4.072C-1.856,23.886,2.22,40.037,2.41,40.77
	c0.019,0.05,0.463,1.236,1.67,1.763c0.377,0.165,0.781,0.247,1.209,0.247c0.33,0,0.68-0.066,1.038-0.163L6.87,60.185
	c0.07,2.268,1.828,4.181,4.117,4.453l0.511,0.029c1.127-0.011,1.827-0.561,2.25-1.219c0.098,0.163,0.209,0.324,0.354,0.472
	c0.431,0.438,1.003,0.674,1.693,0.726v0.021h0.272c0.012,0,0.023,0,0.034,0h0.35V64.63c2.312-0.184,4.196-2.096,4.27-4.447
	l0.551-17.857c0.5,0.305,1.012,0.443,1.529,0.375c1.442-0.191,2.315-1.799,2.352-1.867l0.043-0.111
	C25.371,40.037,29.447,23.886,25.049,19.854z"/>
</svg>
