<?xml version="1.0" encoding="utf-8"?>
<!-- Generator: Adobe Illustrator 15.0.2, SVG Export Plug-In . SVG Version: 6.00 Build 0)  -->
<!DOCTYPE svg PUBLIC "-//W3C//DTD SVG 1.1//EN" "http://www.w3.org/Graphics/SVG/1.1/DTD/svg11.dtd">
<svg version="1.1" id="Layer_1" xmlns="http://www.w3.org/2000/svg" xmlns:xlink="http://www.w3.org/1999/xlink" x="0px" y="0px"
	 width="15.264px" height="16px" viewBox="24.32 25.905 15.264 16" enable-background="new 24.32 25.905 15.264 16"
	 xml:space="preserve">
<path d="M39.095,39.005l-2.727-2.729c0.74-1.065,1.176-2.363,1.176-3.759c0-3.646-2.967-6.611-6.613-6.611
	c-3.646,0-6.612,2.966-6.612,6.611c0,3.648,2.966,6.612,6.612,6.612c1.005,0,1.957-0.225,2.811-0.629l2.928,2.93
	c0.316,0.315,0.738,0.488,1.186,0.488c0.46,0,0.894-0.181,1.222-0.507C39.746,40.742,39.754,39.661,39.095,39.005 M26.965,32.516
	c0-2.187,1.78-3.967,3.967-3.967c2.188,0,3.968,1.78,3.968,3.967c0,2.188-1.78,3.969-3.968,3.969
	C28.744,36.485,26.965,34.705,26.965,32.516"/>
</svg>
