<?xml version="1.0" encoding="utf-8"?>
<!-- Generator: Adobe Illustrator 15.0.2, SVG Export Plug-In . SVG Version: 6.00 Build 0)  -->
<!DOCTYPE svg PUBLIC "-//W3C//DTD SVG 1.1//EN" "http://www.w3.org/Graphics/SVG/1.1/DTD/svg11.dtd">
<svg version="1.1" id="Layer_1" xmlns="http://www.w3.org/2000/svg" xmlns:xlink="http://www.w3.org/1999/xlink" x="0px" y="0px"
	 width="361.385px" height="289.342px" viewBox="0 0 361.385 289.342" enable-background="new 0 0 361.385 289.342"
	 xml:space="preserve">
<path fill-rule="evenodd" clip-rule="evenodd" d="M253.385,95.75c0-19.667,0-39.333,0-59c-72,0-144,0-216,0
	c0,71.667,0,143.333,0,215c70,2.333,144.333,0.333,216,1c1.72-13.792-2.397-24.051,0-34c1.938-8.04,12.373-14.373,18-20
	c6.952-6.952,11.821-14.056,18-17c-3.645,33.344,8.121,78.367-8,96c-14.115,15.438-51.017,11-84,11c-39.81,0-80.301,0-124,0
	c-25.994,0-51.072,1.929-62-9c-16.874-16.874-10-84.625-10-125c0-22.839,0-46.633,0-68c0-28.545-3.857-62.031,8-75
	c14.663-16.038,50.086-11,84-11c38.332,0,78.237,0,120,0c25.4,0,53.157-2.828,65,8c8.216,7.511,15.712,30.448,11,50
	c-1.775,7.369-12.05,14.049-18,20C264.381,85.754,259.447,92.908,253.385,95.75z"/>
<path fill-rule="evenodd" clip-rule="evenodd" d="M361.385,73.75c-8.084,7.25-15.75,14.917-23,23c-9.913-6.086-15.919-16.082-25-23
	c6.087-9.914,16.082-15.918,23-25C345.967,55.834,354.301,64.167,361.385,73.75z"/>
<path fill-rule="evenodd" clip-rule="evenodd" d="M217.385,60.75c0,8,0,16,0,24c-48,0-96,0-144,0c0.659-7.675-1.323-17.989,1-24
	C122.052,60.75,169.719,60.75,217.385,60.75z"/>
<path fill-rule="evenodd" clip-rule="evenodd" d="M325.385,107.75c-31.083,33.583-63.417,65.917-97,97
	c-7.25-8.084-14.916-15.75-23-23c30.083-33.917,64.083-63.917,95-97C310.298,90.836,316.303,100.832,325.385,107.75z"/>
<path fill-rule="evenodd" clip-rule="evenodd" d="M217.385,108.75c0,8,0,16,0,24c-48,0-96,0-144,0c0.659-7.675-1.323-17.989,1-24
	C122.052,108.75,169.719,108.75,217.385,108.75z"/>
<path fill-rule="evenodd" clip-rule="evenodd" d="M181.385,156.75c0,8,0,16,0,24c-36,0-72,0-108,0c0.659-7.675-1.323-17.989,1-24
	C110.052,156.75,145.719,156.75,181.385,156.75z"/>
<path fill-rule="evenodd" clip-rule="evenodd" d="M217.385,215.75c-2.604,5.73-7.732,8.934-12,13c-8,0-16,0-24,0
	c1.267-8.715-1.755-16.603,0-23c1.776-6.477,8.753-7.929,11-13C202.298,198.837,208.304,208.832,217.385,215.75z"/>
<path fill-rule="evenodd" clip-rule="evenodd" d="M145.385,204.75c0,8,0,16,0,24c-24,0-48,0-72,0c0-8,0-16,0-24
	C97.385,204.75,121.385,204.75,145.385,204.75z"/>
</svg>
