<?xml version="1.0" encoding="utf-8"?>
<!-- Generator: Adobe Illustrator 15.0.2, SVG Export Plug-In . SVG Version: 6.00 Build 0)  -->
<!DOCTYPE svg PUBLIC "-//W3C//DTD SVG 1.1//EN" "http://www.w3.org/Graphics/SVG/1.1/DTD/svg11.dtd">
<svg version="1.1" id="Layer_1" xmlns="http://www.w3.org/2000/svg" xmlns:xlink="http://www.w3.org/1999/xlink" x="0px" y="0px"
	 width="32px" height="32px" viewBox="384 284 32 32" enable-background="new 384 284 32 32" xml:space="preserve">
<path d="M409.675,300c0,5.344-4.333,9.674-9.675,9.674c-5.343,0-9.674-4.33-9.674-9.674c0-0.637,0.063-1.258,0.182-1.86H384v12.859
	c0,2.761,2.237,5.001,5,5.001h21.998c2.763,0,5.002-2.238,5.002-5.001V298.14h-6.506C409.611,298.742,409.675,299.363,409.675,300
	 M410.998,284H389c-2.762,0-5.001,2.24-5.001,5.001v5.417h8.101c1.75-2.474,4.636-4.092,7.899-4.092c3.264,0,6.149,1.618,7.9,4.092
	H416v-5.417C416,286.24,413.761,284,410.998,284 M413.445,290.177c0,0.493-0.402,0.894-0.894,0.894h-2.678
	c-0.49,0-0.893-0.402-0.893-0.894v-2.679c0-0.493,0.403-0.894,0.893-0.894h2.678c0.492,0,0.894,0.402,0.894,0.894V290.177z
	 M405.953,300c0-3.289-2.666-5.953-5.954-5.953c-3.287,0-5.953,2.664-5.953,5.953s2.666,5.953,5.953,5.953
	C403.287,305.953,405.953,303.289,405.953,300"/>
</svg>
