<?xml version="1.0" encoding="utf-8"?>
<!-- Generator: Adobe Illustrator 15.0.2, SVG Export Plug-In . SVG Version: 6.00 Build 0)  -->
<!DOCTYPE svg PUBLIC "-//W3C//DTD SVG 1.1//EN" "http://www.w3.org/Graphics/SVG/1.1/DTD/svg11.dtd">
<svg version="1.1" id="Layer_1" xmlns="http://www.w3.org/2000/svg" xmlns:xlink="http://www.w3.org/1999/xlink" x="0px" y="0px"
	 width="32px" height="32px" viewBox="0 0 32 32" enable-background="new 0 0 32 32" xml:space="preserve">
<path d="M28.543,8.22c-0.923,0.409-1.913,0.686-2.957,0.811c1.063-0.638,1.88-1.646,2.266-2.847
	c-0.996,0.589-2.099,1.018-3.268,1.249c-0.94-1-2.278-1.626-3.76-1.626c-2.842,0-5.146,2.305-5.146,5.147
	c0,0.403,0.045,0.796,0.133,1.173c-4.277-0.215-8.07-2.264-10.608-5.378c-0.442,0.76-0.697,1.645-0.697,2.588
	c0,1.786,0.909,3.361,2.289,4.284c-0.843-0.027-1.637-0.258-2.331-0.644c0,0.021,0,0.044,0,0.064c0,2.494,1.774,4.575,4.128,5.047
	c-0.432,0.117-0.886,0.18-1.356,0.18c-0.332,0-0.654-0.032-0.968-0.092c0.655,2.043,2.556,3.533,4.808,3.574
	c-1.761,1.382-3.98,2.204-6.392,2.204c-0.416,0-0.825-0.023-1.228-0.073c2.278,1.46,4.983,2.313,7.889,2.313
	c9.469,0,14.645-7.844,14.645-14.644c0-0.223-0.006-0.445-0.015-0.667C26.98,10.159,27.854,9.252,28.543,8.22"/>
</svg>
