<?xml version="1.0" encoding="utf-8"?>
<!-- Generator: Adobe Illustrator 15.0.2, SVG Export Plug-In . SVG Version: 6.00 Build 0)  -->
<!DOCTYPE svg PUBLIC "-//W3C//DTD SVG 1.1//EN" "http://www.w3.org/Graphics/SVG/1.1/DTD/svg11.dtd">
<svg version="1.1" id="Layer_1" xmlns="http://www.w3.org/2000/svg" xmlns:xlink="http://www.w3.org/1999/xlink" x="0px" y="0px"
	 width="22.5px" height="32px" viewBox="5.5 0 22.5 32" enable-background="new 5.5 0 22.5 32" xml:space="preserve">
<path d="M17.345,24.387c0-0.189-0.021-0.373-0.06-0.549c-0.042-0.176-0.086-0.336-0.129-0.486c-0.046-0.148-0.124-0.305-0.236-0.467
	s-0.208-0.299-0.284-0.412c-0.076-0.111-0.196-0.246-0.358-0.4c-0.162-0.152-0.287-0.266-0.372-0.344
	c-0.085-0.074-0.23-0.189-0.432-0.342c-0.203-0.156-0.342-0.258-0.419-0.312c-0.076-0.053-0.225-0.158-0.445-0.311
	c-0.22-0.15-0.359-0.248-0.413-0.283c-0.154-0.018-0.379-0.025-0.676-0.025c-0.487,0-0.964,0.029-1.433,0.092
	c-0.469,0.064-0.956,0.176-1.46,0.338c-0.505,0.164-0.947,0.369-1.325,0.625c-0.379,0.25-0.689,0.588-0.933,1.012
	c-0.244,0.422-0.365,0.904-0.365,1.447c0,0.611,0.16,1.158,0.479,1.643c0.319,0.48,0.739,0.863,1.257,1.137
	c0.518,0.275,1.062,0.479,1.629,0.615c0.568,0.135,1.14,0.201,1.718,0.201c0.531,0,1.039-0.057,1.521-0.166
	c0.482-0.115,0.935-0.291,1.358-0.527c0.424-0.242,0.759-0.572,1.008-0.994C17.221,25.449,17.345,24.953,17.345,24.387
	 M15.723,12.73c0-0.541-0.075-1.115-0.223-1.723c-0.149-0.608-0.361-1.197-0.637-1.765c-0.274-0.567-0.652-1.037-1.135-1.406
	c-0.482-0.369-1.021-0.555-1.616-0.555c-0.839,0-1.486,0.312-1.947,0.934c-0.459,0.621-0.689,1.365-0.689,2.23
	c0,0.423,0.053,0.87,0.156,1.339s0.264,0.938,0.479,1.406c0.216,0.469,0.469,0.89,0.757,1.264c0.289,0.375,0.64,0.678,1.054,0.913
	c0.415,0.235,0.852,0.352,1.312,0.352c0.875,0,1.507-0.272,1.9-0.818C15.526,14.355,15.723,13.632,15.723,12.73 M13.951,6.307h5.91
	l-1.825,1.068h-1.826c0.641,0.406,1.136,0.974,1.488,1.705c0.352,0.729,0.527,1.491,0.527,2.285c0,0.667-0.103,1.259-0.311,1.778
	c-0.207,0.519-0.459,0.936-0.758,1.25c-0.298,0.315-0.594,0.605-0.892,0.872c-0.297,0.266-0.551,0.542-0.757,0.825
	c-0.208,0.283-0.311,0.587-0.311,0.912c0,0.234,0.074,0.465,0.224,0.689c0.147,0.225,0.342,0.443,0.582,0.648
	c0.238,0.207,0.501,0.424,0.791,0.652c0.29,0.223,0.576,0.473,0.867,0.748c0.288,0.275,0.552,0.572,0.791,0.893
	c0.237,0.32,0.433,0.703,0.58,1.15c0.149,0.445,0.225,0.924,0.225,1.439c0,1.441-0.632,2.713-1.893,3.812
	c-1.374,1.182-3.267,1.771-5.683,1.771c-0.532,0-1.07-0.045-1.616-0.135c-0.546-0.088-1.095-0.24-1.649-0.449
	c-0.554-0.215-1.043-0.479-1.467-0.787c-0.424-0.311-0.771-0.713-1.041-1.203C5.635,25.742,5.5,25.193,5.5,24.588
	c0-0.549,0.166-1.156,0.5-1.824c0.289-0.578,0.721-1.076,1.298-1.494c0.576-0.42,1.23-0.738,1.96-0.959
	c0.73-0.223,1.429-0.383,2.096-0.488c0.667-0.102,1.342-0.164,2.028-0.182c-0.577-0.75-0.865-1.42-0.865-2.016
	c0-0.107,0.009-0.213,0.026-0.318c0.018-0.103,0.042-0.19,0.068-0.264c0.027-0.071,0.063-0.169,0.107-0.29
	c0.045-0.122,0.077-0.22,0.096-0.291c-0.361,0.044-0.676,0.067-0.947,0.067c-1.344,0-2.495-0.443-3.455-1.326
	c-0.959-0.883-1.44-1.993-1.44-3.327c0-1.262,0.428-2.39,1.285-3.387c0.856-0.995,1.912-1.632,3.165-1.912
	C12.27,6.397,13.112,6.307,13.951,6.307 M28,9.769V11.5h-3.462v3.461h-1.731V11.5h-3.461V9.769h3.461V6.307h1.731v3.462H28z"/>
</svg>
