<?xml version="1.0" encoding="utf-8"?>
<!-- Generator: Adobe Illustrator 15.0.2, SVG Export Plug-In . SVG Version: 6.00 Build 0)  -->
<!DOCTYPE svg PUBLIC "-//W3C//DTD SVG 1.1//EN" "http://www.w3.org/Graphics/SVG/1.1/DTD/svg11.dtd">
<svg version="1.1" id="Layer_1" xmlns="http://www.w3.org/2000/svg" xmlns:xlink="http://www.w3.org/1999/xlink" x="0px" y="0px"
	 width="61.7px" height="57.181px" viewBox="0 0 61.7 57.181" enable-background="new 0 0 61.7 57.181" xml:space="preserve">
<path d="M61.563,30.432l-7.324-8.889l7.078-8.56c0.164-0.164,0.246-0.411,0.164-0.658c-0.083-0.247-0.164-0.412-0.411-0.576
	L38.93,0.144c-0.329-0.165-0.741-0.083-0.986,0.164L30.7,9.033l-7.243-8.725c-0.247-0.329-0.659-0.411-0.988-0.164L0.412,11.666
	C0.165,11.749,0,11.996,0,12.243c0,0.246,0,0.493,0.165,0.658L7.49,21.79l-7.161,8.642c-0.164,0.164-0.247,0.411-0.164,0.658
	c0.082,0.247,0.164,0.412,0.411,0.576l7.49,3.951v9.3v0.247c0,0.33,0.165,0.576,0.412,0.741l21.975,11.192
	c0.082,0.083,0.247,0.083,0.329,0.083s0.247,0,0.329-0.083l22.222-11.192c0.247-0.165,0.412-0.411,0.412-0.741v-0.247v-9.3
	l7.49-3.951c0.246-0.082,0.41-0.329,0.41-0.576C61.729,30.843,61.729,30.596,61.563,30.432 M2.058,12.654L22.716,1.872l6.749,8.148
	l-15.308,7.984L8.971,20.72H8.642L2.058,12.654z M8.148,33.724l-5.843-3.045l5.843-7.078l0.823-0.988l0.083-0.082l0.74,0.329
	l19.918,10.37l-0.247,0.329l-2.634,3.21l-3.868,4.692l-2.634-1.4l-1.81-0.904l-8.725-4.527L8.148,33.724z M30.124,55.041
	l-19.589-9.959L9.794,44.67v-1.069v-7.161l6.914,3.621l1.811,0.906l4.279,2.222c0.083,0.082,0.247,0.082,0.412,0.082
	c0.247,0,0.494-0.082,0.658-0.329l6.42-7.736v19.836H30.124z M38.766,1.872l20.658,10.782l-6.584,7.901L32.017,10.02L38.766,1.872z
	 M52.099,43.601v1.069l-0.741,0.412L31.77,55.041V35.288l6.419,7.735c0.165,0.165,0.412,0.33,0.659,0.33
	c0.164,0,0.247,0,0.411-0.083l4.28-2.222l1.811-0.905l6.914-3.622v7.079H52.099z M53.745,33.724l-1.646,0.823l-8.724,4.527
	l-1.812,0.904l-2.634,1.399l-3.868-4.691l-2.634-3.128l-0.164-0.247L52.099,22.86l0.411-0.247c0.083,0,0.165,0.082,0.247,0.082
	h0.165l0.823,0.988l5.844,7.078L53.745,33.724z"/>
</svg>
