<?xml version="1.0" encoding="utf-8"?>
<!-- Generator: Adobe Illustrator 15.0.2, SVG Export Plug-In . SVG Version: 6.00 Build 0)  -->
<!DOCTYPE svg PUBLIC "-//W3C//DTD SVG 1.1//EN" "http://www.w3.org/Graphics/SVG/1.1/DTD/svg11.dtd">
<svg version="1.1" id="Layer_1" xmlns="http://www.w3.org/2000/svg" xmlns:xlink="http://www.w3.org/1999/xlink" x="0px" y="0px"
	 width="28.905px" height="63.166px" viewBox="-0.502 -0.5 28.905 63.166" enable-background="new -0.502 -0.5 28.905 63.166"
	 xml:space="preserve">
<path d="M28.152,41.732l-8.258-23.039c-0.643-1.798-2.43-3.312-4.343-3.862c3.507-0.74,6.148-3.857,6.148-7.582
	c0-4.273-3.477-7.75-7.75-7.75S6.2,2.977,6.2,7.25c0,3.725,2.642,6.842,6.149,7.582c-1.913,0.55-3.7,2.064-4.343,3.862L-0.25,41.732
	c-0.416,1.16-0.314,2.267,0.284,3.117c0.598,0.851,1.606,1.318,2.837,1.318h5.314c0.001,0.037,0.004,0.074,0.007,0.111l1.095,11.95
	c0.225,2.446,2.317,4.437,4.664,4.437c2.347,0,4.439-1.99,4.664-4.437l1.095-11.948c0.003-0.038,0.006-0.075,0.008-0.113h5.312
	c1.23,0,2.237-0.468,2.836-1.317C28.466,44,28.567,42.892,28.152,41.732z"/>
</svg>
