<?xml version="1.0" encoding="utf-8"?>
<!-- Generator: Adobe Illustrator 15.0.2, SVG Export Plug-In . SVG Version: 6.00 Build 0)  -->
<!DOCTYPE svg PUBLIC "-//W3C//DTD SVG 1.1//EN" "http://www.w3.org/Graphics/SVG/1.1/DTD/svg11.dtd">
<svg version="1.1" id="Layer_1" xmlns="http://www.w3.org/2000/svg" xmlns:xlink="http://www.w3.org/1999/xlink" x="0px" y="0px"
	 width="34.329px" height="48.378px" viewBox="0 0 34.329 48.378" enable-background="new 0 0 34.329 48.378" xml:space="preserve">
<path d="M32.915,44.234c1.637-1.335,1.736-3.324,0.894-4.404c-0.528-0.668-6.05-7.084-6.69-7.807
	c-0.729-0.809-2.074-1.102-3.515-0.793c-0.726,0.148-2.901,0.68-4.062,0.964c-0.713-0.894-2.254-2.999-4.414-6.879
	c-2.159-3.879-3.136-6.297-3.521-7.375c0.853-0.837,2.45-2.405,2.964-2.946c1.024-1.07,1.465-2.334,1.176-3.375
	c-0.279-0.992-2.857-9.059-3.113-9.798C12.258,0.732,11.099,0,9.75,0C9.306,0,8.856,0.078,8.409,0.233
	C8.337,0.257,1.067,2.875,0.414,5.462c-1.42,5.666,0.825,13.844,6.665,24.332c4.02,7.219,10.259,16.281,17.157,18.473
	c0.238,0.076,0.479,0.111,0.738,0.111C27.577,48.378,32.866,44.276,32.915,44.234 M31.866,41.354
	c0.012,0.039,0.057,0.503-0.513,0.967c-1.505,1.228-5.233,3.587-6.38,3.587c-6.119-1.943-11.936-10.488-15.737-17.314
	C5.437,21.773,1.238,12.33,2.802,6.089c0.396-0.801,4.294-2.793,6.414-3.522c0.59-0.208,1.059,0.032,1.097,0.091
	c0.2,0.586,2.783,8.658,3.054,9.622c0.012,0.099-0.114,0.519-0.584,1.009c-0.67,0.705-3.423,3.391-3.45,3.418l-0.513,0.5L9,17.901
	c0.029,0.112,0.752,2.833,3.968,8.612c3.217,5.781,5.152,7.83,5.232,7.916l0.493,0.516l0.695-0.171
	c0.038-0.011,3.772-0.935,4.718-1.128c0.628-0.133,1.129-0.01,1.182,0.033C25.961,34.441,31.399,40.763,31.866,41.354"/>
</svg>
