<?xml version="1.0" encoding="utf-8"?>
<!-- Generator: Adobe Illustrator 15.0.2, SVG Export Plug-In . SVG Version: 6.00 Build 0)  -->
<!DOCTYPE svg PUBLIC "-//W3C//DTD SVG 1.1//EN" "http://www.w3.org/Graphics/SVG/1.1/DTD/svg11.dtd">
<svg version="1.1" id="Layer_1" xmlns="http://www.w3.org/2000/svg" xmlns:xlink="http://www.w3.org/1999/xlink" x="0px" y="0px"
	 width="87.194px" height="87.194px" viewBox="0 0 87.194 87.194" enable-background="new 0 0 87.194 87.194" xml:space="preserve">
<path d="M83.062,39.465H47.729V4.132C47.729,1.85,45.879,0,43.597,0c-2.282,0-4.132,1.85-4.132,4.132v35.333H4.132
	C1.85,39.465,0,41.315,0,43.597s1.85,4.132,4.132,4.132h35.333v35.333c0,2.282,1.85,4.132,4.132,4.132
	c2.282,0,4.132-1.85,4.132-4.132V47.729h35.333c2.282,0,4.133-1.851,4.133-4.132S85.345,39.465,83.062,39.465"/>
<rect fill="none" width="87.194" height="87.194"/>
</svg>
