<?xml version="1.0" encoding="utf-8"?>
<!-- Generator: Adobe Illustrator 15.0.2, SVG Export Plug-In . SVG Version: 6.00 Build 0)  -->
<!DOCTYPE svg PUBLIC "-//W3C//DTD SVG 1.1//EN" "http://www.w3.org/Graphics/SVG/1.1/DTD/svg11.dtd">
<svg version="1.1" id="Layer_1" xmlns="http://www.w3.org/2000/svg" xmlns:xlink="http://www.w3.org/1999/xlink" x="0px" y="0px"
	 width="64.64px" height="67.81px" viewBox="0 0 64.64 67.81" enable-background="new 0 0 64.64 67.81" xml:space="preserve">
<path d="M62.572,55.473L51.021,43.918c3.138-4.52,4.982-10.009,4.982-15.919C56.003,12.559,43.439,0,28,0C12.56,0,0,12.559,0,27.999
	c0,15.444,12.56,28.002,28,28.002c4.254,0,8.288-0.955,11.903-2.661l12.401,12.403c1.337,1.332,3.122,2.066,5.02,2.066
	c1.946,0,3.782-0.765,5.17-2.149C65.323,62.83,65.358,58.256,62.572,55.473 M11.199,27.999c0-9.263,7.538-16.801,16.801-16.801
	c9.264,0,16.802,7.538,16.802,16.801c0,9.267-7.538,16.804-16.802,16.804C18.737,44.803,11.199,37.266,11.199,27.999"/>
</svg>
