<svg style="display:none" xmlns="http://www.w3.org/2000/svg">
  <defs>
    <linearGradient id="logo-coloplast-care-a" gradientUnits="userSpaceOnUse" x1="23.233" y1="22.864" x2="23.233" y2="52.797">
      <stop offset="0" stop-color="#CCEFF4" />
      <stop offset="1" stop-color="#00B0CA" />
    </linearGradient>
    <linearGradient id="logo-coloplast-care-b" gradientUnits="userSpaceOnUse" x1="8.767" y1="21.007" x2="8.767" y2="51.041">
      <stop offset="0" stop-color="#CCEFF4" />
      <stop offset="1" stop-color="#00B0CA" />
    </linearGradient>
    <linearGradient id="logo-coloplast-care-c" gradientUnits="userSpaceOnUse" x1="23.631" y1="17.424" x2="23.631" y2="50.469">
      <stop offset="0" stop-color="#CCEFF4" />
      <stop offset="1" stop-color="#00B0CA" />
    </linearGradient>
    <linearGradient id="logo-coloplast-care-d" gradientUnits="userSpaceOnUse" x1="17.459" y1="17.134" x2="17.459" y2="49.939">
      <stop offset="0" stop-color="#CCEFF4" />
      <stop offset="1" stop-color="#00B0CA" />
    </linearGradient>
    <linearGradient id="logo-coloplast-care-e" gradientUnits="userSpaceOnUse" x1="16.956" y1="21.591" x2="16.956" y2="48.872">
      <stop offset="0" stop-color="#CCEFF4" />
      <stop offset="1" stop-color="#00B0CA" />
    </linearGradient>
  </defs>
  <symbol viewBox="0 0 12.4 6.773" id="shape-icon-arrow-down">
    <title>icon-arrow-down</title>
    <path d="M0 .85C0 .64.078.43.233.266c.323-.34.86-.354 1.202-.03L6.2 4.75l4.765-4.52c.34-.322.88-.308 1.2.032.325.342.31.88-.03 1.202L6.785 6.54c-.328.312-.842.312-1.17 0L.265 1.467C.09 1.3 0 1.075 0 .85z" />
  </symbol>
  <symbol viewBox="0 0 6.773 12.4" id="shape-icon-arrow-left">
    <title>icon-arrow-left</title>
    <path d="M5.923 12.4c.21 0 .42-.078.586-.233.34-.323.353-.86.03-1.202L2.02 6.2l4.52-4.765c.323-.34.31-.878-.03-1.2-.343-.325-.88-.31-1.203.03L.234 5.615c-.312.328-.312.84 0 1.17l5.073 5.35c.167.176.39.265.616.265z" />
  </symbol>
  <symbol viewBox="0 0 6.773 12.4" id="shape-icon-arrow-right">
    <title>icon-arrow-right</title>
    <path d="M.85 12.4c-.21 0-.42-.078-.585-.233-.34-.323-.354-.86-.03-1.202L4.75 6.2.232 1.435c-.322-.34-.308-.878.032-1.2.342-.324.88-.31 1.202.03l5.073 5.35c.31.33.31.842 0 1.17l-5.074 5.35c-.166.176-.39.265-.615.265z" />
  </symbol>
  <symbol viewBox="0 0 12.4 6.773" id="shape-icon-arrow-up">
    <title>icon-arrow-up</title>
    <path d="M0 5.923c0 .21.078.42.233.586.323.34.86.353 1.202.03L6.2 2.02l4.765 4.52c.34.323.88.31 1.2-.03.325-.343.31-.88-.03-1.203L6.785.234c-.328-.312-.842-.312-1.17 0L.265 5.307C.09 5.474 0 5.697 0 5.923z" />
  </symbol>
  <symbol viewBox="0 0 61.7 57.181" id="shape-icon-box-open">
    <title>icon-box-open</title>
    <path d="M61.563 30.432l-7.324-8.89 7.077-8.56c.164-.163.246-.41.164-.657-.082-.247-.163-.412-.41-.576L38.93.143c-.33-.165-.74-.083-.986.164L30.7 9.033 23.457.308c-.247-.33-.66-.41-.988-.164L.41 11.666c-.247.083-.412.33-.412.577 0 .246 0 .493.165.658l7.325 8.89-7.16 8.642c-.165.164-.248.41-.165.658.082.247.164.412.41.576l7.49 3.95v9.548c0 .33.166.576.413.74l21.975 11.193c.082.083.247.083.33.083s.246 0 .328-.083l22.223-11.192c.247-.165.412-.41.412-.74v-9.548l7.49-3.95c.246-.083.41-.33.41-.577.084-.247.084-.494-.082-.658M2.058 12.654L22.716 1.872l6.75 8.148-15.31 7.984-5.185 2.716h-.328l-6.584-8.066zm6.09 21.07L2.305 30.68l5.843-7.08.823-.987.084-.082.74.33 19.918 10.37-.247.33-2.634 3.21-3.867 4.69-2.634-1.4-1.81-.903-8.726-4.527-1.646-.906zM30.124 55.04l-19.59-9.958-.74-.412v-8.23l6.914 3.62 1.81.907 4.28 2.222c.083.08.247.08.412.08.247 0 .494-.08.658-.328l6.42-7.736v19.836h-.164zm8.642-53.168l20.658 10.782-6.584 7.9L32.017 10.02l6.75-8.148zM52.1 43.602v1.068l-.742.412-19.588 9.96V35.287l6.42 7.735c.164.165.41.33.658.33.164 0 .247 0 .41-.083l4.28-2.222 1.812-.905 6.914-3.622v7.08H52.1zm1.645-9.878l-1.646.823-8.725 4.527-1.812.904-2.634 1.4-3.87-4.692-2.633-3.128-.164-.247L52.1 22.86l.41-.247c.083 0 .165.082.247.082h.165l.823.988 5.844 7.078-5.845 2.964z"
    />
  </symbol>
  <symbol viewBox="0 0 27.9 62.167" id="shape-icon-gender-female">
    <title>icon-gender-female</title>
    <g>
      <circle cx="13.95" cy="7.25" r="7.25" />
      <path d="M27.68 41.9l-8.256-23.038c-.74-2.07-3.148-3.765-5.35-3.765h-.248c-2.2 0-4.608 1.694-5.35 3.765L.22 41.902c-.742 2.07.45 3.766 2.65 3.766h5.826c-.01.187-.023.372-.006.565l1.095 11.95c.2 2.19 2.075 3.983 4.166 3.983 2.092 0 3.966-1.792 4.167-3.983l1.095-11.95c.018-.193.004-.38-.006-.565h5.824c2.2 0 3.392-1.696 2.65-3.767z"
      />
    </g>
  </symbol>
  <symbol viewBox="0 0 27.59 65.167" id="shape-icon-gender-male">
    <title>icon-gender-male</title>
    <path d="M6.545 8.25C6.545 4.246 9.79 1 13.795 1s7.25 3.246 7.25 7.25-3.246 7.25-7.25 7.25-7.25-3.246-7.25-7.25zM24.71 20.222c-4.228-3.875-10.915-4.125-10.915-4.125s-6.688.25-10.916 4.125 0 20.375 0 20.375.945 2.59 3.927 1.34l.563 18.232c.063 2.037 1.66 3.73 3.647 3.97l.476.027c2.168-.02 2.302-2.375 2.302-2.375s-.062 2.396 2.302 2.375c2.2 0 4.056-1.8 4.124-4l.582-18.854c2.25 2.396 3.908-.715 3.908-.715s4.23-16.5 0-20.376z"
    />
    <g stroke-miterlimit="10">
      <circle cx="13.795" cy="8.25" r="7.25" />
      <path d="M6.808 41.937c-2.982 1.25-3.928-1.34-3.928-1.34s-4.228-16.5 0-20.374 10.916-4.125 10.916-4.125 6.688.25 10.915 4.125c4.23 3.875 0 20.375 0 20.375s-1.657 3.11-3.907.715M13.795 39.916v21.876s-.134 2.354-2.302 2.375l-.476-.028C9.03 63.9 7.433 62.206 7.37 60.17l-.973-31.546s.187-1.957-1.063-2.04M22.417 26.583c-1.167 0-1.224 2.04-1.224 2.04l-.973 31.544c-.068 2.2-1.924 3.998-4.123 3.998M13.795 61.792s-.062 2.396 2.302 2.375M16.45 64.167h-.655"
      />
    </g>
  </symbol>
  <symbol viewBox="0 0 51 47" id="shape-icon-navbars">
    <title>icon-navbars</title>
    <path d="M375 277h51v9h-51zM375 296h51v9h-51zM375 315h51v9h-51z" />
    <path d="M0 0h51v8H0zM0 39h51v8H0zM0 19.5h51v8H0z" />
  </symbol>
  <symbol viewBox="0 0 34.329 48.378" id="shape-icon-phone-outline">
    <title>icon-phone-outline</title>
    <path d="M32.915 4.144C32.865 4.102 27.575 0 24.975 0c-.26 0-.5.035-.74.11C17.34 2.304 11.1 11.366 7.08 18.584 1.24 29.073-1.007 37.25.413 42.916c.653 2.588 7.923 5.205 7.995 5.23.446.154.896.232 1.34.232 1.35 0 2.508-.732 2.884-1.82.256-.74 2.834-8.807 3.113-9.798.29-1.04-.152-2.305-1.176-3.376-.513-.54-2.11-2.11-2.963-2.946.385-1.078 1.362-3.496 3.52-7.375 2.16-3.88 3.7-5.985 4.414-6.88 1.162.286 3.338.817 4.063.965 1.44.308 2.785.016 3.515-.793.64-.722 6.162-7.138 6.69-7.806.843-1.08.743-3.07-.893-4.406m-1.05 2.88c-.466.59-5.904 6.913-6.578 7.674-.052.043-.553.167-1.18.034-.946-.194-4.68-1.118-4.72-1.128l-.694-.17-.494.515c-.08.084-2.015 2.133-5.232 7.915-3.216 5.78-3.94 8.5-3.968 8.612l-.18.694.513.5c.027.028 2.78 2.714 3.45 3.42.47.49.596.91.584 1.008-.27.964-2.854 9.037-3.054 9.622-.038.06-.507.3-1.097.09-2.12-.73-6.018-2.72-6.414-3.52-1.564-6.242 2.635-15.685 6.434-22.506 3.8-6.826 9.618-15.37 15.737-17.314 1.146 0 4.875 2.36 6.38 3.587.57.464.524.928.513.967"
    />
  </symbol>
  <symbol viewBox="0 0 64.64 67.81" id="shape-icon-search">
    <title>icon-search</title>
    <path d="M62.572 55.473l-11.55-11.555c3.137-4.52 4.98-10.01 4.98-15.92C56.003 12.56 43.44 0 28 0 12.56 0 0 12.56 0 28c0 15.443 12.56 28 28 28 4.254 0 8.288-.954 11.903-2.66l12.4 12.403c1.338 1.332 3.123 2.066 5.02 2.066 1.947 0 3.783-.766 5.17-2.15 2.83-2.83 2.865-7.404.08-10.187M11.198 28c0-9.264 7.537-16.802 16.8-16.802 9.264 0 16.802 7.538 16.802 16.8 0 9.268-7.538 16.805-16.802 16.805-9.263 0-16.8-7.537-16.8-16.804"
    />
  </symbol>
  <symbol viewBox="0 0 127.016 53.487" id="shape-logo-coloplast-care">
    <title>logo-coloplast-care</title>
    <g>
      <path d="M117.91 2.762c0 1.556-1.198 2.766-2.767 2.766s-2.766-1.21-2.766-2.766c0-1.55 1.197-2.762 2.766-2.762s2.768 1.21 2.768 2.762m-5.102 0c0 1.323.99 2.375 2.336 2.375 1.33 0 2.335-1.052 2.335-2.375 0-1.324-1.006-2.37-2.336-2.37-1.345 0-2.336 1.046-2.336 2.37m1.723 1.6h-.39V1.165h1.226c.72 0 1.038.312 1.038.885 0 .565-.362.81-.8.89l.95 1.423h-.46l-.898-1.422h-.665v1.423zm.527-1.755c.48 0 .952-.016.952-.558 0-.446-.368-.55-.756-.55h-.723v1.107h.527zM48.01 4.648c-.44-2.012-2.105-3.166-4.007-3.166-3.46 0-4.92 2.893-4.92 5.746 0 2.854 1.46 5.745 4.92 5.745 2.417 0 3.953-1.867 4.19-4.19h1.244c-.346 3.22-2.378 5.25-5.434 5.25-4.118 0-6.165-3.22-6.165-6.805S39.885.422 44.003.422c2.49 0 4.903 1.5 5.25 4.226H48.01zM59.576 9.04c0 2.707-1.593 4.994-4.465 4.994s-4.46-2.287-4.46-4.994c0-2.708 1.59-4.994 4.46-4.994s4.466 2.286 4.466 4.994m-7.775 0c0 1.993 1.117 4.026 3.31 4.026 2.198 0 3.314-2.033 3.314-4.026 0-1.994-1.116-4.026-3.313-4.026-2.193 0-3.31 2.03-3.31 4.026"
      />
      <path d="M61.316.698h1.152V13.76h-1.152zM73.137 9.04c0 2.707-1.593 4.994-4.463 4.994-2.873 0-4.468-2.287-4.468-4.994 0-2.708 1.595-4.994 4.468-4.994 2.87 0 4.463 2.286 4.463 4.994m-7.777 0c0 1.993 1.116 4.026 3.313 4.026 2.19 0 3.31-2.033 3.31-4.026 0-1.994-1.12-4.026-3.31-4.026-2.196 0-3.313 2.03-3.313 4.026M74.86 4.32h1.06v1.793h.037c.53-1.3 1.828-2.067 3.366-2.067 2.873 0 4.243 2.303 4.243 4.994 0 2.69-1.37 4.994-4.243 4.994-1.39 0-2.782-.696-3.276-2.068h-.036v5.288h-1.15V4.32zm4.463.694c-2.562 0-3.312 1.885-3.312 4.026 0 1.957.88 4.026 3.313 4.026 2.194 0 3.09-2.07 3.09-4.026 0-1.96-.895-4.026-3.09-4.026"
      />
      <path d="M85.38.697h1.153V13.76H85.38zM88.637 7.21c.13-2.215 1.648-3.165 3.825-3.165 1.663 0 3.475.494 3.475 3.035v5.013c0 .458.222.695.68.695.126 0 .236-.018.364-.072v.97c-.273.055-.437.074-.75.074-1.17 0-1.354-.68-1.354-1.647h-.037c-.823 1.224-1.61 1.92-3.44 1.92-1.755 0-3.165-.86-3.165-2.762 0-2.633 2.58-2.745 5.07-3.036.948-.093 1.48-.255 1.48-1.282 0-1.554-1.097-1.94-2.47-1.94-1.444 0-2.47.66-2.525 2.198h-1.153zm6.148 1.39h-.036c-.147.276-.658.366-.97.42-1.96.348-4.394.348-4.394 2.178 0 1.153 1.01 1.868 2.106 1.868 1.774 0 3.292-1.117 3.292-2.967V8.6zM103.9 7.08c-.056-1.425-1.154-2.066-2.47-2.066-1.024 0-2.234.403-2.234 1.628 0 1.006 1.153 1.392 1.96 1.593l1.536.347c1.314.202 2.687.97 2.687 2.616 0 2.048-2.03 2.836-3.786 2.836-2.215 0-3.677-1.006-3.878-3.33h1.152c.092 1.556 1.245 2.362 2.782 2.362 1.096 0 2.58-.477 2.58-1.794 0-1.097-1.025-1.462-2.068-1.72l-1.48-.33c-1.502-.385-2.637-.93-2.637-2.524 0-1.92 1.884-2.652 3.55-2.652 1.902 0 3.368.986 3.456 3.035h-1.15zM108.874 4.318h1.926v.972h-1.926v6.368c0 .748.115 1.188.938 1.243.33 0 .658-.018.988-.054v.986c-.35 0-.68.04-1.026.04-1.537 0-2.066-.514-2.047-2.125V5.29h-1.647v-.972h1.647V1.483h1.147v2.835zM61.143 28.857c-1.113-5.102-5.333-8.023-10.157-8.023-8.766 0-12.477 7.328-12.477 14.563S42.22 49.96 50.985 49.96c6.122 0 10.018-4.73 10.62-10.62h3.155c-.88 8.163-6.03 13.31-13.773 13.31-10.436 0-15.63-8.162-15.63-17.253s5.194-17.254 15.63-17.254c6.308 0 12.43 3.804 13.312 10.714h-3.157zM68.75 35.35c.324-5.61 4.174-8.023 9.693-8.023 4.22 0 8.813 1.253 8.813 7.7v12.707c0 1.16.557 1.763 1.716 1.763.325 0 .604-.046.928-.186v2.46c-.696.14-1.114.185-1.902.185-2.97 0-3.433-1.715-3.433-4.174h-.093c-2.086 3.108-4.08 4.87-8.72 4.87-4.452 0-8.023-2.18-8.023-7.002 0-6.68 6.54-6.958 12.847-7.7 2.412-.23 3.758-.648 3.758-3.246 0-3.942-2.784-4.917-6.263-4.917-3.664 0-6.262 1.67-6.4 5.566H68.75zm15.585 3.525h-.095c-.37.697-1.668.93-2.458 1.068-4.963.88-11.132.88-11.132 5.52 0 2.922 2.552 4.73 5.334 4.73 4.5 0 8.35-2.83 8.35-7.514v-3.805zM93.1 28.023h2.69v5.61h.094c1.483-3.895 4.73-6.12 9.044-5.935v2.92c-5.288-.23-8.905 3.572-8.905 8.582v12.754H93.1v-23.93zM108.59 40.777c0 4.268 2.32 9.416 7.886 9.416 4.268 0 6.587-2.46 7.515-6.123h2.923c-1.252 5.427-4.36 8.58-10.437 8.58-7.605 0-10.806-5.843-10.806-12.66 0-6.31 3.2-12.663 10.806-12.663 7.653 0 10.762 6.726 10.528 13.45H108.59zm15.492-2.458c-.14-4.406-2.922-8.535-7.606-8.535-4.823 0-7.374 4.174-7.885 8.534h15.492z"
      />
    </g>
    <path d="M10.89 50.596c1.048 2.584 23.484 2.89 24.7 0 1.217-2.89-4.673-8.498-12.36-8.498-7.468 0-13.65 5.26-12.34 8.498z" />
    <path d="M17.422 39.904c.853-2.117-3.274-6.227-8.66-6.227-4.733 0-8.728 3.157-8.762 5.517v.06c.003.226.043.444.123.65.378.97 4.713 1.502 8.953 1.502 4.007 0 7.932-.475 8.346-1.502z" />
    <path d="M23.64 21.555c-3.002-.002-5.31 1.712-4.836 2.597.472.882 9.234.795 9.646.006.516-.99-1.894-2.603-4.81-2.603z" />
    <path d="M17.468 18.143c-2.363-.002-4.18 1.226-3.81 1.857.375.63 7.272.567 7.595.003.406-.71-1.49-1.86-3.785-1.86z" />
    <path d="M10.152 30.798c.64 1.456 12.978 1.58 13.58.304.754-1.602-2.59-4.302-6.697-4.394l-.214-.002c-4.12 0-7.296 2.66-6.668 4.092z" />
  </symbol>
  <symbol viewBox="0 0 114 26" id="shape-logo-coloplast">
    <title>logo-coloplast</title>
    <g>
      <path d="M44.447 14.01l-.025.25c-.302 3.187-2.625 5.248-5.92 5.248-1.906 0-3.54-.628-4.73-1.814-1.2-1.202-1.862-2.913-1.862-4.82 0-2.004.644-3.707 1.86-4.925 1.186-1.186 2.822-1.813 4.73-1.813 3.14 0 5.476 1.863 5.81 4.638l.032.25-3.207.002-.028-.192C40.944 9.733 39.8 8.87 38.502 8.87c-.917 0-1.662.28-2.217.833-.693.694-1.075 1.82-1.075 3.172 0 1.29.377 2.376 1.062 3.062.558.56 1.308.842 2.23.842 1.506 0 2.51-.948 2.727-2.58l.012-.185 3.205-.004"
      />
      <path d="M50.305 9.553c1.533 0 2.826.48 3.738 1.396.882.88 1.348 2.107 1.348 3.546 0 1.43-.464 2.65-1.343 3.528-.914.912-2.208 1.396-3.742 1.396-1.525 0-2.813-.48-3.724-1.394-.88-.88-1.345-2.102-1.345-3.53 0-1.453.464-2.684 1.34-3.56.905-.906 2.195-1.383 3.73-1.383m-1.365 7.062c.333.334.792.503 1.364.503.575 0 1.04-.173 1.38-.515.56-.56.678-1.457.678-2.11 0-.664-.117-1.573-.677-2.134-.336-.337-.8-.507-1.38-.507-.573 0-1.03.168-1.363.5-.56.562-.68 1.474-.68 2.14.002.66.12 1.564.678 2.122zM65.584 9.553c1.532 0 2.825.48 3.736 1.396.883.88 1.35 2.107 1.35 3.546 0 1.43-.466 2.65-1.345 3.528-.913.912-2.208 1.396-3.74 1.396-1.526 0-2.813-.48-3.726-1.394-.88-.88-1.347-2.102-1.347-3.53 0-1.453.465-2.684 1.342-3.56.905-.906 2.194-1.383 3.73-1.383m-1.364 7.062c.333.334.792.503 1.364.503.575 0 1.04-.173 1.38-.515.562-.56.68-1.457.68-2.11 0-.664-.118-1.573-.68-2.134-.335-.337-.8-.507-1.38-.507-.57 0-1.03.168-1.36.5-.563.562-.68 1.474-.68 2.14 0 .66.115 1.564.677 2.122zM56.44 6.407h3.027V19.19H56.44zM82.73 6.407h3.025V19.19H82.73zM111.62 11.88h1.888V9.787h-1.887v-2.68h-3.026v2.68h-1.56l-.002 2.095h1.562v5.043c0 .683.194 1.224.578 1.606.667.665 1.807.743 2.604.743.66 0 1.164-.03 1.54-.09l.192-.03V16.77l-.27.05c-.235.047-.47.066-.756.066-.394 0-.615-.046-.72-.15-.1-.097-.143-.302-.143-.66v-4.195"
      />
      <path d="M74.746 22.312l-3.03.002.005-.227v-12.3h2.587l.31.71.02.043.03-.03c.637-.63 1.52-.964 2.56-.964 1.27 0 2.31.398 3.097 1.184.896.896 1.39 2.262 1.39 3.844 0 1.46-.5 2.797-1.377 3.673-.765.763-1.788 1.165-2.966 1.165-.994 0-1.905-.34-2.567-.955l-.053-.048v3.902m3.934-7.807c0-.915-.262-1.7-.717-2.156-.333-.334-.77-.503-1.307-.503-.547 0-.988.165-1.314.492-.445.442-.69 1.212-.69 2.165 0 .918.243 1.666.685 2.104.333.33.783.5 1.34.5.556 0 1.003-.167 1.335-.497.55-.554.67-1.453.67-2.108zM96.822 19.17l-2.57.002-.343-.808v-.077l-.053.056c-.658.68-1.637 1.068-2.685 1.068-1.178 0-2.202-.4-2.964-1.164-.876-.876-1.38-2.214-1.38-3.673 0-1.582.494-2.947 1.392-3.844.785-.786 1.827-1.185 3.098-1.185 1.037 0 1.92.333 2.558.963l.03.03.326-.752h2.59v9.385m-4.96-2.06c.56 0 1.008-.17 1.34-.5.44-.44.685-1.19.685-2.105 0-.953-.246-1.723-.69-2.166-.325-.328-.77-.493-1.313-.493-.533 0-.975.17-1.308.502-.455.454-.716 1.24-.716 2.155 0 .655.117 1.554.67 2.108.33.33.78.498 1.333.498zM100.78 16.318c.208.928 1.364 1 1.717 1 .144 0 .877-.02 1.248-.392.142-.142.214-.317.214-.522 0-.557-1.037-.81-2.742-1.16-1.022-.214-3.153-.66-3.153-2.604 0-.82.258-1.495.766-2.003.726-.725 1.916-1.09 3.542-1.09 2.632 0 4.136 1.025 4.354 2.97l-2.91-.02c-.062-.377-.3-.857-1.515-.857-.668 0-.956.146-1.078.27-.088.087-.128.192-.128.333 0 .553.94.74 2.03.96.23.047.47.096.712.148 1.022.225 3.15.69 3.15 2.727 0 .876-.278 1.603-.833 2.153-.977.977-2.536 1.182-3.672 1.182-1.368 0-2.468-.276-3.268-.82-.787-.54-1.24-1.31-1.347-2.287l2.914.013"
      />
    </g>
    <g>
      <path d="M20.466 12.785c-1.716 0-2.944.42-3.98.42-1.038 0-2.392-.372-3.218-.372H0c0 7.045 5.705 12.77 12.75 12.77s12.764-5.772 12.764-12.816c0-.002-4.023-.002-5.048-.002M17.716 1.01C16.138.313 14.423 0 12.756 0c-1.84 0-3.393.31-4.974 1.01h9.934M15.98 11.625c-2.074 0-4.796.382-5.657.382H.023c.02-.366.052-.662.104-1.02h9.893c1.064.066 2.942.387 5.96.387l1.056.006c3.312 0 4.618-.344 5.238-.344l3.114-.047c.05.354.08.64.1 1.004l-3.72-.02c-.94 0-2.69-.366-4.762-.366l-1.027.017M17.496 9.814c2.585 0 4.356.32 5.382.32l2.36.004c-.075-.367-.14-.618-.246-.974l-1.755.017c-.58.09-2.986.443-5.726.383l-2.07.02c-2.125.025-5.03-.246-6.31-.407H.52c-.105.353-.177.628-.25.994l8.56-.003c.508 0 4.053-.348 6.626-.348l2.04-.006M21.687 3.658c.344.34.57.57.873.95l-.645-.056c-1.088-.065-2.325-.27-4.91-.27l-1.025-.005c-3.002 0-5.474.4-6.21.4H2.887c.302-.378.523-.605.868-.957h7.428c1.04.082 2.47.328 4.796.328l1.04-.015c2.074 0 3.247-.22 3.837-.263l.83-.112M16.988 6.133c2.585 0 4.995.104 6.097.263l.733.027c-.205-.37-.31-.532-.55-.88l-.7.06c-.508 0-2.963.263-5.55.263h-1.087c-4.124 0-5.473-.327-6.41-.327H2.243c-.24.35-.397.595-.604.97l6.953-.006c.854-.138 4.787-.475 7.37-.37h1.025M17.545 7.966c2.585 0 5.226.263 5.776.32l1.382.01c-.134-.367-.232-.593-.397-.944l-.975.078c-1.105.06-2.614.294-5.785.294l-2.073.01c-3.023 0-5.27-.292-6.316-.373l-7.95-.005c-.166.353-.27.598-.403.968l7.737-.01c1.13-.117 3.747-.327 6.932-.327l2.073-.02M19.006 2.78c.556.054 1.705.01 1.705.01-.477-.397-.822-.62-1.354-.945H6.158c-.528.32-.953.62-1.428 1.003l8.304-.007c1.115 0 2.26-.427 3.296-.427 1.037 0 2.058.31 2.676.367"
      />
    </g>
  </symbol>
</svg>